<svg width="30" height="30" viewBox="0 0 30 30" fill="none" xmlns="http://www.w3.org/2000/svg">
<path fill-rule="evenodd" clip-rule="evenodd" d="M0 2.5C0 1.11929 1.11929 0 2.5 0H3.5C4.88071 0 6 1.11929 6 2.5V3.5C6 4.88071 4.88071 6 3.5 6H2.5C1.11929 6 0 4.88071 0 3.5V2.5ZM0 14.5C0 13.1193 1.11929 12 2.5 12H3.5C4.88071 12 6 13.1193 6 14.5V15.5C6 16.8807 4.88071 18 3.5 18H2.5C1.11929 18 0 16.8807 0 15.5V14.5ZM14.5001 0C13.1194 0 12.0001 1.11929 12.0001 2.5V3.5C12.0001 4.88071 13.1194 6 14.5001 6H15.5001C16.8808 6 18.0001 4.88071 18.0001 3.5V2.5C18.0001 1.11929 16.8808 0 15.5001 0H14.5001ZM12.0001 14.5C12.0001 13.1193 13.1194 12 14.5001 12H15.5001C16.8808 12 18.0001 13.1193 18.0001 14.5V15.5C18.0001 16.8807 16.8808 18 15.5001 18H14.5001C13.1194 18 12.0001 16.8807 12.0001 15.5V14.5ZM26.4999 0C25.1192 0 23.9999 1.11929 23.9999 2.5V3.5C23.9999 4.88071 25.1192 6 26.4999 6H27.4999C28.8806 6 29.9999 4.88071 29.9999 3.5V2.5C29.9999 1.11929 28.8806 0 27.4999 0H26.4999ZM23.9999 14.5C23.9999 13.1193 25.1192 12 26.4999 12H27.4999C28.8806 12 29.9999 13.1193 29.9999 14.5V15.5C29.9999 16.8807 28.8806 18 27.4999 18H26.4999C25.1192 18 23.9999 16.8807 23.9999 15.5V14.5ZM2.5 24C1.11929 24 0 25.1193 0 26.5V27.5C0 28.8807 1.11929 30 2.5 30H3.5C4.88071 30 6 28.8807 6 27.5V26.5C6 25.1193 4.88071 24 3.5 24H2.5ZM12.0001 26.5C12.0001 25.1193 13.1194 24 14.5001 24H15.5001C16.8808 24 18.0001 25.1193 18.0001 26.5V27.5C18.0001 28.8807 16.8808 30 15.5001 30H14.5001C13.1194 30 12.0001 28.8807 12.0001 27.5V26.5ZM26.4999 24C25.1192 24 23.9999 25.1193 23.9999 26.5V27.5C23.9999 28.8807 25.1192 30 26.4999 30H27.4999C28.8806 30 29.9999 28.8807 29.9999 27.5V26.5C29.9999 25.1193 28.8806 24 27.4999 24H26.4999Z" fill="black"/>
</svg>
