<svg width="95" height="38" viewBox="0 0 95 38" fill="none" xmlns="http://www.w3.org/2000/svg">
<path d="M0.947773 9.9C1.00777 9.8 1.06777 9.76 1.12777 9.78C1.02777 9.64 1.00777 9.52 1.06777 9.42C1.10777 9.3 1.14777 9.17 1.18777 9.03C1.36777 9.05 1.53777 9.03 1.69777 8.97C1.85777 8.91 1.97777 8.83 2.05777 8.73C2.11777 8.75 2.16777 8.75 2.20777 8.73C2.26777 8.69 2.31777 8.69 2.35777 8.73C2.63777 8.57 2.93777 8.48 3.25777 8.46C3.57777 8.42 3.88777 8.31 4.18777 8.13C4.54777 8.15 4.89777 8.08 5.23777 7.92C5.59777 7.74 5.91777 7.61 6.19777 7.53C6.23777 7.51 6.26777 7.51 6.28777 7.53C6.32777 7.55 6.37777 7.54 6.43777 7.5C6.47777 7.46 6.50777 7.42 6.52777 7.38C6.54777 7.32 6.57777 7.26 6.61777 7.2C6.65777 7.16 6.68777 7.14 6.70777 7.14C6.74777 7.14 6.77777 7.12 6.79777 7.08C6.81777 7.08 6.81777 7.06 6.79777 7.02C6.79777 6.98 6.80777 6.96 6.82777 6.96C6.84777 6.94 6.87777 6.92 6.91777 6.9C6.97777 6.88 7.02777 6.86 7.06777 6.84C7.16777 6.78 7.21777 6.74 7.21777 6.72C7.23777 6.68 7.29777 6.66 7.39777 6.66C7.47777 6.66 7.51777 6.69 7.51777 6.75C7.51777 6.81 7.55777 6.84 7.63777 6.84C7.67777 6.8 7.69777 6.75 7.69777 6.69C7.69777 6.63 7.71777 6.59 7.75777 6.57C7.79777 6.55 7.81777 6.56 7.81777 6.6C7.83777 6.62 7.86777 6.64 7.90777 6.66C7.96777 6.56 8.05777 6.52 8.17777 6.54C8.29777 6.56 8.37777 6.6 8.41777 6.66C8.49777 6.62 8.56777 6.6 8.62777 6.6C8.68777 6.58 8.73777 6.55 8.77777 6.51C8.85777 6.55 8.94777 6.58 9.04777 6.6C9.14777 6.62 9.23777 6.65 9.31777 6.69C9.43777 6.63 9.56777 6.59 9.70777 6.57C9.84777 6.55 9.97777 6.54 10.0978 6.54C10.2378 6.54 10.3678 6.53 10.4878 6.51C10.6078 6.49 10.7178 6.44 10.8178 6.36C10.8978 6.34 10.9478 6.35 10.9678 6.39C10.9878 6.41 11.0378 6.41 11.1178 6.39C11.1578 6.37 11.1778 6.35 11.1778 6.33C11.1778 6.29 11.1978 6.26 11.2378 6.24C11.6978 6.24 12.1378 6.17 12.5578 6.03C12.9778 5.89 13.4478 5.8 13.9678 5.76C14.0078 5.72 14.0278 5.69 14.0278 5.67C14.0478 5.65 14.0778 5.63 14.1178 5.61C14.3778 5.67 14.6178 5.66 14.8378 5.58C15.0778 5.5 15.3478 5.44 15.6478 5.4C15.6878 5.42 15.7178 5.41 15.7378 5.37C15.7578 5.33 15.7878 5.3 15.8278 5.28C15.8478 5.28 15.8578 5.32 15.8578 5.4C16.2178 5.32 16.5578 5.26 16.8778 5.22C17.1978 5.18 17.5078 5.16 17.8078 5.16C17.9678 5.06 18.1478 5.02 18.3478 5.04C18.5478 5.06 18.7278 5.02 18.8878 4.92C19.0878 5 19.3278 4.99 19.6078 4.89C19.9078 4.79 20.1578 4.77 20.3578 4.83C20.4178 4.83 20.4478 4.81 20.4478 4.77C20.4678 4.71 20.5078 4.68 20.5678 4.68C20.5878 4.68 20.5978 4.7 20.5978 4.74C20.5978 4.76 20.6078 4.77 20.6278 4.77C20.7278 4.73 20.8678 4.72 21.0478 4.74C21.2478 4.74 21.4078 4.69 21.5278 4.59C21.7478 4.65 21.9378 4.65 22.0978 4.59C22.2778 4.51 22.4378 4.48 22.5778 4.5C22.7178 4.52 22.8378 4.55 22.9378 4.59C23.0578 4.61 23.1878 4.57 23.3278 4.47C23.6678 4.45 24.0578 4.43 24.4978 4.41C24.9578 4.39 25.3878 4.34 25.7878 4.26C25.9078 4.32 26.1478 4.34 26.5078 4.32C26.8678 4.3 27.2178 4.3 27.5578 4.32C27.7778 4.36 27.9978 4.38 28.2178 4.38C28.4378 4.36 28.6678 4.37 28.9078 4.41C28.9478 4.41 28.9678 4.43 28.9678 4.47C28.9878 4.49 29.0178 4.5 29.0578 4.5C29.1578 4.54 29.2578 4.55 29.3578 4.53C29.4578 4.49 29.5478 4.48 29.6278 4.5C29.8478 4.54 30.0578 4.61 30.2578 4.71C30.4578 4.79 30.6878 4.86 30.9478 4.92C31.1078 4.88 31.2078 4.9 31.2478 4.98C31.3078 5.04 31.3878 5.1 31.4878 5.16C31.6878 5.26 31.8878 5.39 32.0878 5.55C32.3078 5.69 32.4678 5.87 32.5678 6.09C32.6278 6.07 32.6678 6.07 32.6878 6.09C32.7078 6.11 32.7378 6.12 32.7778 6.12C32.8978 6.36 32.9778 6.59 33.0178 6.81C33.0778 7.03 33.1578 7.27 33.2578 7.53C33.2178 7.63 33.1578 7.73 33.0778 7.83C32.9978 7.91 32.9778 8 33.0178 8.1C32.9778 8.14 32.9378 8.21 32.8978 8.31C32.8578 8.39 32.8578 8.46 32.8978 8.52C32.6778 8.94 32.3978 9.35 32.0578 9.75C31.7178 10.15 31.4078 10.55 31.1278 10.95C31.0078 10.95 30.9278 11 30.8878 11.1C30.8478 11.18 30.7778 11.27 30.6778 11.37C30.6378 11.37 30.5978 11.35 30.5578 11.31C30.1978 11.59 29.8278 11.88 29.4478 12.18C29.0878 12.46 28.7078 12.7 28.3078 12.9C28.3078 12.94 28.3078 12.97 28.3078 12.99C28.3278 13.01 28.3178 13.04 28.2778 13.08C28.2178 13.04 28.1578 13.03 28.0978 13.05C28.0578 13.07 27.9978 13.08 27.9178 13.08C27.8978 13.14 27.8978 13.18 27.9178 13.2C27.9578 13.2 27.9578 13.22 27.9178 13.26C27.8778 13.22 27.8378 13.2 27.7978 13.2C27.4778 13.38 27.1578 13.56 26.8378 13.74C26.5178 13.92 26.1878 14.09 25.8478 14.25C25.7278 14.39 25.5678 14.49 25.3678 14.55C25.1878 14.59 25.0378 14.68 24.9178 14.82C24.3978 15.04 23.9178 15.28 23.4778 15.54C23.0578 15.8 22.6178 16.02 22.1578 16.2C21.8978 16.32 21.6578 16.48 21.4378 16.68C21.2178 16.88 20.9878 16.99 20.7478 17.01C20.5278 17.17 20.2978 17.32 20.0578 17.46C19.8378 17.6 19.5978 17.74 19.3378 17.88C18.9578 18.18 18.5578 18.44 18.1378 18.66C17.7178 18.86 17.2878 19.06 16.8478 19.26C16.4278 19.46 15.9978 19.67 15.5578 19.89C15.1378 20.09 14.7278 20.34 14.3278 20.64C14.1878 20.64 14.0778 20.68 13.9978 20.76C13.9378 20.82 13.8678 20.9 13.7878 21C13.6278 20.96 13.4978 21.01 13.3978 21.15C13.2978 21.27 13.1678 21.35 13.0078 21.39C12.9678 21.49 12.9278 21.56 12.8878 21.6C12.6278 21.66 12.3978 21.76 12.1978 21.9C12.0178 22.02 11.8478 22.16 11.6878 22.32C11.6078 22.32 11.5678 22.3 11.5678 22.26C11.3678 22.36 11.1978 22.48 11.0578 22.62C10.9178 22.74 10.7378 22.82 10.5178 22.86C10.4778 22.88 10.4678 22.9 10.4878 22.92C10.5278 22.92 10.5378 22.94 10.5178 22.98C10.2378 23.02 9.99777 23.11 9.79777 23.25C9.59777 23.37 9.38777 23.49 9.16777 23.61C9.12777 23.59 9.07777 23.59 9.01777 23.61C8.95777 23.63 8.92777 23.63 8.92777 23.61C8.70777 23.75 8.49777 23.88 8.29777 24C8.09777 24.12 7.88777 24.26 7.66777 24.42C7.32777 24.64 6.95777 24.82 6.55777 24.96C6.15777 25.12 5.81777 25.34 5.53777 25.62C5.37777 25.6 5.19777 25.65 4.99777 25.77C4.79777 25.89 4.63777 25.92 4.51777 25.86C4.47777 25.78 4.47777 25.73 4.51777 25.71C4.57777 25.71 4.60777 25.68 4.60777 25.62C4.52777 25.52 4.44777 25.51 4.36777 25.59C4.30777 25.67 4.22777 25.69 4.12777 25.65C3.94777 25.99 3.70777 26.24 3.40777 26.4C3.44777 26.36 3.46777 26.29 3.46777 26.19C3.46777 26.09 3.49777 26.02 3.55777 25.98C3.39777 25.94 3.21777 25.99 3.01777 26.13C2.81777 26.29 2.61777 26.4 2.41777 26.46C2.39777 26.56 2.35777 26.64 2.29777 26.7C2.23777 26.76 2.18777 26.82 2.14777 26.88C2.10777 26.9 2.08777 26.87 2.08777 26.79C1.98777 26.83 1.89777 26.91 1.81777 27.03C1.73777 27.15 1.63777 27.15 1.51777 27.03C1.45777 27.07 1.38777 27.13 1.30777 27.21C1.22777 27.29 1.14777 27.29 1.06777 27.21C1.02777 27.35 0.957773 27.47 0.857773 27.57C0.737773 27.67 0.637773 27.74 0.557773 27.78C0.517773 27.74 0.507773 27.7 0.527773 27.66C0.547773 27.64 0.547773 27.61 0.527773 27.57H0.617773C0.637773 27.23 0.707773 26.96 0.827773 26.76C0.927773 26.56 1.06777 26.37 1.24777 26.19C1.28777 26.01 1.35777 25.85 1.45777 25.71C1.57777 25.57 1.70777 25.43 1.84777 25.29C1.98777 25.17 2.11777 25.04 2.23777 24.9C2.35777 24.78 2.45777 24.64 2.53777 24.48C3.21777 24.02 3.78777 23.5 4.24777 22.92C4.46777 22.74 4.70777 22.52 4.96777 22.26C5.22777 21.98 5.47777 21.72 5.71777 21.48C5.81777 21.48 5.89777 21.44 5.95777 21.36C6.03777 21.26 6.11777 21.17 6.19777 21.09C6.39777 20.93 6.61777 20.78 6.85777 20.64C7.11777 20.5 7.32777 20.34 7.48777 20.16C7.60777 20.18 7.69777 20.16 7.75777 20.1C7.83777 20.04 7.89777 19.98 7.93777 19.92C8.15777 19.84 8.34777 19.74 8.50777 19.62C8.66777 19.48 8.81777 19.33 8.95777 19.17C9.23777 19.09 9.46777 18.97 9.64777 18.81C9.84777 18.65 10.0678 18.51 10.3078 18.39C10.3678 18.29 10.4278 18.22 10.4878 18.18C10.5678 18.14 10.6378 18.1 10.6978 18.06C10.7778 18.02 10.8478 17.98 10.9078 17.94C10.9678 17.88 11.0178 17.79 11.0578 17.67C11.3378 17.57 11.5778 17.43 11.7778 17.25C11.9778 17.07 12.1978 16.91 12.4378 16.77C12.5578 16.79 12.6478 16.76 12.7078 16.68C12.7878 16.58 12.8578 16.54 12.9178 16.56C13.1178 16.34 13.3478 16.17 13.6078 16.05C13.8878 15.93 14.1278 15.76 14.3278 15.54H14.4778C14.6378 15.38 14.8278 15.24 15.0478 15.12C15.2678 15 15.4878 14.86 15.7078 14.7C15.7078 14.62 15.6878 14.58 15.6478 14.58C15.9278 14.42 16.1978 14.25 16.4578 14.07C16.7178 13.89 17.0078 13.73 17.3278 13.59V13.68C17.4678 13.62 17.5778 13.55 17.6578 13.47C17.7578 13.37 17.8978 13.3 18.0778 13.26C18.1778 13.16 18.2978 13.08 18.4378 13.02C18.5978 12.96 18.7278 12.86 18.8278 12.72C18.8478 12.72 18.8578 12.73 18.8578 12.75C19.4178 12.35 19.9978 11.99 20.5978 11.67C21.2178 11.33 21.7578 10.93 22.2178 10.47C22.6178 10.25 23.0078 10.02 23.3878 9.78C23.7878 9.52 24.1678 9.24 24.5278 8.94C24.6878 8.88 24.8178 8.79 24.9178 8.67C25.0378 8.53 25.1978 8.44 25.3978 8.4C25.5778 8.18 25.8078 7.99 26.0878 7.83C25.9278 7.79 25.7778 7.78 25.6378 7.8C25.5178 7.82 25.3978 7.84 25.2778 7.86C25.1578 7.88 25.0378 7.9 24.9178 7.92C24.7978 7.92 24.6678 7.89 24.5278 7.83C24.5078 7.87 24.4778 7.9 24.4378 7.92C24.3978 7.94 24.3578 7.97 24.3178 8.01C24.2178 7.97 24.0678 7.96 23.8678 7.98C23.6878 7.98 23.4878 7.99 23.2678 8.01C23.0478 8.03 22.8378 8.06 22.6378 8.1C22.4378 8.12 22.2778 8.12 22.1578 8.1C22.0578 8.18 21.9378 8.22 21.7978 8.22C21.6778 8.2 21.5378 8.2 21.3778 8.22C21.0978 8.26 20.8078 8.29 20.5078 8.31C20.2078 8.33 19.9178 8.32 19.6378 8.28C19.5978 8.28 19.5578 8.3 19.5178 8.34C19.4978 8.36 19.4678 8.38 19.4278 8.4C19.0278 8.42 18.6978 8.45 18.4378 8.49C18.1978 8.51 17.8878 8.57 17.5078 8.67C17.4278 8.63 17.3378 8.62 17.2378 8.64C17.1578 8.66 17.0778 8.69 16.9978 8.73C15.9778 8.87 14.8778 9.07 13.6978 9.33C12.5178 9.57 11.4178 9.83 10.3978 10.11C10.3378 10.29 10.2378 10.49 10.0978 10.71C9.95777 10.91 9.85777 11.14 9.79777 11.4C9.69777 11.46 9.62777 11.57 9.58777 11.73C9.56777 11.89 9.55777 12.02 9.55777 12.12C9.51777 12.16 9.47777 12.21 9.43777 12.27C9.41777 12.33 9.38777 12.37 9.34777 12.39C9.18777 12.73 9.04777 13.09 8.92777 13.47C8.80777 13.83 8.66777 14.18 8.50777 14.52C8.48777 14.58 8.45777 14.63 8.41777 14.67C8.39777 14.71 8.37777 14.76 8.35777 14.82C8.31777 14.86 8.29777 14.91 8.29777 14.97C8.31777 15.01 8.32777 15.05 8.32777 15.09C8.26777 15.27 8.18777 15.44 8.08777 15.6C8.00777 15.76 7.93777 15.92 7.87777 16.08C7.75777 16.38 7.65777 16.68 7.57777 16.98C7.49777 17.28 7.37777 17.57 7.21777 17.85C7.11777 18.05 7.01777 18.23 6.91777 18.39C6.81777 18.55 6.74777 18.74 6.70777 18.96C6.70777 19.02 6.67777 19.08 6.61777 19.14C6.57777 19.2 6.53777 19.26 6.49777 19.32C6.45777 19.46 6.38777 19.63 6.28777 19.83C6.20777 20.01 6.11777 20.15 6.01777 20.25C6.01777 20.47 5.91777 20.69 5.71777 20.91C5.53777 21.11 5.42777 21.3 5.38777 21.48C5.28777 21.52 5.19777 21.59 5.11777 21.69C5.05777 21.77 4.98777 21.86 4.90777 21.96C4.82777 22.04 4.73777 22.11 4.63777 22.17C4.53777 22.23 4.42777 22.25 4.30777 22.23C4.26777 22.21 4.23777 22.19 4.21777 22.17C4.21777 22.15 4.19777 22.12 4.15777 22.08C4.13777 22.16 4.08777 22.21 4.00777 22.23C3.92777 22.23 3.87777 22.27 3.85777 22.35C3.81777 22.31 3.73777 22.31 3.61777 22.35C3.51777 22.37 3.43777 22.4 3.37777 22.44C3.27777 22.32 3.16777 22.24 3.04777 22.2C2.94777 22.16 2.81777 22.12 2.65777 22.08C2.71777 21.98 2.72777 21.89 2.68777 21.81C2.64777 21.73 2.59777 21.67 2.53777 21.63C2.49777 21.67 2.47777 21.71 2.47777 21.75C2.49777 21.77 2.48777 21.8 2.44777 21.84C2.30777 21.78 2.18777 21.67 2.08777 21.51C2.04777 21.05 2.04777 20.59 2.08777 20.13C2.14777 19.67 2.22777 19.22 2.32777 18.78C2.42777 18.32 2.53777 17.87 2.65777 17.43C2.77777 16.97 2.89777 16.52 3.01777 16.08C3.05777 15.86 3.10777 15.65 3.16777 15.45C3.24777 15.25 3.33777 15.07 3.43777 14.91C3.43777 14.85 3.43777 14.81 3.43777 14.79C3.45777 14.77 3.45777 14.72 3.43777 14.64C3.47777 14.64 3.48777 14.62 3.46777 14.58C3.46777 14.52 3.49777 14.5 3.55777 14.52C3.67777 13.88 3.84777 13.31 4.06777 12.81C4.28777 12.31 4.51777 11.76 4.75777 11.16C4.63777 11.1 4.52777 11.11 4.42777 11.19C4.34777 11.27 4.24777 11.3 4.12777 11.28C4.10777 11.24 4.09777 11.13 4.09777 10.95C3.81777 10.99 3.52777 11.05 3.22777 11.13C2.94777 11.21 2.67777 11.3 2.41777 11.4C2.43777 11.34 2.43777 11.28 2.41777 11.22C2.31777 11.32 2.22777 11.34 2.14777 11.28C2.06777 11.2 1.96777 11.16 1.84777 11.16V10.95C1.78777 10.93 1.73777 10.95 1.69777 11.01C1.67777 11.07 1.65777 11.08 1.63777 11.04C1.57777 10.98 1.54777 10.92 1.54777 10.86C1.56777 10.78 1.50777 10.73 1.36777 10.71C1.40777 10.55 1.45777 10.45 1.51777 10.41C1.43777 10.41 1.37777 10.4 1.33777 10.38C1.31777 10.36 1.28777 10.35 1.24777 10.35C1.26777 10.23 1.23777 10.15 1.15777 10.11C1.07777 10.05 1.00777 9.98 0.947773 9.9ZM25.1904 27.15C25.0704 27.19 24.9504 27.16 24.8304 27.06C24.6904 26.96 24.5304 26.89 24.3504 26.85C24.3104 26.85 24.2804 26.88 24.2604 26.94C24.2404 27 24.2104 27 24.1704 26.94C24.2104 26.84 24.2004 26.72 24.1404 26.58C24.1004 26.66 24.0804 26.75 24.0804 26.85C23.9804 26.85 23.8904 26.79 23.8104 26.67C23.8104 26.63 23.8204 26.59 23.8404 26.55C23.8404 26.53 23.8904 26.53 23.9904 26.55V26.31C24.0104 26.33 24.0204 26.32 24.0204 26.28C24.0204 26.24 24.0404 26.23 24.0804 26.25C24.0604 26.23 24.0604 26.2 24.0804 26.16C24.0804 26.12 24.0604 26.09 24.0204 26.07C24.0004 26.09 24.0004 26.11 24.0204 26.13C24.0404 26.17 24.0404 26.21 24.0204 26.25C24.0004 26.21 23.9604 26.16 23.9004 26.1C23.8404 26.06 23.7904 26.05 23.7504 26.07V25.62C23.6704 25.52 23.5704 25.43 23.4504 25.35C23.3304 25.29 23.3204 25.15 23.4204 24.93C23.5004 24.91 23.5804 24.86 23.6604 24.78C23.7404 24.7 23.7704 24.6 23.7504 24.48H23.9904C24.2104 24.2 24.4304 23.93 24.6504 23.67C24.8504 23.41 25.0704 23.14 25.3104 22.86C24.9104 22.86 24.5004 22.89 24.0804 22.95C23.6404 23.01 23.2804 22.98 23.0004 22.86C22.9404 22.92 22.8604 22.95 22.7604 22.95C22.6404 22.95 22.5404 23 22.4604 23.1C22.4204 23.04 22.3804 23.02 22.3404 23.04C22.3004 23.06 22.2604 23.04 22.2204 22.98C22.2604 22.82 22.3404 22.74 22.4604 22.74C22.5604 22.72 22.6504 22.68 22.7304 22.62C22.6904 22.62 22.6604 22.62 22.6404 22.62C22.6004 22.6 22.5404 22.57 22.4604 22.53C22.4004 22.61 22.3304 22.67 22.2504 22.71C22.1504 22.73 22.0804 22.78 22.0404 22.86C21.9404 22.76 21.8404 22.74 21.7404 22.8C21.6204 22.84 21.5404 22.89 21.5004 22.95C21.5004 22.91 21.4904 22.89 21.4704 22.89C21.4304 22.89 21.4104 22.87 21.4104 22.83C21.4104 22.77 21.4404 22.73 21.5004 22.71C21.5404 22.69 21.5404 22.66 21.5004 22.62C21.5004 22.52 21.5204 22.5 21.5604 22.56C21.6004 22.62 21.6504 22.64 21.7104 22.62C21.7104 22.58 21.7004 22.54 21.6804 22.5L21.5904 22.32C21.4304 22.36 21.3004 22.37 21.2004 22.35C21.1004 22.33 20.9804 22.36 20.8404 22.44C20.8204 22.36 20.8104 22.32 20.8104 22.32C20.8104 22.3 20.8104 22.24 20.8104 22.14C20.9104 22.16 20.9904 22.09 21.0504 21.93L21.0804 21.96C21.0804 21.98 21.0904 22 21.1104 22.02C21.1104 22.02 21.1104 22.03 21.1104 22.05C21.3504 21.87 21.5904 21.74 21.8304 21.66C22.0704 21.58 22.3104 21.49 22.5504 21.39C22.6504 21.33 22.7804 21.3 22.9404 21.3C23.0804 21.28 23.1704 21.22 23.2104 21.12C23.2504 21.16 23.3104 21.16 23.3904 21.12C23.4504 21.08 23.5004 21.09 23.5404 21.15C23.5604 21.11 23.5804 21.08 23.6004 21.06C23.6204 21.04 23.6504 21 23.6904 20.94C23.8504 21 24.0004 20.98 24.1404 20.88C24.2804 20.76 24.4404 20.71 24.6204 20.73C24.6804 20.73 24.7104 20.69 24.7104 20.61C24.8104 20.59 24.9204 20.59 25.0404 20.61C25.1604 20.61 25.2504 20.53 25.3104 20.37C25.1904 20.29 25.1004 20.29 25.0404 20.37C24.9604 20.43 24.8804 20.46 24.8004 20.46C24.8204 20.38 24.8804 20.31 24.9804 20.25C25.0804 20.17 25.1904 20.11 25.3104 20.07C25.4504 19.97 25.6104 19.91 25.7904 19.89C25.9704 19.85 26.1704 19.83 26.3904 19.83C26.4304 19.83 26.4604 19.82 26.4804 19.8C26.4804 19.76 26.4904 19.72 26.5104 19.68C26.8104 19.6 27.0704 19.52 27.2904 19.44C27.5104 19.34 27.8204 19.24 28.2204 19.14C28.2404 19.14 28.2504 19.12 28.2504 19.08C28.2504 19.04 28.2704 19.01 28.3104 18.99C28.3704 19.01 28.4104 19.03 28.4304 19.05C28.4504 19.05 28.4804 19.04 28.5204 19.02C28.5604 18.88 28.6504 18.79 28.7904 18.75C28.9304 18.71 29.0104 18.61 29.0304 18.45C29.1504 18.45 29.2304 18.39 29.2704 18.27C29.3104 18.15 29.3804 18.1 29.4804 18.12C29.7604 17.6 30.0804 17.15 30.4404 16.77C30.8204 16.37 31.1504 15.94 31.4304 15.48C31.5504 15.4 31.6104 15.3 31.6104 15.18C31.6304 15.18 31.6404 15.19 31.6404 15.21C31.6604 15.21 31.6904 15.21 31.7304 15.21C31.7704 14.99 31.8704 14.83 32.0304 14.73C32.2104 14.61 32.3204 14.41 32.3604 14.13C32.6404 13.89 32.8804 13.6 33.0804 13.26C33.3004 12.92 33.5604 12.63 33.8604 12.39C33.9204 12.19 33.9904 12.02 34.0704 11.88C34.1704 11.74 34.2704 11.61 34.3704 11.49C34.4904 11.35 34.6004 11.21 34.7004 11.07C34.8004 10.93 34.8804 10.77 34.9404 10.59C35.1804 10.37 35.3704 10.11 35.5104 9.81C35.6704 9.51 35.8704 9.25 36.1104 9.03C36.1704 8.85 36.2504 8.7 36.3504 8.58C36.4704 8.44 36.5704 8.28 36.6504 8.1C36.9304 7.82 37.1704 7.52 37.3704 7.2C37.5704 6.88 37.8104 6.61 38.0904 6.39C38.1104 6.35 38.1304 6.32 38.1504 6.3C38.1904 6.28 38.2004 6.24 38.1804 6.18C38.5404 5.84 38.8304 5.46 39.0504 5.04C39.4304 4.6 39.7904 4.19 40.1304 3.81C40.4904 3.43 40.8104 3.02 41.0904 2.58C41.1904 2.58 41.2604 2.54 41.3004 2.46C41.3604 2.36 41.4104 2.28 41.4504 2.22C41.6104 2.16 41.7304 2.07 41.8104 1.95C41.8904 1.83 41.9904 1.72 42.1104 1.62C42.1704 1.68 42.2204 1.68 42.2604 1.62C42.3204 1.56 42.3904 1.52 42.4704 1.5C42.4904 1.56 42.4704 1.63 42.4104 1.71C42.3504 1.77 42.2904 1.82 42.2304 1.86C42.3704 1.9 42.5404 1.93 42.7404 1.95C42.9404 1.95 43.1304 1.97 43.3104 2.01C43.5104 2.03 43.6904 2.08 43.8504 2.16C44.0304 2.22 44.1704 2.32 44.2704 2.46C44.2504 2.52 44.2404 2.58 44.2404 2.64C44.2404 2.68 44.2104 2.69 44.1504 2.67C44.2104 2.71 44.2704 2.79 44.3304 2.91C44.3904 3.01 44.4504 3.04 44.5104 3C44.5904 3.06 44.6404 3.13 44.6604 3.21C44.7004 3.29 44.7704 3.36 44.8704 3.42C44.8304 3.5 44.8304 3.59 44.8704 3.69C44.9304 3.77 45.0004 3.83 45.0804 3.87C45.0604 4.13 45.0604 4.38 45.0804 4.62C45.1004 4.84 45.1104 5.07 45.1104 5.31C45.1304 5.53 45.1204 5.75 45.0804 5.97C45.0604 6.19 45.0004 6.42 44.9004 6.66C44.9004 6.82 44.8904 6.95 44.8704 7.05C44.8504 7.13 44.8204 7.22 44.7804 7.32C44.7604 7.4 44.7304 7.49 44.6904 7.59C44.6704 7.69 44.6604 7.83 44.6604 8.01C44.5204 8.41 44.4004 8.85 44.3004 9.33C44.2204 9.81 44.1004 10.24 43.9404 10.62C43.9804 10.8 43.9704 11 43.9104 11.22C43.8504 11.42 43.7704 11.6 43.6704 11.76C43.6704 12.1 43.6204 12.42 43.5204 12.72C43.4404 13.02 43.3804 13.33 43.3404 13.65C43.3204 13.65 43.3004 13.68 43.2804 13.74C43.2804 13.78 43.2604 13.79 43.2204 13.77C43.2204 13.81 43.2304 13.83 43.2504 13.83C43.2904 13.83 43.3104 13.85 43.3104 13.89C43.1704 14.29 43.0704 14.66 43.0104 15C42.9504 15.32 42.9004 15.68 42.8604 16.08C42.9204 16.18 42.9904 16.22 43.0704 16.2C43.1504 16.16 43.2304 16.14 43.3104 16.14C43.4304 16.18 43.5404 16.23 43.6404 16.29C43.7404 16.35 43.8604 16.38 44.0004 16.38C44.0804 16.38 44.1504 16.37 44.2104 16.35C44.2704 16.31 44.3304 16.32 44.3904 16.38C44.4304 16.42 44.4504 16.43 44.4504 16.41C44.4504 16.39 44.4704 16.38 44.5104 16.38C44.6904 16.54 44.9104 16.69 45.1704 16.83C45.4304 16.97 45.6404 17.16 45.8004 17.4C45.7604 17.44 45.7504 17.5 45.7704 17.58C45.7904 17.64 45.8104 17.69 45.8304 17.73C45.8304 17.77 45.8304 17.81 45.8304 17.85C45.8304 17.89 45.8204 17.91 45.8004 17.91C45.8204 17.95 45.8404 18 45.8604 18.06C45.8804 18.12 45.9404 18.17 46.0404 18.21C46.0404 18.25 46.0204 18.29 45.9804 18.33C45.9404 18.35 45.9004 18.38 45.8604 18.42C45.9004 18.54 45.9204 18.62 45.9204 18.66C45.9404 18.68 45.9604 18.73 45.9804 18.81C45.9004 18.81 45.8704 18.86 45.8904 18.96C45.9304 19.04 45.9104 19.09 45.8304 19.11V19.38C45.8104 19.42 45.8004 19.46 45.8004 19.5C45.8004 19.52 45.7804 19.56 45.7404 19.62C45.4604 19.74 45.1704 19.83 44.8704 19.89C44.5704 19.93 44.2604 19.98 43.9404 20.04C43.6204 20.08 43.2904 20.13 42.9504 20.19C42.6104 20.25 42.2604 20.34 41.9004 20.46C41.8804 20.5 41.8604 20.54 41.8404 20.58C41.8204 20.6 41.8204 20.64 41.8404 20.7C41.7004 20.7 41.6304 20.7 41.6304 20.7C41.5904 20.76 41.5604 20.82 41.5404 20.88C41.5404 20.94 41.5104 21 41.4504 21.06C41.4304 21.44 41.3404 21.85 41.1804 22.29C41.0204 22.73 40.8504 23.12 40.6704 23.46C40.5904 23.34 40.5804 23.18 40.6404 22.98C40.7004 22.76 40.6704 22.61 40.5504 22.53C40.4904 22.69 40.4504 22.85 40.4304 23.01C40.4304 23.15 40.4304 23.3 40.4304 23.46C40.3904 23.46 40.3704 23.46 40.3704 23.46C40.3304 23.46 40.3204 23.45 40.3404 23.43C40.3604 23.41 40.3604 23.37 40.3404 23.31C40.2204 23.39 40.1904 23.53 40.2504 23.73C40.1704 23.77 40.1204 23.82 40.1004 23.88C40.0804 23.94 40.0604 24 40.0404 24.06C40.0404 24.14 40.0204 24.21 39.9804 24.27C39.9604 24.35 39.9104 24.4 39.8304 24.42C39.8304 24.36 39.8204 24.29 39.8004 24.21C39.8004 24.15 39.7704 24.12 39.7104 24.12C39.7704 24.04 39.7704 23.97 39.7104 23.91C39.6104 23.95 39.5404 24.01 39.5004 24.09C39.4604 24.19 39.4204 24.29 39.3804 24.39C39.3604 24.51 39.3304 24.61 39.2904 24.69C39.2504 24.79 39.1904 24.87 39.1104 24.93C39.0704 24.85 39.0504 24.74 39.0504 24.6C39.0504 24.46 39.0504 24.34 39.0504 24.24C38.9904 24.28 38.9704 24.36 38.9904 24.48C39.0104 24.6 38.9904 24.67 38.9304 24.69C38.8904 24.71 38.8604 24.7 38.8404 24.66C38.8404 24.62 38.8204 24.6 38.7804 24.6C38.7404 24.64 38.7004 24.68 38.6604 24.72C38.6404 24.78 38.6304 24.85 38.6304 24.93C38.5504 24.97 38.5004 24.97 38.4804 24.93C38.4604 24.91 38.4304 24.9 38.3904 24.9C38.3904 24.8 38.3904 24.71 38.3904 24.63C38.4104 24.57 38.4204 24.5 38.4204 24.42C38.4204 24.4 38.4104 24.39 38.3904 24.39C38.3904 24.41 38.3904 24.41 38.3904 24.39C38.4104 23.81 38.4204 23.28 38.4204 22.8C38.4404 22.3 38.4704 21.8 38.5104 21.3C38.0504 21.32 37.4904 21.35 36.8304 21.39C36.1704 21.43 35.6104 21.49 35.1504 21.57C35.0904 21.59 35.0504 21.62 35.0304 21.66C35.0304 21.7 35.0104 21.74 34.9704 21.78C34.9304 21.76 34.9204 21.73 34.9404 21.69C34.9604 21.65 34.9504 21.63 34.9104 21.63C34.9104 21.67 34.8804 21.67 34.8204 21.63C34.7604 21.57 34.7304 21.59 34.7304 21.69C34.3304 21.67 33.9404 21.71 33.5604 21.81C33.1804 21.89 32.7904 21.95 32.3904 21.99C32.2704 22.03 32.1404 22.05 32.0004 22.05C31.8604 22.03 31.7404 22.08 31.6404 22.2C31.5404 22.18 31.4704 22.17 31.4304 22.17C31.4104 22.15 31.3804 22.14 31.3404 22.14C30.5804 22.94 29.8604 23.75 29.1804 24.57C28.5004 25.39 27.7704 26.15 26.9904 26.85C26.9104 26.83 26.8304 26.84 26.7504 26.88C26.6504 26.94 26.5704 27 26.5104 27.06C26.4104 27.02 26.3004 27.04 26.1804 27.12C26.0604 27.22 25.9204 27.23 25.7604 27.15C25.6404 27.19 25.5704 27.24 25.5504 27.3C25.4504 27.24 25.3504 27.22 25.2504 27.24C25.1304 27.26 25.0504 27.25 25.0104 27.21C25.0504 27.19 25.0804 27.18 25.1004 27.18C25.1204 27.18 25.1504 27.17 25.1904 27.15ZM38.3004 16.71C38.3004 16.61 38.3304 16.56 38.3904 16.56C38.4704 16.54 38.5404 16.48 38.6004 16.38C38.6404 16.46 38.6904 16.48 38.7504 16.44C38.8304 16.4 38.8904 16.38 38.9304 16.38C38.9904 15.36 39.0904 14.41 39.2304 13.53C39.3704 12.65 39.4904 11.75 39.5904 10.83C39.1904 11.33 38.8304 11.87 38.5104 12.45C38.2104 13.01 37.8504 13.52 37.4304 13.98C37.1304 14.6 36.7904 15.17 36.4104 15.69C36.0304 16.21 35.6504 16.73 35.2704 17.25V17.4C35.7904 17.24 36.2904 17.14 36.7704 17.1C37.2504 17.04 37.7604 16.91 38.3004 16.71ZM44.0383 9.66C44.1783 9.68 44.2883 9.66 44.3683 9.6C44.4283 9.54 44.4883 9.47 44.5483 9.39C44.6083 9.29 44.6783 9.2 44.7583 9.12C44.8183 9.02 44.8983 8.95 44.9983 8.91C45.0183 8.89 45.0383 8.89 45.0583 8.91C45.0783 8.93 45.0983 8.92 45.1183 8.88C45.3783 8.72 45.6183 8.53 45.8383 8.31C46.0583 8.07 46.3083 7.85 46.5883 7.65C46.6883 7.51 46.8083 7.4 46.9483 7.32C47.0883 7.24 47.2183 7.15 47.3383 7.05C47.5383 6.89 47.6683 6.79 47.7283 6.75C47.7883 6.71 47.8283 6.69 47.8483 6.69C47.8683 6.67 47.9083 6.64 47.9683 6.6C48.0283 6.56 48.1683 6.47 48.3883 6.33C48.9483 6.11 49.4783 5.87 49.9783 5.61C50.4983 5.33 51.0683 5.07 51.6883 4.83C51.9883 4.73 52.2083 4.66 52.3483 4.62C52.4883 4.58 52.7283 4.51 53.0683 4.41C53.1683 4.37 53.2583 4.33 53.3383 4.29C53.4183 4.25 53.5083 4.21 53.6083 4.17C53.9083 4.07 54.2183 4 54.5383 3.96C54.8783 3.92 55.1983 3.85 55.4983 3.75C55.5983 3.73 55.6883 3.7 55.7683 3.66C55.8683 3.6 55.9683 3.57 56.0683 3.57C56.1683 3.53 56.2683 3.52 56.3683 3.54C56.4683 3.56 56.5383 3.52 56.5783 3.42C56.8983 3.46 57.2183 3.47 57.5383 3.45C57.8583 3.41 58.1683 3.37 58.4683 3.33C58.7883 3.27 59.1083 3.23 59.4283 3.21C59.7483 3.19 60.0783 3.2 60.4183 3.24C60.7583 3.3 61.0983 3.36 61.4383 3.42C61.7983 3.48 62.1783 3.53 62.5783 3.57C63.0383 3.67 63.5483 3.82 64.1083 4.02C64.6883 4.22 65.1683 4.44 65.5483 4.68C65.7083 4.82 65.8383 5.01 65.9383 5.25C66.0383 5.47 66.1983 5.67 66.4183 5.85C66.3983 5.89 66.3983 5.95 66.4183 6.03C66.4383 6.11 66.4583 6.19 66.4783 6.27C66.4983 6.33 66.5083 6.39 66.5083 6.45C66.5083 6.49 66.4783 6.51 66.4183 6.51C66.4183 6.59 66.4283 6.67 66.4483 6.75C66.4883 6.83 66.4983 6.9 66.4783 6.96C66.2983 6.94 66.1983 6.87 66.1783 6.75C66.1783 6.63 66.1583 6.5 66.1183 6.36C66.0783 6.5 66.0683 6.68 66.0883 6.9C66.1283 7.1 66.1483 7.29 66.1483 7.47C66.2083 7.53 66.2283 7.52 66.2083 7.44C66.2083 7.36 66.2383 7.34 66.2983 7.38C66.3783 7.84 66.3183 8.24 66.1183 8.58C65.9383 8.92 65.7883 9.29 65.6683 9.69C65.6483 9.73 65.6183 9.79 65.5783 9.87C65.5383 9.93 65.5083 9.98 65.4883 10.02C65.3283 10.28 65.1883 10.52 65.0683 10.74C64.9683 10.96 64.8383 11.16 64.6783 11.34C64.6583 11.38 64.6383 11.41 64.6183 11.43C64.5983 11.45 64.6083 11.5 64.6483 11.58C64.5883 11.54 64.5383 11.54 64.4983 11.58C64.4583 11.6 64.4183 11.62 64.3783 11.64C64.3383 11.64 64.3283 11.66 64.3483 11.7C64.3683 11.74 64.3683 11.77 64.3483 11.79C64.0883 11.99 63.8283 12.24 63.5683 12.54C63.3283 12.82 63.0683 13.06 62.7883 13.26C62.5483 13.48 62.2883 13.7 62.0083 13.92C61.7283 14.12 61.4083 14.27 61.0483 14.37C60.8883 14.47 60.7283 14.57 60.5683 14.67C60.4283 14.75 60.2983 14.86 60.1783 15C60.1383 15 60.1083 14.99 60.0883 14.97C60.0883 14.93 60.0783 14.91 60.0583 14.91C59.5983 15.15 59.1183 15.36 58.6183 15.54C58.1183 15.7 57.6083 15.85 57.0883 15.99C56.5683 16.11 56.0383 16.24 55.4983 16.38C54.9583 16.5 54.4283 16.64 53.9083 16.8C53.9083 16.9 53.8983 16.97 53.8783 17.01C53.8783 17.05 53.8783 17.11 53.8783 17.19C53.7783 17.29 53.6883 17.39 53.6083 17.49C53.5283 17.57 53.4483 17.68 53.3683 17.82C53.3483 17.86 53.3383 17.91 53.3383 17.97C53.3583 18.01 53.3683 18.05 53.3683 18.09C53.2683 18.27 53.1583 18.45 53.0383 18.63C52.9183 18.81 52.7983 18.99 52.6783 19.17C52.6583 19.21 52.6483 19.26 52.6483 19.32C52.6683 19.38 52.6583 19.43 52.6183 19.47C52.5583 19.57 52.4883 19.66 52.4083 19.74C52.3483 19.8 52.2983 19.88 52.2583 19.98C52.2183 20.02 52.1983 20.07 52.1983 20.13C52.1983 20.19 52.1783 20.25 52.1383 20.31C52.0583 20.43 51.9883 20.58 51.9283 20.76C51.8883 20.94 51.8283 21.13 51.7483 21.33C51.7083 21.53 51.6083 21.7 51.4483 21.84C51.2883 21.98 51.2183 22.17 51.2383 22.41C51.0183 23.01 50.7483 23.56 50.4283 24.06C50.1083 24.58 49.7183 25.04 49.2583 25.44C49.1583 25.38 49.1383 25.33 49.1983 25.29C49.2583 25.25 49.2583 25.2 49.1983 25.14C49.1583 25.24 49.0983 25.31 49.0183 25.35C48.9583 25.41 48.9083 25.49 48.8683 25.59C48.7683 25.63 48.6883 25.69 48.6283 25.77C48.5683 25.85 48.5083 25.93 48.4483 26.01C48.4083 26.09 48.3483 26.15 48.2683 26.19C48.1883 26.23 48.0883 26.22 47.9683 26.16C47.9083 26.18 47.8783 26.23 47.8783 26.31C47.8783 26.39 47.8583 26.46 47.8183 26.52C47.7783 26.52 47.7783 26.51 47.8183 26.49C47.8583 26.49 47.9083 26.47 47.9683 26.43C48.0483 26.41 48.1083 26.39 48.1483 26.37C48.2083 26.35 48.2383 26.33 48.2383 26.31C48.1383 26.41 48.0183 26.45 47.8783 26.43C47.7583 26.43 47.6683 26.48 47.6083 26.58C47.5083 26.48 47.4183 26.46 47.3383 26.52C47.2783 26.58 47.1983 26.63 47.0983 26.67C46.9983 26.57 46.8783 26.51 46.7383 26.49C46.6183 26.49 46.5083 26.5 46.4083 26.52C46.3883 26.46 46.3683 26.41 46.3483 26.37C46.3283 26.33 46.3183 26.28 46.3183 26.22C46.2783 26.2 46.2183 26.19 46.1383 26.19C46.0783 26.21 46.0283 26.2 45.9883 26.16C45.9483 26.2 45.9183 26.24 45.8983 26.28C45.8983 26.34 45.8683 26.39 45.8083 26.43C45.7683 26.41 45.7483 26.37 45.7483 26.31C45.7283 26.25 45.6783 26.23 45.5983 26.25C45.6383 26.15 45.6383 26.03 45.5983 25.89C45.4783 25.79 45.3983 25.67 45.3583 25.53C45.3183 25.41 45.2083 25.35 45.0283 25.35C45.0283 25.25 45.0583 25.17 45.1183 25.11C45.1583 25.07 45.1583 24.99 45.1183 24.87C45.3383 24.65 45.4883 24.39 45.5683 24.09C45.6283 23.79 45.7183 23.47 45.8383 23.13H45.9583C46.0583 22.53 46.2383 22 46.4983 21.54C46.7583 21.06 46.9483 20.51 47.0683 19.89C47.1283 19.87 47.1583 19.84 47.1583 19.8C47.1583 19.76 47.1783 19.73 47.2183 19.71C47.3783 19.13 47.5783 18.58 47.8183 18.06C48.0583 17.52 48.2583 16.93 48.4183 16.29C48.7983 15.69 49.0983 15.05 49.3183 14.37C49.5383 13.69 49.8283 13.05 50.1883 12.45C50.1483 12.35 50.1383 12.3 50.1583 12.3C50.1983 12.28 50.2083 12.23 50.1883 12.15C50.2883 12.11 50.3483 12.04 50.3683 11.94C50.3883 11.82 50.4083 11.71 50.4283 11.61C50.6883 11.21 50.9183 10.81 51.1183 10.41C51.3183 9.99 51.5083 9.56 51.6883 9.12C51.0083 9.26 50.4483 9.38 50.0083 9.48C49.5683 9.58 49.1683 9.69 48.8083 9.81C48.4483 9.91 48.0883 10.05 47.7283 10.23C47.3683 10.39 46.9383 10.61 46.4383 10.89C46.1783 11.17 45.9183 11.43 45.6583 11.67C45.3983 11.89 45.1583 12.16 44.9383 12.48C44.8383 12.46 44.7683 12.5 44.7283 12.6C44.6683 12.7 44.5883 12.77 44.4883 12.81C44.4683 12.89 44.4283 12.89 44.3683 12.81C44.3083 12.73 44.2583 12.69 44.2183 12.69C44.0583 12.65 43.9283 12.58 43.8283 12.48C43.7083 12.38 43.5783 12.3 43.4383 12.24C43.3583 12.08 43.2783 11.95 43.1983 11.85C43.1183 11.73 43.0383 11.61 42.9583 11.49C43.0983 11.17 43.2583 10.87 43.4383 10.59C43.5983 10.31 43.8083 10.07 44.0683 9.87C44.0483 9.81 44.0383 9.74 44.0383 9.66ZM56.3383 11.37C56.6783 11.21 56.9683 11.04 57.2083 10.86C57.4683 10.68 57.7083 10.49 57.9283 10.29C58.1683 10.09 58.4183 9.89 58.6783 9.69C58.9383 9.47 59.2583 9.25 59.6383 9.03C59.5983 8.89 59.6283 8.8 59.7283 8.76C59.8283 8.72 59.8983 8.63 59.9383 8.49C60.0383 8.49 60.1183 8.47 60.1783 8.43C60.2383 8.39 60.3083 8.38 60.3883 8.4C60.3883 8 60.3583 7.57 60.2983 7.11C60.0783 7.21 59.8983 7.23 59.7583 7.17C59.6183 7.11 59.4583 7.06 59.2783 7.02C59.1983 7.18 59.0783 7.28 58.9183 7.32C58.7783 7.34 58.6183 7.34 58.4383 7.32C58.2583 7.3 58.0683 7.28 57.8683 7.26C57.6883 7.24 57.5383 7.25 57.4183 7.29C57.2583 7.53 57.1383 7.73 57.0583 7.89C56.9983 8.03 56.9483 8.17 56.9083 8.31C56.8683 8.45 56.8183 8.6 56.7583 8.76C56.6983 8.92 56.5983 9.13 56.4583 9.39C56.4583 9.47 56.4683 9.52 56.4883 9.54C56.5283 9.56 56.5483 9.6 56.5483 9.66C56.3283 9.94 56.1383 10.26 55.9783 10.62C55.8183 10.96 55.7083 11.3 55.6483 11.64C55.8083 11.74 55.9583 11.75 56.0983 11.67C56.2383 11.59 56.3183 11.49 56.3383 11.37ZM66.0283 6.36C66.0483 6.36 66.0583 6.32 66.0583 6.24C66.0583 6.14 66.0283 6.08 65.9683 6.06C65.9683 6.1 65.9383 6.11 65.8783 6.09C65.8783 6.23 65.9283 6.32 66.0283 6.36ZM67.5077 8.04C67.4877 8 67.4577 7.98 67.4177 7.98C67.3777 7.98 67.3777 7.96 67.4177 7.92C67.4777 7.9 67.5477 7.9 67.6277 7.92C67.7077 7.92 67.7677 7.9 67.8077 7.86C67.9077 7.86 67.9677 7.84 67.9877 7.8C68.0077 7.74 68.0377 7.69 68.0777 7.65C68.1577 7.65 68.2377 7.63 68.3177 7.59C68.3977 7.51 68.5177 7.44 68.6777 7.38C68.8377 7.32 68.9977 7.31 69.1577 7.35C69.3377 7.37 69.5477 7.38 69.7877 7.38C69.8877 7.42 69.9777 7.45 70.0577 7.47C70.1377 7.47 70.2577 7.48 70.4177 7.5C70.4777 7.58 70.5677 7.64 70.6877 7.68C70.8277 7.7 70.9377 7.76 71.0177 7.86H71.0777C71.0777 7.86 71.0977 7.84 71.1377 7.8C71.1377 7.86 71.1477 7.91 71.1677 7.95C71.3477 8.03 71.4777 8.16 71.5577 8.34C71.6577 8.5 71.7877 8.62 71.9477 8.7C71.9677 8.88 71.9877 9.08 72.0077 9.3C72.0477 9.52 71.9077 9.71 71.5877 9.87C71.5277 9.89 71.4877 9.93 71.4677 9.99C71.1877 10.01 70.9977 10.06 70.8977 10.14C70.3977 10.14 70.1977 10.26 70.2977 10.5C70.1977 10.56 70.1177 10.63 70.0577 10.71C70.0177 10.79 69.9777 10.88 69.9377 10.98C69.8377 11 69.7477 11.04 69.6677 11.1C69.5877 11.14 69.4677 11.18 69.3077 11.22C69.2677 11.22 69.2477 11.21 69.2477 11.19C69.2677 11.17 69.2477 11.15 69.1877 11.13C68.6877 11.23 68.1977 11.27 67.7177 11.25C67.2577 11.23 66.8777 11.16 66.5777 11.04C66.5777 11.04 66.5477 11.01 66.4877 10.95C66.4477 10.91 66.4077 10.9 66.3677 10.92C66.3277 10.94 66.2877 10.93 66.2477 10.89C66.2477 10.83 66.2177 10.77 66.1577 10.71C66.1177 10.63 66.1077 10.56 66.1277 10.5C66.1277 10.44 66.1377 10.39 66.1577 10.35C66.1777 10.31 66.1877 10.26 66.1877 10.2C66.1477 10.1 66.1577 9.96 66.2177 9.78C66.2777 9.58 66.3477 9.43 66.4277 9.33C66.4477 9.31 66.4677 9.27 66.4877 9.21C66.5077 9.15 66.5377 9.1 66.5777 9.06C66.6977 8.88 66.8177 8.71 66.9377 8.55C67.0777 8.39 67.2177 8.23 67.3577 8.07C67.3777 8.07 67.3977 8.07 67.4177 8.07C67.4377 8.05 67.4677 8.04 67.5077 8.04ZM64.0277 23.88C64.0077 23.92 64.0177 23.98 64.0577 24.06C63.9377 24.06 63.8677 24.09 63.8477 24.15C63.8277 24.21 63.8077 24.25 63.7877 24.27C63.7677 24.39 63.7277 24.51 63.6677 24.63C63.6077 24.75 63.5477 24.83 63.4877 24.87C63.4477 24.91 63.4177 24.89 63.3977 24.81C63.3777 24.73 63.3977 24.57 63.4577 24.33C63.4177 24.29 63.3877 24.28 63.3677 24.3C63.3477 24.34 63.3377 24.35 63.3377 24.33C63.3977 24.41 63.3677 24.47 63.2477 24.51C63.2677 24.79 63.2477 24.97 63.1877 25.05C63.1477 25.13 63.0977 25.14 63.0377 25.08C62.9977 25.04 62.9677 24.95 62.9477 24.81C62.9277 24.67 62.9577 24.52 63.0377 24.36C62.9977 24.36 62.9777 24.36 62.9777 24.36C62.9977 24.38 62.9977 24.4 62.9777 24.42C62.9577 24.42 62.9377 24.41 62.9177 24.39C62.8977 24.37 62.9077 24.34 62.9477 24.3C62.8877 24.4 62.7777 24.52 62.6177 24.66C62.4577 24.8 62.3977 24.89 62.4377 24.93C62.4377 24.97 62.4177 24.98 62.3777 24.96C62.3177 24.96 62.2777 24.95 62.2577 24.93C62.2577 25.17 62.2477 25.29 62.2277 25.29C62.2077 25.31 62.1877 25.29 62.1677 25.23C62.1277 25.17 62.0877 25.12 62.0477 25.08C62.0077 25.04 61.9777 25.08 61.9577 25.2C61.9177 25.16 61.8977 25.11 61.8977 25.05C61.8777 25.01 61.8277 24.99 61.7477 24.99C61.8477 25.03 61.8377 25.11 61.7177 25.23C61.7577 25.01 61.7577 24.86 61.7177 24.78C61.6577 24.7 61.7177 24.6 61.8977 24.48C61.8577 24.44 61.8477 24.39 61.8677 24.33C61.8677 24.27 61.8777 24.22 61.8977 24.18C61.8977 24.06 61.9177 23.95 61.9577 23.85C61.9977 23.75 62.0277 23.64 62.0477 23.52C62.0477 23.32 62.1077 23.1 62.2277 22.86C62.2477 22.66 62.2877 22.47 62.3477 22.29C62.3877 22.09 62.4477 21.91 62.5277 21.75C62.4277 21.69 62.4577 21.64 62.6177 21.6C62.5577 21.56 62.5477 21.53 62.5877 21.51C62.6077 21.47 62.5877 21.45 62.5277 21.45C62.6477 21.37 62.6977 21.28 62.6777 21.18C62.7177 21.18 62.7377 21.16 62.7377 21.12C62.7377 21.08 62.7177 21.04 62.6777 21C62.8577 20.94 62.8777 20.84 62.7377 20.7C62.8577 20.66 62.9077 20.6 62.8877 20.52C62.8877 20.44 62.9077 20.38 62.9477 20.34C62.9877 20.22 63.0377 20.07 63.0977 19.89C63.1777 19.71 63.2177 19.54 63.2177 19.38C63.2577 19.34 63.2677 19.31 63.2477 19.29C63.2477 19.25 63.2677 19.2 63.3077 19.14C63.2677 19 63.3077 18.86 63.4277 18.72C63.5477 18.56 63.5677 18.43 63.4877 18.33C63.5477 18.27 63.6077 18.23 63.6677 18.21C63.5477 18.17 63.5177 18.13 63.5777 18.09C63.6577 18.05 63.6977 18 63.6977 17.94C63.6977 17.9 63.6877 17.86 63.6677 17.82C63.6677 17.78 63.6777 17.74 63.6977 17.7C63.7377 17.66 63.7777 17.62 63.8177 17.58C63.8577 17.52 63.8677 17.47 63.8477 17.43C63.8877 17.41 63.9077 17.39 63.9077 17.37C63.9277 17.35 63.9477 17.34 63.9677 17.34C63.9277 17.24 63.9377 17.15 63.9977 17.07C64.0777 16.99 64.0977 16.92 64.0577 16.86C64.0777 16.8 64.1077 16.75 64.1477 16.71C64.1877 16.67 64.1977 16.63 64.1777 16.59L64.0877 16.53C64.0877 16.51 64.1077 16.5 64.1477 16.5C64.1877 16.48 64.2277 16.46 64.2677 16.44C64.2877 16.4 64.2877 16.36 64.2677 16.32C64.2477 16.26 64.2477 16.19 64.2677 16.11C64.3077 15.97 64.3577 15.88 64.4177 15.84C64.4177 15.8 64.3977 15.78 64.3577 15.78C64.4577 15.66 64.5177 15.51 64.5377 15.33C64.5777 15.13 64.6477 14.95 64.7477 14.79C64.6677 14.71 64.6677 14.63 64.7477 14.55C64.8477 14.47 64.8977 14.38 64.8977 14.28C64.9377 14.24 64.9577 14.21 64.9577 14.19C64.9777 14.15 64.9977 14.12 65.0177 14.1C65.0777 13.98 65.1277 13.87 65.1677 13.77C65.2277 13.65 65.2777 13.54 65.3177 13.44C65.3577 13.4 65.3577 13.39 65.3177 13.41C65.2777 13.43 65.2577 13.42 65.2577 13.38C65.4177 13.3 65.5177 13.22 65.5577 13.14C65.5977 13.04 65.6577 12.97 65.7377 12.93C65.8577 12.91 65.9377 12.88 65.9777 12.84C66.0377 12.78 66.1077 12.73 66.1877 12.69C66.4077 12.63 66.6177 12.6 66.8177 12.6C67.0377 12.58 67.2177 12.52 67.3577 12.42C67.7977 12.38 68.1477 12.34 68.4077 12.3C68.6877 12.26 69.0377 12.24 69.4577 12.24C69.5177 12.24 69.5577 12.26 69.5777 12.3C69.6577 12.28 69.7377 12.27 69.8177 12.27C69.8977 12.29 69.9577 12.33 69.9977 12.39C70.0577 12.43 70.1177 12.44 70.1777 12.42C70.2977 12.56 70.3477 12.7 70.3277 12.84C70.3077 12.96 70.2677 13.09 70.2077 13.23C70.1277 13.45 70.0377 13.68 69.9377 13.92C69.8577 14.14 69.7277 14.36 69.5477 14.58C69.5077 14.7 69.4677 14.82 69.4277 14.94C69.4077 15.06 69.3177 15.18 69.1577 15.3C69.1977 15.32 69.2077 15.33 69.1877 15.33C69.1877 15.33 69.2177 15.35 69.2777 15.39C69.1177 15.61 68.9977 15.86 68.9177 16.14C68.8377 16.4 68.6977 16.64 68.4977 16.86V16.95C68.3777 17.15 68.2677 17.4 68.1677 17.7C68.0677 17.98 67.9577 18.27 67.8377 18.57C67.7377 18.87 67.6277 19.16 67.5077 19.44C67.4077 19.72 67.2877 19.96 67.1477 20.16C67.1677 20.2 67.1577 20.23 67.1177 20.25C67.0977 20.27 67.1077 20.31 67.1477 20.37C66.8677 20.81 66.5877 21.24 66.3077 21.66C66.0477 22.08 65.8777 22.52 65.7977 22.98C65.6977 23.02 65.6277 23.07 65.5877 23.13C65.5677 23.19 65.4877 23.24 65.3477 23.28C65.3277 23.24 65.2977 23.2 65.2577 23.16C64.9977 23.2 64.8677 23.3 64.8677 23.46C64.8677 23.6 64.8477 23.73 64.8077 23.85C64.7477 23.85 64.7277 23.87 64.7477 23.91C64.7677 23.95 64.7477 23.95 64.6877 23.91C64.7677 23.97 64.7977 24.02 64.7777 24.06C64.7577 24.12 64.7177 24.16 64.6577 24.18C64.6177 24.22 64.5777 24.25 64.5377 24.27C64.4977 24.29 64.4977 24.32 64.5377 24.36C64.4777 24.4 64.4377 24.38 64.4177 24.3C64.3977 24.22 64.3577 24.19 64.2977 24.21C64.3177 24.19 64.3177 24.16 64.2977 24.12C64.2977 24.1 64.3177 24.09 64.3577 24.09C64.2977 24.07 64.2477 24.03 64.2077 23.97C64.1877 23.91 64.1277 23.88 64.0277 23.88ZM64.2677 23.82C64.2477 23.82 64.2377 23.81 64.2377 23.79C64.2377 23.77 64.2277 23.76 64.2077 23.76L64.0877 23.88C64.2077 23.84 64.2677 23.82 64.2677 23.82ZM63.5477 24.09C63.5077 24.09 63.4677 24.11 63.4277 24.15C63.3877 24.19 63.4177 24.21 63.5177 24.21C63.5377 24.19 63.5477 24.15 63.5477 24.09ZM64.0577 23.73C64.0177 23.73 64.0077 23.74 64.0277 23.76C64.0477 23.78 64.0477 23.8 64.0277 23.82C64.1277 23.82 64.1377 23.79 64.0577 23.73ZM65.0484 33C65.0884 32.9 65.1184 32.81 65.1384 32.73C65.1584 32.67 65.1984 32.57 65.2584 32.43H65.3184C65.3384 32.29 65.3784 32.17 65.4384 32.07C65.4784 31.97 65.5284 31.87 65.5884 31.77C65.5684 31.63 65.5784 31.52 65.6184 31.44C65.6384 31.38 65.6684 31.3 65.7084 31.2C65.7884 31 65.8284 30.82 65.8284 30.66C65.9284 30.54 66.0084 30.41 66.0684 30.27C66.1284 30.13 66.1784 30 66.2184 29.88C66.2584 29.76 66.2984 29.64 66.3384 29.52C66.3784 29.4 66.4284 29.27 66.4884 29.13C66.5684 29.07 66.6084 29.06 66.6084 29.1C66.6284 29.06 66.6484 29 66.6684 28.92C66.6684 28.86 66.6784 28.83 66.6984 28.83C66.6784 28.67 66.7284 28.47 66.8484 28.23H66.8184L66.9384 27.96C66.9784 27.92 67.0084 27.9 67.0284 27.9C67.0284 27.9 67.0384 27.88 67.0584 27.84C67.0584 27.76 67.0584 27.72 67.0584 27.72C67.0184 27.7 66.9884 27.67 66.9684 27.63C66.9284 27.61 66.8884 27.58 66.8484 27.54C67.1084 27.46 67.2384 27.38 67.2384 27.3L67.2684 27.21C67.3684 27.03 67.4384 26.87 67.4784 26.73C67.4984 26.59 67.5584 26.4 67.6584 26.16C67.7784 25.82 67.9084 25.47 68.0484 25.11C68.1884 24.77 68.3084 24.55 68.4084 24.45C68.4084 24.31 68.4384 24.18 68.4984 24.06H68.4684L68.6184 23.67V23.7C68.6584 23.6 68.6984 23.49 68.7384 23.37C68.7784 23.25 68.8184 23.14 68.8584 23.04L69.6084 21.51C69.6084 21.49 69.6084 21.48 69.6084 21.48C69.5884 21.46 69.5784 21.44 69.5784 21.42C69.6184 21.36 69.6584 21.29 69.6984 21.21C69.7384 21.11 69.7784 21 69.8184 20.88L69.8484 20.76L70.0284 20.37H69.9984C70.0384 20.29 70.0784 20.2 70.1184 20.1C70.1584 20 70.1784 19.93 70.1784 19.89L70.3284 19.65C70.4084 19.53 70.4384 19.41 70.4184 19.29C70.3784 19.29 70.3384 19.31 70.2984 19.35C70.1984 19.43 70.1084 19.49 70.0284 19.53C69.9284 19.55 69.8084 19.49 69.6684 19.35V19.29C69.5684 19.31 69.4884 19.32 69.4284 19.32C69.3484 19.3 69.2784 19.29 69.2184 19.29C69.0984 19.29 68.9984 19.3 68.9184 19.32C68.8184 19.32 68.7584 19.31 68.7384 19.29C68.7184 19.31 68.6984 19.31 68.6784 19.29C68.5984 19.29 68.5284 19.28 68.4684 19.26C68.4084 19.24 68.3384 19.23 68.2584 19.23C67.9984 19.19 67.7584 19.15 67.5384 19.11C67.3184 19.07 67.1684 19 67.0884 18.9C66.9284 18.7 66.8384 18.55 66.8184 18.45C66.7784 18.33 66.7384 18.21 66.6984 18.09C66.6784 17.99 66.6884 17.88 66.7284 17.76C66.7684 17.62 66.8484 17.55 66.9684 17.55L67.0284 17.52H66.9684C66.9884 17.5 67.0084 17.5 67.0284 17.52C67.0284 17.52 67.0284 17.47 67.0284 17.37C67.2084 17.35 67.3684 17.32 67.5084 17.28C67.6284 17.22 67.7684 17.16 67.9284 17.1L68.4684 16.95C68.5884 16.91 68.6684 16.89 68.7084 16.89C68.7684 16.89 68.8484 16.84 68.9484 16.74L68.7984 16.59C69.0784 16.43 69.3384 16.31 69.5784 16.23C69.7984 16.15 70.0284 16.06 70.2684 15.96C70.3884 15.92 70.5484 15.86 70.7484 15.78C70.9684 15.7 71.0684 15.67 71.0484 15.69L71.3784 15.54C71.4784 15.5 71.5584 15.47 71.6184 15.45C71.6984 15.41 71.7584 15.36 71.7984 15.3L71.8884 15.27C71.9084 15.27 71.9284 15.26 71.9484 15.24C71.9684 15.22 71.9884 15.21 72.0084 15.21V15.18C72.0684 15.12 72.1184 15.09 72.1584 15.09C72.1984 15.07 72.2284 15.06 72.2484 15.06L72.6384 14.28C72.6784 14.24 72.6984 14.2 72.6984 14.16C72.7184 14.12 72.7384 14.08 72.7584 14.04V14.07C72.7584 14.03 72.7584 14.01 72.7584 14.01C72.7784 13.99 72.7884 13.97 72.7884 13.95C72.7884 13.81 72.8084 13.72 72.8484 13.68V13.74C72.9284 13.58 72.9984 13.47 73.0584 13.41C73.0984 13.35 73.1384 13.29 73.1784 13.23C73.2184 13.17 73.2484 13.09 73.2684 12.99C73.3284 12.97 73.3584 12.92 73.3584 12.84L73.5684 12.42C73.6484 12.3 73.7184 12.15 73.7784 11.97C73.8584 11.77 73.9384 11.57 74.0184 11.37C74.0984 11.17 74.1684 10.99 74.2284 10.83C74.2884 10.65 74.3384 10.53 74.3784 10.47L74.4684 10.41C74.5084 10.29 74.5584 10.17 74.6184 10.05C74.7784 9.73 74.9084 9.39 75.0084 9.03V9.06C75.0084 9.02 75.0184 8.99 75.0384 8.97C75.0584 8.95 75.0684 8.93 75.0684 8.91C75.1684 8.79 75.2284 8.66 75.2484 8.52C75.3484 8.4 75.4484 8.22 75.5484 7.98C75.6484 7.74 75.7384 7.53 75.8184 7.35L75.9684 7.05C76.0084 6.95 76.0584 6.85 76.1184 6.75C76.1784 6.65 76.2584 6.52 76.3584 6.36C76.4384 6.24 76.5084 6.12 76.5684 6C76.6284 5.88 76.6884 5.76 76.7484 5.64C76.8684 5.48 76.9684 5.33 77.0484 5.19C77.1484 5.05 77.2384 4.91 77.3184 4.77C77.3984 4.57 77.4684 4.42 77.5284 4.32C77.5884 4.22 77.6484 4.12 77.7084 4.02L77.6784 4.08C77.7184 4 77.7384 3.96 77.7384 3.96C77.7784 3.92 77.8184 3.88 77.8584 3.84C77.9184 3.8 77.9284 3.74 77.8884 3.66C78.0084 3.52 78.1384 3.36 78.2784 3.18C78.4184 2.98 78.5684 2.77 78.7284 2.55V2.58L78.9084 2.31L79.1484 2.01C79.1884 1.93 79.2184 1.86 79.2384 1.8C79.2784 1.72 79.3384 1.66 79.4184 1.62C79.4184 1.52 79.4584 1.41 79.5384 1.29C79.5784 1.33 79.5984 1.35 79.5984 1.35V1.23C79.7584 1.23 79.8484 1.22 79.8684 1.2C79.9084 1.18 79.9384 1.16 79.9584 1.14C79.9784 1.1 80.0384 1.1 80.1384 1.14L80.0784 1.11C80.0984 1.11 80.1084 1.11 80.1084 1.11C80.1084 1.09 80.1184 1.08 80.1384 1.08C80.1784 1.08 80.2284 1.07 80.2884 1.05C80.3684 1.03 80.4284 0.999999 80.4684 0.96C80.5884 0.939999 80.7484 0.969998 80.9484 1.05C81.0084 1.05 81.0584 1.04 81.0984 1.02C81.1384 1.02 81.1684 1.02 81.1884 1.02C81.2284 0.999999 81.2684 0.989999 81.3084 0.989999C81.3484 0.989999 81.3984 1.01 81.4584 1.05C81.5184 1.07 81.5684 1.09 81.6084 1.11C81.6284 1.13 81.6184 1.15 81.5784 1.17C81.5584 1.17 81.6584 1.17 81.8784 1.17L81.9684 1.29L82.2384 1.38C82.1584 1.38 82.1784 1.34 82.2984 1.26C82.3784 1.38 82.4284 1.44 82.4484 1.44V1.41C82.5084 1.43 82.5784 1.48 82.6584 1.56C82.6584 1.48 82.6784 1.4 82.7184 1.32C82.7984 1.6 82.8684 1.75 82.9284 1.77L83.1984 2.04C83.2384 2.08 83.2784 2.14 83.3184 2.22C83.3584 2.28 83.3684 2.33 83.3484 2.37C83.4084 2.31 83.4584 2.28 83.4984 2.28C83.4984 2.56 83.4984 2.78 83.4984 2.94C83.4984 3.08 83.4884 3.2 83.4684 3.3C83.3484 3.56 83.2784 3.74 83.2584 3.84C83.2584 3.92 83.2384 4.02 83.1984 4.14L82.9584 4.95L82.9884 5.01L82.8084 5.19L82.7484 5.31C82.7484 5.33 82.7484 5.36 82.7484 5.4C82.7684 5.42 82.7784 5.45 82.7784 5.49C82.6784 5.63 82.5784 5.84 82.4784 6.12V6.09C82.4384 6.19 82.3984 6.3 82.3584 6.42C82.3384 6.52 82.2984 6.62 82.2384 6.72C82.2384 6.8 82.1984 6.92 82.1184 7.08H82.1484C82.1284 7.12 82.1084 7.17 82.0884 7.23C82.0884 7.27 82.0884 7.34 82.0884 7.44H81.9384C81.8984 7.64 81.8384 7.8 81.7584 7.92C81.6784 8.02 81.5884 8.12 81.4884 8.22C81.3884 8.32 81.2984 8.4 81.2184 8.46C81.1384 8.52 81.0784 8.6 81.0384 8.7C80.9184 8.66 80.8084 8.66 80.7084 8.7C80.5884 8.54 80.4984 8.46 80.4384 8.46C80.3184 8.38 80.2084 8.3 80.1084 8.22C80.0084 8.14 79.9384 8.05 79.8984 7.95L79.8384 7.98H79.8984C79.8584 8.02 79.8084 8.04 79.7484 8.04L79.3284 8.7V8.67L78.9384 9.42L78.9684 9.39C78.9484 9.49 78.8984 9.6 78.8184 9.72C78.7584 9.84 78.7084 9.95 78.6684 10.05L78.2184 10.95H78.2484C77.8484 11.71 77.6284 12.26 77.5884 12.6H77.5284C77.4884 12.62 77.4684 12.63 77.4684 12.63C77.4484 12.67 77.4384 12.69 77.4384 12.69C77.4584 12.67 77.4484 12.68 77.4084 12.72C77.2684 13 77.1484 13.25 77.0484 13.47C76.9684 13.67 76.9184 13.82 76.8984 13.92V13.95C76.8984 13.97 76.8784 13.98 76.8384 13.98L76.5684 14.52H76.5984C76.5784 14.54 76.5684 14.56 76.5684 14.58C76.5684 14.6 76.5584 14.63 76.5384 14.67L76.7784 14.55C76.7784 14.69 76.7684 14.79 76.7484 14.85C76.7684 14.85 76.8384 14.83 76.9584 14.79C77.0784 14.75 77.2084 14.73 77.3484 14.73C77.3884 14.73 77.4184 14.73 77.4384 14.73C77.4584 14.71 77.4884 14.7 77.5284 14.7C77.7484 14.66 77.9784 14.63 78.2184 14.61C78.4584 14.59 78.6884 14.58 78.9084 14.58C79.0084 14.58 79.0984 14.58 79.1784 14.58C79.2784 14.56 79.3884 14.54 79.5084 14.52C79.5484 14.54 79.5984 14.55 79.6584 14.55C79.7184 14.53 79.7984 14.47 79.8984 14.37C79.9784 14.59 80.0484 14.69 80.1084 14.67C80.1884 14.65 80.2684 14.65 80.3484 14.67L80.3784 14.94C80.3584 14.94 80.3484 14.95 80.3484 14.97C80.3484 14.97 80.3384 14.97 80.3184 14.97H80.3484L80.2884 15.03C80.2684 15.05 80.2484 15.08 80.2284 15.12C80.2284 15.14 80.2184 15.16 80.1984 15.18C80.2384 15.26 80.2584 15.32 80.2584 15.36C80.2784 15.38 80.2884 15.4 80.2884 15.42C80.2884 15.44 80.2884 15.47 80.2884 15.51C80.3084 15.55 80.3184 15.58 80.3184 15.6L80.2284 15.66C80.1684 15.7 80.1084 15.75 80.0484 15.81C79.9884 15.85 79.9584 15.89 79.9584 15.93C79.9384 15.95 79.9284 15.97 79.9284 15.99C79.9284 16.01 79.9084 16.02 79.8684 16.02V16.05C79.8084 16.11 79.7484 16.17 79.6884 16.23C79.6484 16.27 79.6184 16.32 79.5984 16.38C79.4984 16.48 79.4184 16.54 79.3584 16.56C79.2984 16.58 79.2284 16.6 79.1484 16.62C79.1284 16.62 79.1084 16.63 79.0884 16.65C79.0684 16.65 79.0484 16.65 79.0284 16.65L78.9384 16.71L79.0284 16.68C78.9484 16.72 78.8784 16.76 78.8184 16.8C78.7584 16.84 78.6684 16.87 78.5484 16.89C78.5084 16.85 78.4484 16.85 78.3684 16.89L78.2784 16.92C78.1184 17 77.9984 17.04 77.9184 17.04V17.16C77.8984 17.16 77.8684 17.17 77.8284 17.19C77.7884 17.19 77.7484 17.19 77.7084 17.19H77.7384C77.7184 17.19 77.6984 17.19 77.6784 17.19C77.6784 17.19 77.6984 17.21 77.7384 17.25C77.4584 17.29 77.2184 17.34 77.0184 17.4C76.8184 17.46 76.6184 17.52 76.4184 17.58C76.1384 17.7 75.7484 17.79 75.2484 17.85C75.2084 17.87 75.1484 17.89 75.0684 17.91C75.0084 17.93 74.9684 17.95 74.9484 17.97L74.7984 18.06C74.7984 18.1 74.7884 18.14 74.7684 18.18C74.7684 18.2 74.7684 18.22 74.7684 18.24L74.6784 18.36C74.6784 18.42 74.6284 18.47 74.5284 18.51H74.5584L74.4384 18.81L74.4684 18.78C74.4284 18.96 74.3884 19.08 74.3484 19.14V19.08L74.2584 19.29L74.1384 19.53H74.1684C74.1284 19.57 74.0884 19.64 74.0484 19.74C74.0084 19.82 73.9584 19.9 73.8984 19.98V19.95L73.6584 20.37L73.4484 20.76L73.2984 21.06C73.2984 21.2 73.2484 21.32 73.1484 21.42V21.36C73.1284 21.4 73.1184 21.42 73.1184 21.42C73.1184 21.48 73.0684 21.6 72.9684 21.78C72.8884 21.94 72.7984 22.13 72.6984 22.35C72.5984 22.55 72.4884 22.74 72.3684 22.92C72.2684 23.08 72.1984 23.19 72.1584 23.25C72.1784 23.23 72.2084 23.21 72.2484 23.19C72.2884 23.15 72.3284 23.14 72.3684 23.16C72.2484 23.36 72.0984 23.68 71.9184 24.12C71.7584 24.56 71.5884 25.04 71.4084 25.56C71.1684 26.18 70.9384 26.78 70.7184 27.36C70.5184 27.96 70.2684 28.45 69.9684 28.83C69.9484 28.81 69.9384 28.79 69.9384 28.77C69.7784 29.03 69.6184 29.24 69.4584 29.4V29.64C69.4184 29.68 69.3684 29.72 69.3084 29.76C69.2284 29.82 69.0984 29.88 68.9184 29.94C68.9784 29.5 69.0284 29.24 69.0684 29.16C69.0484 29.18 69.0384 29.19 69.0384 29.19C68.9984 29.23 68.9584 29.27 68.9184 29.31C68.8584 29.37 68.8084 29.44 68.7684 29.52C68.7684 29.54 68.7684 29.55 68.7684 29.55C68.7484 29.55 68.7384 29.56 68.7384 29.58L68.6784 29.7C68.6584 29.76 68.6384 29.82 68.6184 29.88C68.5984 29.94 68.5684 29.97 68.5284 29.97C68.4884 30.07 68.4484 30.11 68.4084 30.09C68.3484 30.09 68.2984 30.07 68.2584 30.03C68.2384 30.03 68.2284 30.04 68.2284 30.06C68.2284 30.14 68.1684 30.26 68.0484 30.42C68.0084 30.46 67.9984 30.49 68.0184 30.51C67.9784 30.53 67.9684 30.55 67.9884 30.57C67.9884 30.59 67.9684 30.62 67.9284 30.66C67.9084 30.8 67.8184 30.93 67.6584 31.05L67.6884 31.08L67.4184 31.26C67.3784 31.3 67.3184 31.34 67.2384 31.38C67.1584 31.44 67.0584 31.49 66.9384 31.53C66.8584 31.61 66.8184 31.68 66.8184 31.74V31.98C66.7984 32 66.7384 32.03 66.6384 32.07V32.1C66.6384 32.14 66.6284 32.17 66.6084 32.19C66.5884 32.35 66.5484 32.47 66.4884 32.55C66.4284 32.63 66.3584 32.72 66.2784 32.82C66.2184 32.9 66.1584 32.99 66.0984 33.09C66.0184 33.19 65.9684 33.29 65.9484 33.39C65.8884 33.43 65.8684 33.46 65.8884 33.48C65.8884 33.52 65.8784 33.56 65.8584 33.6C65.8184 33.66 65.7584 33.72 65.6784 33.78C65.5984 33.86 65.4784 33.92 65.3184 33.96V33.87C65.1784 33.87 65.0884 33.86 65.0484 33.84L64.9284 33.78C64.8884 33.62 64.8884 33.47 64.9284 33.33C64.9684 33.21 65.0184 33.1 65.0784 33H65.0484ZM77.0524 35.34C77.0524 35.4 77.0424 35.48 77.0224 35.58C76.9824 35.68 76.9224 35.75 76.8424 35.79C76.8424 35.83 76.8524 35.86 76.8724 35.88C76.8724 35.92 76.8524 35.94 76.8124 35.94C76.7724 35.98 76.7724 35.99 76.8124 35.97C76.8524 35.97 76.8724 35.99 76.8724 36.03C76.5724 36.13 76.3824 36.32 76.3024 36.6C76.2224 36.88 76.0924 37.13 75.9124 37.35C75.8324 37.33 75.8224 37.29 75.8824 37.23C75.9224 37.19 75.9224 37.15 75.8824 37.11C75.7824 37.15 75.7224 37.2 75.7024 37.26C75.6824 37.32 75.6524 37.39 75.6124 37.47C75.5124 37.43 75.4924 37.36 75.5524 37.26C75.6124 37.18 75.6024 37.11 75.5224 37.05C75.5224 37.03 75.5524 37.01 75.6124 36.99C75.6524 36.99 75.6724 36.97 75.6724 36.93L75.6424 36.9C75.6224 36.9 75.6024 36.89 75.5824 36.87C75.5624 36.87 75.5424 36.87 75.5224 36.87C75.5624 36.85 75.6124 36.81 75.6724 36.75C75.6124 36.59 75.6424 36.43 75.7624 36.27C75.8824 36.13 75.9324 35.97 75.9124 35.79C76.0524 35.63 76.1424 35.45 76.1824 35.25C76.2024 35.07 76.2724 34.91 76.3924 34.77C76.3924 34.65 76.4224 34.57 76.4824 34.53H76.3624C76.3224 34.47 76.3224 34.42 76.3624 34.38C76.3824 34.36 76.3924 34.32 76.3924 34.26C76.2524 34.34 76.1824 34.47 76.1824 34.65C76.1824 34.85 76.1024 35 75.9424 35.1C75.9424 35.26 75.9324 35.42 75.9124 35.58C75.8724 35.74 75.7724 35.87 75.6124 35.97C75.5124 35.93 75.4624 35.86 75.4624 35.76C75.6024 35.78 75.6524 35.72 75.6124 35.58C75.5724 35.46 75.6124 35.39 75.7324 35.37C75.7324 35.33 75.7224 35.31 75.7024 35.31C75.6824 35.31 75.6824 35.3 75.7024 35.28C75.7424 35.24 75.7724 35.2 75.7924 35.16C75.7924 35.14 75.8024 35.12 75.8224 35.1C75.8624 35.06 75.8624 35.03 75.8224 35.01C75.7624 34.99 75.7324 34.96 75.7324 34.92C75.8524 34.96 75.9224 34.9 75.9424 34.74C75.9424 34.6 75.9624 34.49 76.0024 34.41C76.1024 34.41 76.1524 34.39 76.1524 34.35C76.1524 34.33 76.1424 34.3 76.1224 34.26C76.1624 34.16 76.1924 34.06 76.2124 33.96C76.2124 33.88 76.2324 33.79 76.2724 33.69C76.2724 33.67 76.2624 33.66 76.2424 33.66C76.2024 33.68 76.1824 33.68 76.1824 33.66C76.1824 33.58 76.1924 33.52 76.2124 33.48C76.2324 33.44 76.2324 33.38 76.2124 33.3C76.1924 33.28 76.1624 33.27 76.1224 33.27C76.0824 33.29 76.0424 33.29 76.0024 33.27C76.0024 33.21 75.9824 33.18 75.9424 33.18C76.0424 32.9 76.1624 32.65 76.3024 32.43C76.4424 32.23 76.5924 32.02 76.7524 31.8C76.7524 31.76 76.7324 31.71 76.6924 31.65C76.7924 31.51 76.8824 31.36 76.9624 31.2C77.0224 31.06 77.0824 30.91 77.1424 30.75C77.2024 30.59 77.2724 30.44 77.3524 30.3C77.4324 30.18 77.5024 30.04 77.5624 29.88C77.7824 29.3 78.0824 28.71 78.4624 28.11C78.8224 27.53 79.1724 26.95 79.5124 26.37C79.7324 26.03 79.9124 25.67 80.0524 25.29C80.2124 24.91 80.3724 24.54 80.5324 24.18C80.6324 24.08 80.7024 23.98 80.7424 23.88C80.8024 23.76 80.8824 23.65 80.9824 23.55C80.9024 23.55 80.8624 23.54 80.8624 23.52C80.8624 23.46 80.8924 23.4 80.9524 23.34C81.0124 23.28 81.0624 23.25 81.1024 23.25C81.1624 23.13 81.2324 23.01 81.3124 22.89C81.4124 22.77 81.4524 22.64 81.4324 22.5C81.3924 22.5 81.3724 22.52 81.3724 22.56C81.3924 22.6 81.4024 22.63 81.4024 22.65C81.3424 22.61 81.2924 22.58 81.2524 22.56C81.2324 22.52 81.2524 22.48 81.3124 22.44C81.0924 22.36 80.8524 22.34 80.5924 22.38C80.3324 22.42 80.1524 22.36 80.0524 22.2C80.0124 22.24 79.9724 22.25 79.9324 22.23C79.9124 22.19 79.8624 22.2 79.7824 22.26C79.5824 22.16 79.3524 22.08 79.0924 22.02C78.8324 21.96 78.6724 21.83 78.6124 21.63C78.4924 21.61 78.4224 21.55 78.4024 21.45C78.3824 21.33 78.3324 21.24 78.2524 21.18C78.2524 21.08 78.2524 20.97 78.2524 20.85C78.2324 20.71 78.2324 20.59 78.2524 20.49C78.3124 20.45 78.3424 20.42 78.3424 20.4C78.3424 20.38 78.3624 20.37 78.4024 20.37C78.3824 20.35 78.3624 20.35 78.3424 20.37C78.3824 20.29 78.4124 20.21 78.4324 20.13C78.4324 20.03 78.4524 19.96 78.4924 19.92C78.4924 19.78 78.5324 19.63 78.6124 19.47C78.6724 19.29 78.7124 19.13 78.7324 18.99C78.7324 18.93 78.7224 18.86 78.7024 18.78C78.8824 18.6 78.9824 18.37 79.0024 18.09C79.1624 17.93 79.2624 17.76 79.3024 17.58C79.3424 17.38 79.4024 17.18 79.4824 16.98C79.5224 16.82 79.5824 16.68 79.6624 16.56C79.7624 16.42 79.8424 16.27 79.9024 16.11C79.9224 16.07 79.9224 16.02 79.9024 15.96C79.9024 15.9 79.9124 15.85 79.9324 15.81C79.9924 15.71 80.0624 15.61 80.1424 15.51C80.2224 15.41 80.2524 15.31 80.2324 15.21C80.3324 15.15 80.3824 15.08 80.3824 15C80.4024 14.92 80.4324 14.83 80.4724 14.73C80.5924 14.59 80.6824 14.43 80.7424 14.25C80.8224 14.05 80.9024 13.86 80.9824 13.68C81.0624 13.48 81.1524 13.3 81.2524 13.14C81.3524 12.96 81.4824 12.8 81.6424 12.66C81.5824 12.58 81.5824 12.54 81.6424 12.54C81.6424 12.5 81.6324 12.48 81.6124 12.48C81.5924 12.46 81.6024 12.44 81.6424 12.42C81.7024 12.36 81.7724 12.34 81.8524 12.36C81.9524 12.38 82.0124 12.35 82.0324 12.27C82.0324 12.23 81.9924 12.22 81.9124 12.24C81.8524 12.24 81.8224 12.22 81.8224 12.18C81.8824 12.18 81.9324 12.18 81.9724 12.18C82.0324 12.16 82.0924 12.15 82.1524 12.15C82.1724 12.17 82.1824 12.22 82.1824 12.3C82.2824 12.34 82.3624 12.33 82.4224 12.27C82.4824 12.21 82.5424 12.18 82.6024 12.18C82.6824 12.24 82.7224 12.3 82.7224 12.36C82.7624 12.4 82.8524 12.42 82.9924 12.42C83.1524 12.4 83.2624 12.36 83.3224 12.3C83.3424 12.38 83.3824 12.42 83.4424 12.42C83.5224 12.4 83.6024 12.4 83.6824 12.42C83.7024 12.5 83.7324 12.55 83.7724 12.57C83.8324 12.59 83.8824 12.62 83.9224 12.66C83.9624 12.66 83.9924 12.65 84.0124 12.63C84.0324 12.59 84.0724 12.58 84.1324 12.6C84.1724 12.66 84.1924 12.72 84.1924 12.78C84.1924 12.84 84.2424 12.87 84.3424 12.87C84.3424 13.03 84.3324 13.18 84.3124 13.32C84.3124 13.44 84.3224 13.54 84.3424 13.62C84.3824 13.62 84.3924 13.62 84.3724 13.62C84.3524 13.6 84.3624 13.59 84.4024 13.59C84.4424 13.69 84.4124 13.8 84.3124 13.92C84.2324 14.04 84.1824 14.16 84.1624 14.28C84.1824 14.38 84.1524 14.47 84.0724 14.55C84.0724 14.57 84.1024 14.58 84.1624 14.58C84.1624 14.62 84.1524 14.64 84.1324 14.64C84.1324 14.64 84.1324 14.66 84.1324 14.7H84.0424C84.0024 15 83.9224 15.29 83.8024 15.57C83.6824 15.85 83.5524 16.13 83.4124 16.41C83.4124 16.47 83.4424 16.51 83.5024 16.53H83.4124C83.3924 16.53 83.3824 16.52 83.3824 16.5C83.3424 16.76 83.2724 17 83.1724 17.22C83.0724 17.42 82.9824 17.63 82.9024 17.85C82.9424 17.89 82.9624 17.89 82.9624 17.85C82.9824 17.81 83.0124 17.8 83.0524 17.82V17.97C83.1124 17.97 83.1724 17.95 83.2324 17.91C83.3124 17.85 83.3624 17.8 83.3824 17.76C83.3824 17.72 83.4224 17.7 83.5024 17.7C83.5824 17.64 83.6524 17.58 83.7124 17.52C83.7924 17.44 83.8924 17.38 84.0124 17.34C84.0524 17.18 84.1324 17.09 84.2524 17.07C84.3924 17.03 84.4824 16.93 84.5224 16.77C84.6024 16.79 84.6424 16.77 84.6424 16.71C84.6624 16.65 84.6924 16.59 84.7324 16.53C84.8724 16.51 84.9524 16.47 84.9724 16.41C84.9924 16.33 85.0724 16.27 85.2124 16.23C85.1724 16.35 85.1024 16.45 85.0024 16.53C84.9024 16.59 84.8524 16.66 84.8524 16.74C84.9324 16.74 84.9824 16.72 85.0024 16.68C85.0424 16.62 85.1224 16.57 85.2424 16.53C85.2424 16.51 85.2324 16.5 85.2124 16.5C85.2124 16.48 85.2124 16.46 85.2124 16.44C85.2524 16.44 85.2724 16.43 85.2724 16.41C85.2724 16.37 85.2924 16.35 85.3324 16.35C85.3324 16.33 85.3224 16.32 85.3024 16.32C85.3024 16.32 85.3024 16.3 85.3024 16.26C85.4024 16.26 85.4624 16.22 85.4824 16.14C85.5024 16.06 85.5724 16.01 85.6924 15.99C85.6924 15.89 85.6924 15.84 85.6924 15.84C85.7324 15.84 85.7624 15.82 85.7824 15.78C85.8024 15.74 85.8424 15.73 85.9024 15.75C86.0424 15.59 86.1524 15.44 86.2324 15.3C86.3324 15.14 86.4624 14.99 86.6224 14.85C86.6224 14.83 86.6124 14.82 86.5924 14.82C86.5924 14.82 86.5924 14.8 86.5924 14.76C86.6324 14.72 86.6624 14.69 86.6824 14.67C86.7224 14.65 86.7524 14.62 86.7724 14.58C86.9924 14.46 87.1424 14.3 87.2224 14.1C87.3224 13.9 87.4824 13.73 87.7024 13.59C87.7024 13.49 87.7324 13.41 87.7924 13.35C87.8724 13.27 87.9624 13.21 88.0624 13.17V12.99C88.1624 12.91 88.2324 12.82 88.2724 12.72C88.3324 12.62 88.4224 12.54 88.5424 12.48C88.7224 12.26 88.8724 12.06 88.9924 11.88C89.1324 11.68 89.2924 11.47 89.4724 11.25C89.4724 11.23 89.4824 11.22 89.5024 11.22C89.5224 11.2 89.5124 11.17 89.4724 11.13C89.6324 11.01 89.7624 10.86 89.8624 10.68C89.9824 10.5 90.1124 10.33 90.2524 10.17C90.3324 10.13 90.4324 10.05 90.5524 9.93C90.5124 9.73 90.5724 9.59 90.7324 9.51C90.8924 9.43 91.0524 9.35 91.2124 9.27C91.2124 9.23 91.2124 9.21 91.2124 9.21C91.2324 9.21 91.2324 9.19 91.2124 9.15C91.3324 9.15 91.4024 9.13 91.4224 9.09C91.4624 9.03 91.5324 9 91.6324 9C91.6724 9.04 91.6624 9.07 91.6024 9.09C91.5424 9.09 91.5324 9.11 91.5724 9.15C91.6524 9.15 91.7024 9.14 91.7224 9.12C91.7624 9.1 91.8124 9.09 91.8724 9.09C91.9124 9.13 91.9324 9.15 91.9324 9.15C91.9724 9.19 91.9824 9.22 91.9624 9.24C91.9424 9.24 91.9324 9.26 91.9324 9.3C91.9324 9.34 91.9524 9.36 91.9924 9.36C92.0324 9.34 92.0624 9.35 92.0824 9.39C92.1224 9.35 92.1324 9.3 92.1124 9.24C92.0924 9.18 92.1024 9.17 92.1424 9.21C92.1624 9.25 92.1624 9.28 92.1424 9.3C92.1424 9.32 92.1424 9.36 92.1424 9.42C92.2224 9.46 92.3224 9.48 92.4424 9.48C92.5824 9.48 92.6724 9.5 92.7124 9.54C92.7724 9.54 92.8024 9.5 92.8024 9.42H92.9524C92.9924 9.44 93.0024 9.46 92.9824 9.48C92.9624 9.48 92.9524 9.5 92.9524 9.54C93.1524 9.54 93.3324 9.57 93.4924 9.63C93.6724 9.67 93.8424 9.72 94.0024 9.78C94.0024 9.8 93.9924 9.82 93.9724 9.84C93.9724 9.84 93.9724 9.86 93.9724 9.9C94.0124 9.9 94.0324 9.89 94.0324 9.87C94.0524 9.85 94.0824 9.86 94.1224 9.9C94.1624 10 94.2024 10.09 94.2424 10.17C94.2824 10.25 94.3524 10.3 94.4524 10.32C94.4924 10.5 94.4824 10.66 94.4224 10.8C94.3824 10.92 94.3624 11.06 94.3624 11.22C94.2824 11.44 94.1624 11.64 94.0024 11.82C93.8424 11.98 93.7524 12.19 93.7324 12.45C93.5924 12.63 93.4424 12.83 93.2824 13.05C93.1224 13.25 92.9924 13.46 92.8924 13.68C92.6524 14 92.4324 14.31 92.2324 14.61C92.0524 14.91 91.8324 15.19 91.5724 15.45C91.5924 15.51 91.5924 15.55 91.5724 15.57C91.5724 15.57 91.5724 15.58 91.5724 15.6C91.5124 15.64 91.4324 15.7 91.3324 15.78C91.2324 15.84 91.1624 15.92 91.1224 16.02C91.0824 16.06 91.0424 16.11 91.0024 16.17C90.9824 16.23 90.9724 16.28 90.9724 16.32C90.9524 16.34 90.9224 16.36 90.8824 16.38C90.8624 16.38 90.8424 16.39 90.8224 16.41C90.5424 16.73 90.2824 17.06 90.0424 17.4C89.8024 17.74 89.5224 18.07 89.2024 18.39C89.2024 18.43 89.1824 18.47 89.1424 18.51C89.1224 18.53 89.1224 18.56 89.1424 18.6C89.1224 18.62 89.0724 18.63 88.9924 18.63C88.9724 18.67 88.9624 18.7 88.9624 18.72C88.9424 18.78 88.9424 18.83 88.9624 18.87C88.9224 18.85 88.8924 18.86 88.8724 18.9C88.8724 18.92 88.8424 18.93 88.7824 18.93C88.7824 19.13 88.6624 19.26 88.4224 19.32C88.3624 19.48 88.2724 19.63 88.1524 19.77C88.0524 19.89 87.9424 20.03 87.8224 20.19C87.7624 20.35 87.6424 20.5 87.4624 20.64C87.3024 20.76 87.2024 20.92 87.1624 21.12C87.1424 21.14 87.1024 21.15 87.0424 21.15C87.0024 21.15 86.9624 21.17 86.9224 21.21C86.9424 21.25 86.9524 21.31 86.9524 21.39C86.8524 21.49 86.7524 21.59 86.6524 21.69C86.5524 21.79 86.4824 21.92 86.4424 22.08C86.4024 22.1 86.3724 22.12 86.3524 22.14C86.3524 22.14 86.3224 22.14 86.2624 22.14C86.2824 22.3 86.2124 22.42 86.0524 22.5C85.9124 22.58 85.8424 22.69 85.8424 22.83C85.7224 22.89 85.6524 22.99 85.6324 23.13C85.5324 23.15 85.4424 23.26 85.3624 23.46C85.3224 23.5 85.3024 23.52 85.3024 23.52C85.3024 23.5 85.2924 23.5 85.2724 23.52C85.2724 23.52 85.2724 23.56 85.2724 23.64C85.0124 23.76 84.8224 23.94 84.7024 24.18C84.6024 24.44 84.4224 24.65 84.1624 24.81C84.1024 25.07 83.9524 25.31 83.7124 25.53C83.4924 25.77 83.3324 26.03 83.2324 26.31C83.0724 26.33 83.0124 26.42 83.0524 26.58C83.0124 26.58 82.9724 26.6 82.9324 26.64C82.9124 26.68 82.9224 26.7 82.9624 26.7C82.8624 26.8 82.7724 26.88 82.6924 26.94C82.6124 27.02 82.5724 27.11 82.5724 27.21C82.4724 27.27 82.4024 27.34 82.3624 27.42C82.3424 27.5 82.3124 27.59 82.2724 27.69C81.9324 27.93 81.7024 28.24 81.5824 28.62C81.5424 28.62 81.5224 28.63 81.5224 28.65C81.5224 28.67 81.4924 28.68 81.4324 28.68C81.3924 28.84 81.2924 29.01 81.1324 29.19C80.9924 29.39 80.8824 29.6 80.8024 29.82C80.7024 29.84 80.6424 29.9 80.6224 30C80.6224 30.1 80.5724 30.17 80.4724 30.21C80.5124 30.23 80.5224 30.26 80.5024 30.3C80.4824 30.34 80.4524 30.36 80.4124 30.36C80.2524 30.72 80.0524 31.05 79.8124 31.35C79.5924 31.65 79.3924 31.97 79.2124 32.31C79.1724 32.33 79.1424 32.36 79.1224 32.4C79.1224 32.46 79.1024 32.51 79.0624 32.55C79.0424 32.55 79.0324 32.55 79.0324 32.55L79.0624 32.52C78.9624 32.6 78.8824 32.71 78.8224 32.85C78.7424 32.99 78.6824 33.14 78.6424 33.3C78.3824 33.46 78.1924 33.69 78.0724 33.99C77.9524 34.29 77.8024 34.55 77.6224 34.77C77.5224 34.95 77.3624 35.05 77.1424 35.07C77.1424 35.11 77.1224 35.13 77.0824 35.13C77.0824 35.15 77.1024 35.17 77.1424 35.19C77.1824 35.21 77.1824 35.24 77.1424 35.28C77.1824 35.3 77.1824 35.31 77.1424 35.31C77.0824 35.31 77.0524 35.32 77.0524 35.34ZM76.8424 33.27C76.8424 33.31 76.8424 33.33 76.8424 33.33C76.8624 33.35 76.8624 33.36 76.8424 33.36C76.8224 33.38 76.8124 33.41 76.8124 33.45C76.8524 33.45 76.8724 33.42 76.8724 33.36C76.8724 33.32 76.8624 33.29 76.8424 33.27ZM78.0124 29.25C77.9924 29.27 77.9724 29.29 77.9524 29.31C77.9124 29.35 77.8924 29.38 77.8924 29.4C77.8924 29.38 77.9324 29.36 78.0124 29.34C78.0724 29.32 78.0724 29.29 78.0124 29.25ZM78.9724 27.54C78.7924 27.78 78.6324 28.04 78.4924 28.32C78.3324 28.6 78.1724 28.88 78.0124 29.16C78.2524 28.92 78.4424 28.66 78.5824 28.38C78.7024 28.1 78.8324 27.82 78.9724 27.54ZM79.3924 21.96C79.2924 21.94 79.2224 21.91 79.1824 21.87C79.1624 21.81 79.1024 21.78 79.0024 21.78C79.0424 21.84 79.1024 21.89 79.1824 21.93C79.2824 21.95 79.3524 21.96 79.3924 21.96ZM79.7824 26.13C79.6824 26.17 79.6324 26.23 79.6324 26.31C79.6724 26.27 79.7024 26.24 79.7224 26.22C79.7624 26.2 79.7824 26.17 79.7824 26.13ZM81.5224 24.15C81.4624 24.13 81.4324 24.13 81.4324 24.15C81.4324 24.19 81.4224 24.22 81.4024 24.24C81.4824 24.24 81.5224 24.21 81.5224 24.15ZM84.5824 16.95C84.5824 16.99 84.5624 17.03 84.5224 17.07C84.4824 17.09 84.4924 17.11 84.5524 17.13C84.5324 17.09 84.5424 17.06 84.5824 17.04C84.6224 17 84.6224 16.97 84.5824 16.95Z" fill="white"/>
</svg>
