<svg width="39" height="38" viewBox="0 0 39 38" fill="none" xmlns="http://www.w3.org/2000/svg">
<path d="M35.0252 15.8991H33.7498V15.8334H19.4998V22.1667H28.448C27.1426 25.8535 23.6347 28.5001 19.4998 28.5001C14.2535 28.5001 9.99984 24.2465 9.99984 19.0001C9.99984 13.7537 14.2535 9.50008 19.4998 9.50008C21.9215 9.50008 24.1248 10.4137 25.8023 11.906L30.2808 7.4275C27.4529 4.79204 23.6703 3.16675 19.4998 3.16675C10.7559 3.16675 3.6665 10.2561 3.6665 19.0001C3.6665 27.744 10.7559 34.8334 19.4998 34.8334C28.2438 34.8334 35.3332 27.744 35.3332 19.0001C35.3332 17.9385 35.2239 16.9022 35.0252 15.8991Z" fill="#FFC107"/>
<path d="M5.49219 11.6305L10.6942 15.4455C12.1018 11.9606 15.5107 9.50008 19.4999 9.50008C21.9216 9.50008 24.1249 10.4137 25.8024 11.906L30.2809 7.4275C27.453 4.79204 23.6704 3.16675 19.4999 3.16675C13.4184 3.16675 8.14427 6.60021 5.49219 11.6305Z" fill="#FF3D00"/>
<path d="M19.4999 34.8334C23.5897 34.8334 27.3058 33.2683 30.1154 30.7231L25.215 26.5763C23.5719 27.8259 21.5642 28.5017 19.4999 28.5001C15.3817 28.5001 11.8849 25.8741 10.5675 22.2095L5.4043 26.1876C8.02471 31.3152 13.3463 34.8334 19.4999 34.8334Z" fill="#4CAF50"/>
<path d="M35.0254 15.899H33.75V15.8333H19.5V22.1666H28.4482C27.8237 23.9212 26.6989 25.4545 25.2127 26.577L25.215 26.5754L30.1155 30.7221C29.7687 31.0372 35.3333 26.9166 35.3333 18.9999C35.3333 17.9383 35.2241 16.902 35.0254 15.899Z" fill="#1976D2"/>
</svg>
