<svg width="18" height="18" viewBox="0 0 18 18" fill="none" xmlns="http://www.w3.org/2000/svg">
<path fill-rule="evenodd" clip-rule="evenodd" d="M16.334 2.03247C16.8121 2.51052 17.1042 2.98857 17.3233 3.55294C17.5358 4.09738 17.6819 4.72151 17.7217 5.63777C17.7682 6.55404 17.7748 6.84618 17.7748 9.18332C17.7748 11.5073 17.7617 11.8092 17.7224 12.7134V12.7134L17.7217 12.7289C17.6819 13.6385 17.5358 14.2693 17.3233 14.8137C17.1042 15.3781 16.8121 15.8561 16.334 16.3342C15.856 16.8122 15.3779 17.1044 14.8136 17.3235C14.2691 17.5359 13.645 17.682 12.7287 17.7218C11.8125 17.7683 11.5203 17.775 9.1832 17.775C6.85924 17.775 6.55728 17.7618 5.65309 17.7225H5.65307L5.63765 17.7218C4.72802 17.682 4.09726 17.5359 3.55281 17.3235C2.98845 17.1044 2.5104 16.8122 2.03235 16.3342C1.55429 15.8561 1.26215 15.3781 1.04305 14.8137C0.830578 14.2693 0.684507 13.6451 0.64467 12.7289C0.598192 11.8126 0.591553 11.5205 0.591553 9.18332C0.591553 6.85936 0.604683 6.5574 0.643998 5.65321L0.64467 5.63777C0.684507 4.72815 0.830578 4.09738 1.04305 3.55294C1.26215 2.98857 1.55429 2.51052 2.03235 2.03247C2.5104 1.55442 2.98845 1.26227 3.55281 1.04317C4.09726 0.8307 4.72138 0.684629 5.63765 0.644792C6.55391 0.598314 6.84606 0.591675 9.1832 0.591675C11.5072 0.591675 11.8091 0.604805 12.7133 0.64412L12.7287 0.644792C13.6384 0.684629 14.2691 0.8307 14.8136 1.04317C15.3779 1.26227 15.856 1.55442 16.334 2.03247ZM15.8759 14.2493C15.9954 13.9506 16.1349 13.4924 16.1747 12.6558L16.1758 12.6302C16.2148 11.7473 16.2278 11.4522 16.2278 9.18332C16.2278 6.92308 16.2149 6.62802 16.1763 5.74672V5.7467L16.1747 5.71081C16.1349 4.87422 15.9954 4.42272 15.8759 4.1173C15.7166 3.71229 15.5307 3.42678 15.2319 3.128C14.9331 2.82922 14.6409 2.63667 14.2426 2.48396C13.9438 2.36445 13.4857 2.22502 12.6491 2.18518C11.7461 2.1387 11.4672 2.13206 9.17656 2.13206C6.91633 2.13206 6.62126 2.14499 5.73998 2.1836L5.70405 2.18518C4.86746 2.22502 4.41596 2.36445 4.11054 2.48396C3.70553 2.64331 3.42002 2.82922 3.12124 3.128C2.82246 3.42678 2.62991 3.71893 2.4772 4.1173C2.35769 4.41609 2.21826 4.87422 2.17842 5.71081C2.13194 6.61379 2.1253 6.89266 2.1253 9.18332C2.1253 11.4435 2.13823 11.7386 2.17684 12.6199L2.17842 12.6558C2.21826 13.4924 2.35769 13.9439 2.4772 14.2493C2.63655 14.6544 2.82246 14.9399 3.12124 15.2386C3.42002 15.5374 3.71217 15.73 4.11054 15.8827C4.40932 16.0022 4.86746 16.1416 5.70405 16.1815C6.60703 16.2279 6.87926 16.2346 9.17656 16.2346C11.437 16.2346 11.7304 16.2217 12.6058 16.1834L12.6491 16.1815C13.4857 16.1416 13.9372 16.0022 14.2426 15.8827C14.6476 15.7233 14.9331 15.5374 15.2319 15.2386C15.5307 14.9399 15.7232 14.6477 15.8759 14.2493ZM4.88737 9.18332C4.88737 6.81254 6.81242 4.8875 9.1832 4.8875C11.554 4.8875 13.479 6.81254 13.479 9.18332C13.479 11.5541 11.554 13.4791 9.1832 13.4791C6.81242 13.4791 4.88737 11.5541 4.88737 9.18332ZM6.39253 9.18332C6.39253 10.7272 7.64574 11.974 9.1832 11.974C10.7206 11.974 11.9739 10.7208 11.9739 9.18332C11.9739 7.63941 10.7271 6.39265 9.1832 6.39265C7.63929 6.39265 6.39253 7.64587 6.39253 9.18332ZM13.479 5.96145C14.0721 5.96145 14.553 5.48063 14.553 4.8875C14.553 4.29437 14.0721 3.81354 13.479 3.81354C12.8859 3.81354 12.4051 4.29437 12.4051 4.8875C12.4051 5.48063 12.8859 5.96145 13.479 5.96145Z" fill="black"/>
</svg>
