<svg width="18" height="18" viewBox="0 0 18 18" fill="none" xmlns="http://www.w3.org/2000/svg">
<mask id="path-1-inside-1" fill="white">
<path fill-rule="evenodd" clip-rule="evenodd" d="M12.8978 5.66914L10.9831 6.62651C10.5459 6.12474 10.2318 5.51288 10.0879 4.83801L12.0035 3.8802C12.0655 2.83141 12.9357 2 14 2C15.1046 2 16 2.89543 16 4C16 5.10457 15.1046 6 14 6C13.5927 6 13.2138 5.87824 12.8978 5.66914ZM10.0879 4.83801L7.01694 6.3735C6.28363 5.53189 5.20393 5 4 5C1.79086 5 0 6.79086 0 9C0 11.2091 1.79086 13 4 13C5.19499 13 6.2676 12.476 7.00055 11.6452L10.0784 13.2081C10.027 13.4641 10 13.7289 10 14C10 16.2091 11.7909 18 14 18C16.2091 18 18 16.2091 18 14C18 11.7909 16.2091 10 14 10C12.7793 10 11.6863 10.5468 10.9526 11.4089L7.90682 9.86231C7.96784 9.58459 8 9.29605 8 9C8 8.71258 7.96968 8.43223 7.91208 8.16199L10.9831 6.62651C11.7164 7.46811 12.7961 8 14 8C16.2091 8 18 6.20914 18 4C18 1.79086 16.2091 0 14 0C11.7909 0 10 1.79086 10 4C10 4.28742 10.0303 4.56777 10.0879 4.83801ZM4 7C4.40731 7 4.78618 7.12176 5.10221 7.33086C5.64319 7.68882 6 8.30274 6 9C6 9.70171 5.63862 10.319 5.09183 10.676C4.7779 10.8809 4.40286 11 4 11C2.93146 11 2.05864 10.162 2.00283 9.1074C2.00095 9.07184 2 9.03603 2 9C2 8.95978 2.00119 8.91984 2.00353 8.8802C2.06549 7.83141 2.93565 7 4 7ZM12.0087 14.1883C12.003 14.1263 12 14.0635 12 14C12 13.3267 12.3327 12.7311 12.8427 12.3687C13.1693 12.1365 13.5687 12 14 12C15.1046 12 16 12.8954 16 14C16 15.1046 15.1046 16 14 16C12.9589 16 12.1037 15.2046 12.0087 14.1883Z"/>
</mask>
<path d="M12.8978 5.66914L14.0014 4.0012L13.0373 3.3633L12.0034 3.88028L12.8978 5.66914ZM12.0035 3.8802L12.898 5.66906L13.9319 5.1521L14 3.99815L12.0035 3.8802ZM7.01694 6.3735L5.50904 7.68736L6.52632 8.85487L7.91137 8.16235L7.01694 6.3735ZM7.00055 11.6452L7.90608 9.86193L6.52531 9.16079L5.5008 10.322L7.00055 11.6452ZM10.0784 13.2081L12.0392 13.6019L12.3383 12.1126L10.9839 11.4248L10.0784 13.2081ZM10.9526 11.4089L10.047 13.1922L11.4534 13.9063L12.4756 12.7052L10.9526 11.4089ZM7.90682 9.86231L5.95341 9.43311L5.62126 10.9448L7.00129 11.6456L7.90682 9.86231ZM7.91208 8.16199L7.01765 6.37314L5.63335 7.06529L5.95603 8.57897L7.91208 8.16199ZM5.10221 7.33086L6.20584 5.66293L6.20584 5.66293L5.10221 7.33086ZM5.09183 10.676L6.18509 12.3507L6.18509 12.3507L5.09183 10.676ZM2.00283 9.1074L4.00004 9.00172V9.00172L2.00283 9.1074ZM2.00353 8.8802L4.00005 8.99815V8.99815L2.00353 8.8802ZM12.0087 14.1883L14.0001 14.0023L14.0001 14.0023L12.0087 14.1883ZM12.8427 12.3687L14.0013 13.9989H14.0013L12.8427 12.3687ZM11.8775 8.41536L13.7922 7.45799L12.0034 3.88028L10.0886 4.83765L11.8775 8.41536ZM12.491 5.31264C12.2709 5.06011 12.1152 4.75499 12.044 4.42103L8.13187 5.25498C8.34841 6.27076 8.8208 7.18937 9.47516 7.94037L12.491 5.31264ZM11.1091 2.09135L9.19349 3.04915L10.9823 6.62686L12.898 5.66906L11.1091 2.09135ZM14 0C11.8706 0 10.131 1.66284 10.007 3.76225L14 3.99815C14.0001 3.99711 14.0002 3.99741 13.9999 3.99853C13.9996 3.99956 13.9993 4.00045 13.999 4.00104C13.9986 4.00193 13.9988 4.00111 14.0002 3.99976C14.0016 3.99846 14.002 3.99861 14.0004 3.99925C13.9996 3.99961 13.9986 3.99989 13.9978 4.00005C13.9969 4.00022 13.9974 4 14 4V0ZM18 4C18 1.79086 16.2091 0 14 0V4H18ZM14 8C16.2091 8 18 6.20914 18 4H14V8ZM11.7942 7.33707C12.4274 7.75607 13.1883 8 14 8V4C13.998 4 13.9972 3.99986 13.9975 3.9999C13.9977 3.99994 13.9984 4.00006 13.9992 4.0003C14.0009 4.00083 14.0016 4.00135 14.0014 4.0012L11.7942 7.33707ZM9.19349 3.04915L6.12251 4.58464L7.91137 8.16235L10.9823 6.62686L9.19349 3.04915ZM8.52484 5.05963C7.42786 3.80065 5.80626 3 4 3V7C4.6016 7 5.1394 7.26313 5.50904 7.68736L8.52484 5.05963ZM4 3C0.686291 3 -2 5.68629 -2 9H2C2 7.89543 2.89543 7 4 7V3ZM-2 9C-2 12.3137 0.686291 15 4 15V11C2.89543 11 2 10.1046 2 9H-2ZM4 15C5.79277 15 7.4038 14.2112 8.50031 12.9684L5.5008 10.322C5.13139 10.7408 4.59721 11 4 11V15ZM6.09503 13.4285L9.17286 14.9914L10.9839 11.4248L7.90608 9.86193L6.09503 13.4285ZM8.11753 12.8143C8.04023 13.1992 8 13.5959 8 14H12C12 13.8619 12.0137 13.7289 12.0392 13.6019L8.11753 12.8143ZM8 14C8 17.3137 10.6863 20 14 20V16C12.8954 16 12 15.1046 12 14H8ZM14 20C17.3137 20 20 17.3137 20 14H16C16 15.1046 15.1046 16 14 16V20ZM20 14C20 10.6863 17.3137 8 14 8V12C15.1046 12 16 12.8954 16 14H20ZM14 8C12.1684 8 10.527 8.82317 9.42949 10.1127L12.4756 12.7052C12.8456 12.2705 13.3902 12 14 12V8ZM11.8581 9.62565L8.81234 8.07905L7.00129 11.6456L10.047 13.1922L11.8581 9.62565ZM9.86022 10.2915C9.95201 9.87373 10 9.44131 10 9H6C6 9.15079 5.98366 9.29544 5.95341 9.43311L9.86022 10.2915ZM10 9C10 8.57157 9.95477 8.15149 9.86813 7.74502L5.95603 8.57897C5.98459 8.71298 6 8.85358 6 9H10ZM8.8065 9.95085L11.8775 8.41536L10.0886 4.83765L7.01765 6.37314L8.8065 9.95085ZM14 6C13.3984 6 12.8606 5.73687 12.491 5.31264L9.47516 7.94037C10.5721 9.19936 12.1937 10 14 10V6ZM16 4C16 5.10457 15.1046 6 14 6V10C17.3137 10 20 7.31371 20 4H16ZM14 2C15.1046 2 16 2.89543 16 4H20C20 0.686291 17.3137 -2 14 -2V2ZM12 4C12 2.89543 12.8954 2 14 2V-2C10.6863 -2 8 0.686291 8 4H12ZM12.044 4.42103C12.0154 4.28702 12 4.14642 12 4H8C8 4.42842 8.04522 4.84851 8.13187 5.25498L12.044 4.42103ZM6.20584 5.66293C5.57259 5.24393 4.81174 5 4 5V9C4.00204 9 4.00278 9.00014 4.0025 9.0001C4.00225 9.00006 4.00163 8.99994 4.00082 8.9997C3.99911 8.99917 3.99835 8.99865 3.99858 8.9988L6.20584 5.66293ZM3.99858 8.9988C3.99889 8.999 3.99959 8.99954 4.00035 9.00036C4.00109 9.00117 4.00132 9.00163 4.00119 9.00139C4.00098 9.00101 4.0005 8.99998 4.00013 8.99855C3.99968 8.99684 4 8.99691 4 9H8C8 7.60352 7.28274 6.37549 6.20584 5.66293L3.99858 8.9988ZM4 9C4 9.00311 3.99968 9.00315 4.00013 9.00143C4.00051 8.99998 4.00099 8.99896 4.0012 8.9986C4.00131 8.99838 4.00107 8.99886 4.00031 8.99968C3.99954 9.00051 3.99884 9.00103 3.99856 9.00121L6.18509 12.3507C7.27358 11.6401 8 10.4054 8 9H4ZM3.99856 9.00121C3.99839 9.00133 3.99917 9.0008 4.00087 9.00029C4.00167 9.00005 4.00228 8.99993 4.00251 8.9999C4.00277 8.99986 4.00202 9 4 9V13C4.80279 13 5.55594 12.7614 6.18509 12.3507L3.99856 9.00121ZM4 9C3.99744 9 3.99691 8.99978 3.99781 8.99996C3.99861 9.00011 3.99959 9.0004 4.00046 9.00076C4.00202 9.0014 4.0016 9.00153 4.00022 9.00022C3.99878 8.99885 3.99856 8.99805 3.99901 8.999C3.9993 8.99962 3.99964 9.00052 3.9999 9.00155C4.00018 9.00267 4.0001 9.0029 4.00004 9.00172L0.00562813 9.21307C0.117324 11.3241 1.86229 13 4 13V9ZM4.00004 9.00172C4.00002 9.00133 4 9.00076 4 9H0C0 9.07129 0.0018854 9.14234 0.00562818 9.21307L4.00004 9.00172ZM4 9C4 8.99915 4.00002 8.99854 4.00005 8.99815L0.00701001 8.76225C0.00234978 8.84113 0 8.92041 0 9H4ZM4 5C1.8706 5 0.131037 6.66284 0.00700985 8.76225L4.00005 8.99815C4.00011 8.9971 4.00017 8.9974 3.99988 8.99853C3.99961 8.99956 3.99927 9.00045 3.99899 9.00104C3.99856 9.00193 3.99882 9.00111 4.00025 8.99976C4.00162 8.99846 4.00202 8.99861 4.00044 8.99925C3.99957 8.99961 3.9986 8.99989 3.99781 9.00005C3.99692 9.00022 3.99745 9 4 9V5ZM10 14C10 14.1257 10.0059 14.2506 10.0174 14.3743L14.0001 14.0023C14.0001 14.0021 14 14.0013 14 14H10ZM11.684 10.7385C10.6689 11.46 10 12.6518 10 14H14C14 13.997 14.0003 13.9968 13.9999 13.9984C13.9996 13.9998 13.9991 14.0008 13.9988 14.0013C13.9987 14.0017 13.9988 14.0013 13.9995 14.0006C14.0001 13.9998 14.0008 13.9992 14.0013 13.9989L11.684 10.7385ZM14 10C13.14 10 12.338 10.2737 11.684 10.7385L14.0013 13.9989C14.0018 13.9985 14.0012 13.999 13.9994 13.9996C13.9986 13.9999 13.9979 14 13.9975 14.0001C13.9971 14.0002 13.9979 14 14 14V10ZM18 14C18 11.7909 16.2091 10 14 10V14H18ZM14 18C16.2091 18 18 16.2091 18 14H14V18ZM10.0174 14.3743C10.2074 16.4089 11.9167 18 14 18V14C13.9975 14 13.9969 13.9998 13.9978 13.9999C13.9985 14.0001 13.9995 14.0004 14.0003 14.0007C14.002 14.0014 14.0017 14.0016 14.0004 14.0004C13.999 13.9991 13.9986 13.9982 13.9989 13.9988C13.9991 13.9992 13.9995 14 13.9998 14.001C14.0001 14.0022 14.0001 14.0027 14.0001 14.0023L10.0174 14.3743Z" fill="#FF0039" mask="url(#path-1-inside-1)"/>
</svg>
