<svg width="21" height="21" viewBox="0 0 21 21" fill="none" xmlns="http://www.w3.org/2000/svg">
<path id="Spotify" fill-rule="evenodd" clip-rule="evenodd" d="M16.173 9.42959C13.006 7.5937 7.7111 7.40045 4.69252 8.31839C4.19768 8.46333 3.70283 8.17346 3.55437 7.73864C3.40592 7.25551 3.70283 6.77238 4.14819 6.62744C7.66161 5.61286 13.4513 5.80612 17.1132 7.93189C17.5586 8.17346 17.707 8.75321 17.4596 9.18803C17.2122 9.52622 16.6184 9.67116 16.173 9.42959ZM15.6926 12.665C15.4384 13.0395 14.9808 13.2 14.6249 12.9325C11.8795 11.167 7.7106 10.632 4.50764 11.702C4.10091 11.809 3.64335 11.595 3.54167 11.167C3.43999 10.739 3.64335 10.2575 4.05007 10.1505C7.76144 8.97355 12.3371 9.56205 15.4892 11.595C15.7943 11.7555 15.9468 12.2905 15.6926 12.665ZM14.8619 15.4056C14.6611 15.6982 14.3095 15.7958 14.0083 15.6007C11.6482 14.1864 8.68547 13.8938 5.17042 14.6741C4.81891 14.7716 4.51762 14.5278 4.41719 14.2352C4.31676 13.8938 4.56784 13.6012 4.86913 13.5037C8.68547 12.6746 11.9997 13.016 14.6108 14.5766C14.9623 14.7229 15.0126 15.113 14.8619 15.4056ZM10.1078 0.760132C4.54852 0.760132 0 5.30865 0 10.8679C0 16.4272 4.54852 20.9758 10.1078 20.9758C15.6671 20.9758 20.2156 16.4272 20.2156 10.8679C20.2156 5.30865 15.7177 0.760132 10.1078 0.760132Z" fill="black"/>
</svg>
