<svg width="19" height="15" viewBox="0 0 19 15" fill="none" xmlns="http://www.w3.org/2000/svg">
<path fill-rule="evenodd" clip-rule="evenodd" d="M18.0189 1.86545C18.5592 2.4338 18.7355 3.72443 18.7355 3.72443C18.7355 3.72443 18.9158 5.24042 18.9158 6.75582V8.17698C18.9158 9.69297 18.7355 11.2084 18.7355 11.2084C18.7355 11.2084 18.5592 12.499 18.0189 13.0674C17.4012 13.7397 16.7163 13.8092 16.3291 13.8484C16.2866 13.8527 16.2476 13.8567 16.2127 13.861C13.6898 14.0507 9.90164 14.0565 9.90164 14.0565C9.90164 14.0565 5.21426 14.0121 3.77199 13.8681C3.70366 13.8548 3.62082 13.8445 3.52701 13.8328C3.07016 13.7759 2.35311 13.6865 1.7838 13.0674C1.24351 12.499 1.06773 11.2084 1.06773 11.2084C1.06773 11.2084 0.887451 9.69297 0.887451 8.17698V6.75582C0.887451 5.24042 1.06773 3.72443 1.06773 3.72443C1.06773 3.72443 1.24351 2.4338 1.7838 1.86545C2.40288 1.19216 3.08846 1.12344 3.47563 1.08464C3.51761 1.08043 3.55608 1.07657 3.59058 1.07233C6.11342 0.88269 9.89769 0.88269 9.89769 0.88269H9.90558C9.90558 0.88269 13.6898 0.88269 16.2127 1.07233C16.2472 1.07658 16.2857 1.08044 16.3277 1.08465C16.7146 1.12346 17.4004 1.19227 18.0189 1.86545ZM8.03964 4.63636L8.04021 9.899L12.9107 7.27675L8.03964 4.63636Z" fill="black"/>
</svg>
