<svg width="27" height="15" viewBox="0 0 27 15" fill="none" xmlns="http://www.w3.org/2000/svg">
<path id="Soundcloud" fill-rule="evenodd" clip-rule="evenodd" d="M0 12.271C0 12.6027 0.118231 12.8535 0.354644 13.0235C0.591081 13.1934 0.843808 13.2535 1.11285 13.2038C1.36557 13.154 1.5429 13.0628 1.64484 12.9302C1.74673 12.7975 1.7977 12.5778 1.7977 12.271V8.66434C1.7977 8.40729 1.71007 8.18965 1.53478 8.0114C1.35951 7.83313 1.1455 7.74401 0.892749 7.74401C0.648167 7.74401 0.438243 7.83313 0.262951 8.0114C0.0876586 8.18965 0 8.40729 0 8.66434V12.271ZM2.81269 13.8132C2.81269 14.0537 2.89626 14.234 3.06339 14.3542C3.23053 14.4745 3.44454 14.5346 3.70541 14.5346C3.97445 14.5346 4.19252 14.4744 4.35967 14.3542C4.52679 14.234 4.61037 14.0537 4.61037 13.8132V5.40588C4.61037 5.15714 4.52271 4.94363 4.34744 4.76538C4.17215 4.58714 3.95814 4.49799 3.70541 4.49799C3.46083 4.49799 3.25088 4.58714 3.07562 4.76538C2.90032 4.94365 2.81269 5.15714 2.81269 5.40588V13.8132ZM5.61317 14.2112C5.61317 14.4516 5.69878 14.632 5.86999 14.7522C6.04119 14.8724 6.26132 14.9326 6.53038 14.9326C6.79125 14.9326 7.00526 14.8724 7.17238 14.7522C7.33953 14.632 7.42311 14.4516 7.42311 14.2112V6.53764C7.42311 6.28062 7.33545 6.06088 7.16018 5.87849C6.98489 5.69609 6.77496 5.6049 6.53038 5.6049C6.27763 5.6049 6.06159 5.69609 5.88224 5.87849C5.70289 6.06088 5.6132 6.28062 5.6132 6.53764V14.2112H5.61317ZM8.42585 14.2485C8.42585 14.7046 8.7275 14.9326 9.3308 14.9326C9.93409 14.9326 10.2357 14.7046 10.2357 14.2485V1.81165C10.2357 1.11518 10.0278 0.721356 9.61205 0.630144C9.34301 0.563806 9.07803 0.642581 8.81716 0.866445C8.55626 1.09031 8.42583 1.40536 8.42583 1.81165V14.2485H8.42585ZM11.2875 14.6092V1.07786C11.2875 0.646728 11.4138 0.389707 11.6666 0.306778C12.2128 0.174127 12.755 0.107788 13.293 0.107788C14.5404 0.107788 15.7022 0.406273 16.7783 1.00324C17.8545 1.60021 18.7248 2.41483 19.3892 3.44709C20.0537 4.47937 20.4389 5.61732 20.5449 6.86103C21.0422 6.64545 21.5721 6.53767 22.1346 6.53767C23.276 6.53767 24.2523 6.94809 25.0635 7.76893C25.8747 8.58978 26.2803 9.57643 26.2803 10.7289C26.2803 11.8897 25.8747 12.8805 25.0635 13.7013C24.2523 14.5222 23.2801 14.9326 22.1468 14.9326L11.5075 14.9202C11.4341 14.8953 11.3791 14.8497 11.3424 14.7833C11.3057 14.717 11.2875 14.6589 11.2875 14.6092Z" fill="black"/>
</svg>
