<svg width="18" height="15" viewBox="0 0 18 15" fill="none" xmlns="http://www.w3.org/2000/svg">
<path fill-rule="evenodd" clip-rule="evenodd" d="M8.66856 3.96676L8.70462 4.56134L8.10365 4.48853C5.91613 4.20944 4.00505 3.26297 2.38244 1.67337L1.58916 0.884644L1.38483 1.46709C0.952133 2.76546 1.22858 4.13664 2.13003 5.05884C2.6108 5.56848 2.50263 5.64129 1.67329 5.33793C1.38483 5.24086 1.13242 5.16805 1.10839 5.20445C1.02425 5.28939 1.31271 6.39362 1.54108 6.83045C1.85359 7.43717 2.49061 8.03175 3.18773 8.38364L3.77668 8.66273L3.07956 8.67486C2.40648 8.67486 2.38244 8.687 2.45455 8.94182C2.69494 9.73055 3.64447 10.5678 4.70217 10.9318L5.44737 11.1867L4.79833 11.575C3.83678 12.1331 2.70696 12.4486 1.57714 12.4729C1.03627 12.485 0.591553 12.5336 0.591553 12.57C0.591553 12.6913 2.05791 13.3708 2.91129 13.6378C5.47141 14.4265 8.51231 14.0868 10.796 12.7399C12.4186 11.7812 14.0412 9.87616 14.7984 8.03175C15.2071 7.04887 15.6157 5.25299 15.6157 4.39146C15.6157 3.83328 15.6518 3.76047 16.3249 3.09309C16.7215 2.70479 17.0941 2.28009 17.1662 2.15875C17.2864 1.92819 17.2744 1.92819 16.6614 2.13448C15.6398 2.49851 15.4956 2.44997 16.0004 1.90393C16.373 1.51563 16.8177 0.811838 16.8177 0.605555C16.8177 0.569152 16.6374 0.629824 16.4331 0.739033C16.2167 0.860376 15.7359 1.04239 15.3754 1.1516L14.7263 1.35788L14.1374 0.95745C13.8128 0.739033 13.3561 0.496347 13.1157 0.423541C12.5027 0.253661 11.5652 0.277929 11.0123 0.472078C9.50991 1.01812 8.56039 2.4257 8.66856 3.96676Z" fill="black"/>
</svg>
