<svg width="22" height="25" viewBox="0 0 22 25" fill="none" xmlns="http://www.w3.org/2000/svg">
<path fill-rule="evenodd" clip-rule="evenodd" d="M21.5633 7.02869V10.9354C21.5633 10.9354 20.1337 10.878 19.0725 10.6058C17.5937 10.2238 16.6455 9.63633 16.6455 9.63633C16.6455 9.63633 15.9872 9.21604 15.9381 9.18739V17.2586C15.9381 17.7076 15.8153 18.8299 15.4468 19.7659C14.9653 20.9886 14.2186 21.7957 14.081 21.9581C14.081 21.9581 13.1721 23.047 11.5755 23.7777C10.136 24.4367 8.86848 24.4224 8.49018 24.4367C8.49018 24.4367 6.30396 24.5227 4.3339 23.2285C3.9065 22.9419 3.50854 22.6171 3.14499 22.259L3.15481 22.2685C5.12488 23.5676 7.31109 23.4768 7.31109 23.4768C7.6894 23.4625 8.95692 23.4768 10.3964 22.8177C11.9931 22.087 12.9019 20.9981 12.9019 20.9981C13.0395 20.8357 13.7862 20.0286 14.2677 18.806C14.6362 17.8699 14.759 16.7476 14.759 16.2987V8.23222C14.813 8.26087 15.4664 8.68114 15.4664 8.68114C15.4664 8.68114 16.4146 9.26857 17.8934 9.65064C18.9546 9.92287 20.3842 9.98018 20.3842 9.98018V6.91883C20.8755 7.02869 21.2931 7.05734 21.5633 7.02869ZM16.1641 4.22046C15.2749 3.23184 14.9359 2.22891 14.813 1.52686H15.9332C15.9332 1.52686 15.7121 3.37035 17.3382 5.18041L17.3628 5.20428C16.9206 4.92728 16.5178 4.59298 16.1641 4.22046ZM3.86227 15.9882C4.00473 14.799 4.4862 14.1352 5.39016 13.4522C6.68716 12.5305 8.30349 13.0511 8.30349 13.0511V9.95152C8.69652 9.94197 9.08955 9.96586 9.47768 10.0232V14.011C9.47768 14.011 7.86134 13.4905 6.56435 14.4122C5.66036 15.0951 5.17891 15.759 5.03643 16.9482C5.03153 17.5929 5.14944 18.4383 5.69968 19.1642C5.56212 19.0925 5.42456 19.0114 5.28208 18.9206C4.07842 18.0992 3.85735 16.8622 3.86227 15.9882ZM0.673828 20.9981L0.752421 21.2178C0.742597 21.194 0.713125 21.1175 0.673828 20.9981Z" fill="black"/>
<path fill-rule="evenodd" clip-rule="evenodd" d="M20.2156 6.31043V9.41167C20.2156 9.41167 18.7737 9.3536 17.7034 9.07784C16.2119 8.69079 15.2556 8.09571 15.2556 8.09571C15.2556 8.09571 14.5916 7.66994 14.5421 7.64092V15.8173C14.5421 16.2721 14.4182 17.4091 14.0466 18.3573C13.561 19.5959 12.8079 20.4136 12.6691 20.578C12.6691 20.578 11.7524 21.6811 10.1421 22.4214C8.69023 23.089 7.41185 23.0745 7.0303 23.089C7.0303 23.089 4.82532 23.1761 2.83835 21.865L2.82844 21.8553C2.62032 21.6473 2.42213 21.4296 2.23879 21.2022C1.60454 20.4136 1.21805 19.4846 1.11895 19.2185V19.2137C0.96039 18.7541 0.633369 17.6413 0.677967 16.5721C0.757235 14.6804 1.4113 13.5144 1.58473 13.2241C2.04058 12.4307 2.64014 11.7195 3.34376 11.1244C3.9681 10.6115 4.67667 10.2003 5.43478 9.91484C6.25731 9.57616 7.13931 9.39715 8.0312 9.38265V12.5226C8.0312 12.5226 6.40101 11.9952 5.09289 12.929C4.18116 13.6208 3.69556 14.2933 3.55188 15.498C3.54692 16.3834 3.76989 17.6365 4.98884 18.4735C5.13252 18.5654 5.27126 18.6476 5.41 18.7202C5.62306 19.0008 5.88073 19.2476 6.17804 19.4508C7.37219 20.22 8.36815 20.2732 9.64655 19.7749C10.4988 19.4411 11.138 18.6912 11.4353 17.8542C11.6236 17.3317 11.6186 16.8091 11.6186 16.2673V0.853027H14.5917C14.7155 1.56423 15.0525 2.58024 15.9543 3.58174C16.316 3.95911 16.7223 4.29777 17.1633 4.57838C17.2922 4.71869 17.9611 5.39602 18.8232 5.81694C19.2643 6.03467 19.735 6.19916 20.2156 6.31043Z" fill="black"/>
<path fill-rule="evenodd" clip-rule="evenodd" d="M0.637207 18.9434L0.7103 19.1507C0.700556 19.1266 0.671323 19.0543 0.637207 18.9434Z" fill="black"/>
<path fill-rule="evenodd" clip-rule="evenodd" d="M5.62524 10.447C4.90333 10.7331 4.23767 11.1451 3.64704 11.659C2.9767 12.2553 2.41417 12.9727 1.98292 13.7678C1.81884 14.0587 1.20007 15.2221 1.12508 17.1225C1.08289 18.1987 1.39694 19.3088 1.54227 19.7694V19.7742C1.63602 20.036 2.00166 20.9717 2.60169 21.7618C2.77513 21.9897 2.96263 22.2078 3.15952 22.4163C2.522 21.9606 1.95947 21.4128 1.47665 20.7874C0.881302 20.0069 0.515683 19.081 0.421925 18.8095V18.7998C0.271904 18.3393 -0.0421493 17.2243 0.00471974 16.1481C0.0797304 14.2526 0.698503 13.0842 0.862554 12.7934C1.29383 11.9983 1.85636 11.2809 2.52668 10.6846C3.11733 10.1707 3.78767 9.75864 4.50487 9.47262C4.9549 9.27869 5.42365 9.13812 5.90181 9.04601C6.6237 8.91511 7.35967 8.90542 8.08625 9.01207V9.91377C7.23779 9.92832 6.40338 10.1077 5.62524 10.447Z" fill="black"/>
<path fill-rule="evenodd" clip-rule="evenodd" d="M20.8895 5.75132V6.60747C20.4081 6.49622 19.9366 6.33177 19.4949 6.11409C18.6363 5.69811 17.9662 5.01609 17.8322 4.87583C17.9861 4.97257 18.1399 5.05963 18.3037 5.14185C19.3559 5.64975 20.3833 5.80453 20.8895 5.75132ZM15.2613 1.15132H12.2835V16.562C12.2835 17.1038 12.2835 17.6262 12.0998 18.1486C11.7971 18.9805 11.1568 19.7351 10.3081 20.0689C9.02767 20.5719 8.02512 20.5139 6.83397 19.7448C6.53617 19.5465 6.27811 19.2998 6.0647 19.0192C7.08213 19.5465 7.99037 19.5368 9.11699 19.0966C9.97066 18.7629 10.6109 18.0083 10.9087 17.1763C11.0973 16.6539 11.0923 16.1315 11.0923 15.5898V0.179077H15.2067C15.2018 0.179077 15.1571 0.561191 15.2613 1.15132Z" fill="black"/>
</svg>
