<svg width="26" height="28" viewBox="0 0 26 28" fill="none" xmlns="http://www.w3.org/2000/svg">
<path d="M26 13.1692L25.9698 20.9538C25.9698 21.6308 25.4256 22.1538 24.7605 22.1538C24.0954 22.1538 23.5512 21.6308 23.5512 20.9538L23.5814 13.1692C23.5814 10.3077 22.493 7.63077 20.4977 5.6C18.5023 3.56923 15.8419 2.46154 13.0302 2.46154H13C7.19535 2.46154 2.44884 7.23077 2.4186 13.1077V20.9231C2.4186 21.6 1.87442 22.1538 1.2093 22.1538C0.544186 22.1538 0 21.6 0 20.9231L0.0302252 13.1077C0.0604577 5.87692 5.86511 0 13.0302 0H13.0605C16.5372 0 19.8023 1.38462 22.2209 3.87692C24.6698 6.36923 26 9.66154 26 13.1692ZM10.1581 13.8154C10.3698 14.0308 10.4605 14.2462 10.4605 14.5231L10.4302 26.9846C10.4302 27.5692 9.94651 28 9.37209 28C5.3814 28 4.0814 25.6615 3.93023 24.3692C3.93023 24.3385 3.93023 24.3692 3.93023 24.3077L3.96046 17.2923C3.96046 17.2615 3.96046 17.2308 3.96046 17.1692C4.11162 15.9077 5.44185 13.5077 9.40232 13.5077H9.43254C9.6744 13.5385 9.9465 13.6 10.1581 13.8154ZM8.34418 15.7231C6.43953 16.0308 6.10698 17.1692 6.04651 17.3846L6.01629 24.2462C6.07675 24.4923 6.4093 25.6 8.31395 25.9077L8.34418 15.7231ZM22.1 17.2923L22.1302 24.2769C22.1302 24.3077 22.1302 24.3385 22.1302 24.3692C21.9791 25.6308 20.6791 28 16.6884 28C16.1139 28 15.6302 27.6 15.6302 26.9846L15.6 14.5846C15.6 14.3077 15.7209 14.0308 15.9023 13.8462C16.1139 13.6308 16.3558 13.5385 16.6581 13.5385H16.6884C20.6488 13.5385 21.9791 15.9077 22.1302 17.2C22.1 17.2308 22.1 17.2308 22.1 17.2923ZM20.0139 24.2462L19.9837 17.3846C19.9232 17.1385 19.5907 16.0308 17.686 15.7231L17.7163 25.9077C19.6512 25.5692 19.9535 24.4615 20.0139 24.2462Z" fill="#202020"/>
</svg>
