<svg width="12" height="12" viewBox="0 0 12 12" fill="none" xmlns="http://www.w3.org/2000/svg">
<path d="M4.51996 4.15093L4.51995 4.15092C4.08803 3.80713 3.43572 3.86599 3.08237 4.25723C2.75953 4.61468 2.75917 5.12318 3.08127 5.481L5.51252 8.18182L7.95792 5.47479C8.27965 5.11864 8.28064 4.61231 7.96093 4.25518C7.62954 3.88501 7.01524 3.81852 6.59521 4.13428L4.51996 4.15093ZM4.51996 4.15093C4.64206 4.24811 4.74633 4.33956 4.83461 4.42524L5.49512 5.06632M4.51996 4.15093L5.49512 5.06632M5.49512 5.06632L6.18862 4.46108M5.49512 5.06632L6.18862 4.46108M6.18862 4.46108C6.30225 4.36191 6.43711 4.25313 6.5952 4.13428L6.18862 4.46108Z" stroke="#FF0039" stroke-width="2"/>
</svg>
