<svg width="53" height="53" viewBox="0 0 53 53" fill="none" xmlns="http://www.w3.org/2000/svg">
<path d="M26.3874 32.109C18.7687 32.109 12.3403 33.354 12.3403 38.1587C12.3403 42.9655 18.8102 44.1667 26.3874 44.1667C34.0061 44.1667 40.4345 42.9217 40.4345 38.117C40.4345 33.3102 33.9646 32.109 26.3874 32.109Z" fill="white"/>
<path opacity="0.4" d="M26.3878 27.5314C31.5467 27.5314 35.6833 23.371 35.6833 18.1824C35.6833 12.9918 31.5467 8.83337 26.3878 8.83337C21.2289 8.83337 17.0923 12.9918 17.0923 18.1824C17.0923 23.371 21.2289 27.5314 26.3878 27.5314Z" fill="white" fill-opacity="0.7"/>
<path opacity="0.4" d="M46.5696 20.3592C47.9043 15.109 43.9911 10.3937 39.0082 10.3937C38.4664 10.3937 37.9483 10.4533 37.4421 10.5548C37.3749 10.5707 37.2998 10.6045 37.2602 10.6641C37.2147 10.7397 37.2484 10.8411 37.2978 10.9068C38.7946 13.0188 39.6548 15.5902 39.6548 18.3506C39.6548 20.9956 38.8658 23.4616 37.4817 25.508C37.3393 25.7188 37.4659 26.0032 37.717 26.047C38.065 26.1086 38.4209 26.1404 38.7848 26.1504C42.4132 26.2458 45.6699 23.8971 46.5696 20.3592Z" fill="white" fill-opacity="0.7"/>
<path d="M50.3708 32.7208C49.7064 31.2968 48.1028 30.3204 45.6647 29.8411C44.5139 29.5587 41.3995 29.1609 38.5027 29.2146C38.4592 29.2206 38.4355 29.2504 38.4316 29.2703C38.4256 29.2982 38.4375 29.3459 38.4948 29.3757C39.8335 30.0419 45.0082 32.9395 44.3577 39.0509C44.33 39.3154 44.5416 39.5441 44.8045 39.5043C46.078 39.3214 49.3544 38.6134 50.3708 36.4079C50.9323 35.2425 50.9323 33.8881 50.3708 32.7208Z" fill="white"/>
<path opacity="0.4" d="M15.5576 10.5554C15.0533 10.452 14.5333 10.3943 13.9915 10.3943C9.00857 10.3943 5.0954 15.1096 6.43209 20.3598C7.32981 23.8978 10.5865 26.2464 14.2149 26.151C14.5788 26.141 14.9367 26.1072 15.2827 26.0476C15.5338 26.0038 15.6604 25.7194 15.518 25.5086C14.1339 23.4602 13.3449 20.9962 13.3449 18.3512C13.3449 15.5888 14.207 13.0174 15.7039 10.9074C15.7513 10.8418 15.7869 10.7403 15.7395 10.6648C15.6999 10.6031 15.6268 10.5713 15.5576 10.5554Z" fill="white" fill-opacity="0.7"/>
<path d="M7.33526 29.8405C4.89719 30.3198 3.29554 31.2963 2.63115 32.7202C2.06761 33.8876 2.06761 35.2419 2.63115 36.4093C3.64751 38.6128 6.92398 39.3228 8.19739 39.5038C8.46038 39.5435 8.66997 39.3168 8.64229 39.0503C7.99174 32.941 13.1665 30.0434 14.5071 29.3772C14.5625 29.3454 14.5743 29.2996 14.5684 29.2698C14.5644 29.2499 14.5427 29.2201 14.4992 29.2161C11.6004 29.1604 8.48806 29.5581 7.33526 29.8405Z" fill="white"/>
</svg>
