<svg width="32" height="42" viewBox="0 0 32 42" fill="none" xmlns="http://www.w3.org/2000/svg">
<path fill-rule="evenodd" clip-rule="evenodd" d="M15.7895 41.277C17.9605 41.277 19.7368 39.4107 19.7368 37.1298H11.8421C11.8421 39.4107 13.5987 41.277 15.7895 41.277ZM27.6316 28.8355V18.4676C27.6316 12.1017 24.3947 6.7726 18.75 5.36256V3.95253C18.75 2.23146 17.4276 0.842163 15.7895 0.842163C14.1513 0.842163 12.8289 2.23146 12.8289 3.95253V5.36256C7.16447 6.7726 3.94737 12.081 3.94737 18.4676V28.8355L0 32.9826V35.0562H31.5789V32.9826L27.6316 28.8355Z" fill="#525862"/>
<mask id="mask0" style="mask-type:alpha" maskUnits="userSpaceOnUse" x="0" y="0" width="32" height="42">
<path fill-rule="evenodd" clip-rule="evenodd" d="M15.7895 41.277C17.9605 41.277 19.7368 39.4107 19.7368 37.1298H11.8421C11.8421 39.4107 13.5987 41.277 15.7895 41.277ZM27.6316 28.8355V18.4676C27.6316 12.1017 24.3947 6.7726 18.75 5.36256V3.95253C18.75 2.23146 17.4276 0.842163 15.7895 0.842163C14.1513 0.842163 12.8289 2.23146 12.8289 3.95253V5.36256C7.16447 6.7726 3.94737 12.081 3.94737 18.4676V28.8355L0 32.9826V35.0562H31.5789V32.9826L27.6316 28.8355Z" fill="white"/>
</mask>
<g mask="url(#mask0)">
</g>
</svg>
