<svg width="24" height="24" viewBox="0 0 24 24" fill="none" xmlns="http://www.w3.org/2000/svg">
<mask id="path-1-inside-1" fill="white">
<path fill-rule="evenodd" clip-rule="evenodd" d="M14.8978 8.66914L12.9831 9.62651C12.5459 9.12474 12.2318 8.51288 12.0879 7.83801L14.0035 6.8802C14.0655 5.83141 14.9357 5 16 5C17.1046 5 18 5.89543 18 7C18 8.10457 17.1046 9 16 9C15.5927 9 15.2138 8.87824 14.8978 8.66914ZM12.0879 7.83801L9.01694 9.3735C8.28363 8.53189 7.20393 8 6 8C3.79086 8 2 9.79086 2 12C2 14.2091 3.79086 16 6 16C7.19499 16 8.2676 15.476 9.00055 14.6452L12.0784 16.2081C12.027 16.4641 12 16.7289 12 17C12 19.2091 13.7909 21 16 21C18.2091 21 20 19.2091 20 17C20 14.7909 18.2091 13 16 13C14.7793 13 13.6863 13.5468 12.9526 14.4089L9.90682 12.8623C9.96784 12.5846 10 12.296 10 12C10 11.7126 9.96968 11.4322 9.91208 11.162L12.9831 9.62651C13.7164 10.4681 14.7961 11 16 11C18.2091 11 20 9.20914 20 7C20 4.79086 18.2091 3 16 3C13.7909 3 12 4.79086 12 7C12 7.28742 12.0303 7.56777 12.0879 7.83801ZM6 10C6.40731 10 6.78618 10.1218 7.10221 10.3309C7.64319 10.6888 8 11.3027 8 12C8 12.7017 7.63862 13.319 7.09183 13.676C6.7779 13.8809 6.40286 14 6 14C4.93146 14 4.05864 13.162 4.00283 12.1074C4.00095 12.0718 4 12.036 4 12C4 11.9598 4.00119 11.9198 4.00353 11.8802C4.06549 10.8314 4.93565 10 6 10ZM14.0087 17.1883C14.003 17.1263 14 17.0635 14 17C14 16.3267 14.3327 15.7311 14.8427 15.3687C15.1693 15.1365 15.5687 15 16 15C17.1046 15 18 15.8954 18 17C18 18.1046 17.1046 19 16 19C14.9589 19 14.1037 18.2046 14.0087 17.1883Z"/>
</mask>
<path d="M14.8978 8.66914L16.0014 7.0012L15.0373 6.3633L14.0034 6.88028L14.8978 8.66914ZM14.0035 6.8802L14.898 8.66906L15.9319 8.1521L16 6.99815L14.0035 6.8802ZM9.01694 9.3735L7.50904 10.6874L8.52632 11.8549L9.91137 11.1623L9.01694 9.3735ZM9.00055 14.6452L9.90608 12.8619L8.52531 12.1608L7.5008 13.322L9.00055 14.6452ZM12.0784 16.2081L14.0392 16.6019L14.3383 15.1126L12.9839 14.4248L12.0784 16.2081ZM12.9526 14.4089L12.047 16.1922L13.4534 16.9063L14.4756 15.7052L12.9526 14.4089ZM9.90682 12.8623L7.95341 12.4331L7.62126 13.9448L9.00129 14.6456L9.90682 12.8623ZM9.91208 11.162L9.01765 9.37314L7.63335 10.0653L7.95603 11.579L9.91208 11.162ZM7.10221 10.3309L8.20584 8.66293L8.20584 8.66293L7.10221 10.3309ZM7.09183 13.676L8.18509 15.3507L8.18509 15.3507L7.09183 13.676ZM4.00283 12.1074L6.00004 12.0017V12.0017L4.00283 12.1074ZM4.00353 11.8802L6.00005 11.9982V11.9981L4.00353 11.8802ZM14.0087 17.1883L16.0001 17.0023L16.0001 17.0023L14.0087 17.1883ZM14.8427 15.3687L16.0013 16.9989H16.0013L14.8427 15.3687ZM13.8775 11.4154L15.7922 10.458L14.0034 6.88028L12.0886 7.83765L13.8775 11.4154ZM14.491 8.31264C14.2709 8.06011 14.1152 7.75499 14.044 7.42103L10.1319 8.25498C10.3484 9.27076 10.8208 10.1894 11.4752 10.9404L14.491 8.31264ZM13.1091 5.09135L11.1935 6.04915L12.9823 9.62686L14.898 8.66906L13.1091 5.09135ZM16 3C13.8706 3 12.131 4.66284 12.007 6.76225L16 6.99815C16.0001 6.99711 16.0002 6.99741 15.9999 6.99853C15.9996 6.99956 15.9993 7.00045 15.999 7.00104C15.9986 7.00193 15.9988 7.00111 16.0002 6.99976C16.0016 6.99846 16.002 6.99861 16.0004 6.99925C15.9996 6.99961 15.9986 6.99989 15.9978 7.00005C15.9969 7.00022 15.9974 7 16 7V3ZM20 7C20 4.79086 18.2091 3 16 3V7H20ZM16 11C18.2091 11 20 9.20914 20 7H16V11ZM13.7942 10.3371C14.4274 10.7561 15.1883 11 16 11V7C15.998 7 15.9972 6.99986 15.9975 6.9999C15.9977 6.99994 15.9984 7.00006 15.9992 7.0003C16.0009 7.00083 16.0016 7.00135 16.0014 7.0012L13.7942 10.3371ZM11.1935 6.04915L8.12251 7.58464L9.91137 11.1623L12.9823 9.62686L11.1935 6.04915ZM10.5248 8.05963C9.42786 6.80065 7.80626 6 6 6V10C6.6016 10 7.1394 10.2631 7.50904 10.6874L10.5248 8.05963ZM6 6C2.68629 6 0 8.68629 0 12H4C4 10.8954 4.89543 10 6 10V6ZM0 12C0 15.3137 2.68629 18 6 18V14C4.89543 14 4 13.1046 4 12H0ZM6 18C7.79277 18 9.4038 17.2112 10.5003 15.9684L7.5008 13.322C7.13139 13.7408 6.59721 14 6 14V18ZM8.09503 16.4285L11.1729 17.9914L12.9839 14.4248L9.90608 12.8619L8.09503 16.4285ZM10.1175 15.8143C10.0402 16.1992 10 16.5959 10 17H14C14 16.8619 14.0137 16.7289 14.0392 16.6019L10.1175 15.8143ZM10 17C10 20.3137 12.6863 23 16 23V19C14.8954 19 14 18.1046 14 17H10ZM16 23C19.3137 23 22 20.3137 22 17H18C18 18.1046 17.1046 19 16 19V23ZM22 17C22 13.6863 19.3137 11 16 11V15C17.1046 15 18 15.8954 18 17H22ZM16 11C14.1684 11 12.527 11.8232 11.4295 13.1127L14.4756 15.7052C14.8456 15.2705 15.3902 15 16 15V11ZM13.8581 12.6256L10.8123 11.079L9.00129 14.6456L12.047 16.1922L13.8581 12.6256ZM11.8602 13.2915C11.952 12.8737 12 12.4413 12 12H8C8 12.1508 7.98366 12.2954 7.95341 12.4331L11.8602 13.2915ZM12 12C12 11.5716 11.9548 11.1515 11.8681 10.745L7.95603 11.579C7.98459 11.713 8 11.8536 8 12H12ZM10.8065 12.9508L13.8775 11.4154L12.0886 7.83765L9.01765 9.37314L10.8065 12.9508ZM16 9C15.3984 9 14.8606 8.73687 14.491 8.31264L11.4752 10.9404C12.5721 12.1994 14.1937 13 16 13V9ZM18 7C18 8.10457 17.1046 9 16 9V13C19.3137 13 22 10.3137 22 7H18ZM16 5C17.1046 5 18 5.89543 18 7H22C22 3.68629 19.3137 1 16 1V5ZM14 7C14 5.89543 14.8954 5 16 5V1C12.6863 1 10 3.68629 10 7H14ZM14.044 7.42103C14.0154 7.28702 14 7.14642 14 7H10C10 7.42842 10.0452 7.84851 10.1319 8.25498L14.044 7.42103ZM8.20584 8.66293C7.57259 8.24393 6.81174 8 6 8V12C6.00204 12 6.00278 12.0001 6.0025 12.0001C6.00225 12.0001 6.00163 11.9999 6.00082 11.9997C5.99911 11.9992 5.99835 11.9986 5.99858 11.9988L8.20584 8.66293ZM5.99858 11.9988C5.99889 11.999 5.99959 11.9995 6.00035 12.0004C6.00109 12.0012 6.00132 12.0016 6.00119 12.0014C6.00098 12.001 6.0005 12 6.00013 11.9986C5.99968 11.9968 6 11.9969 6 12H10C10 10.6035 9.28274 9.37549 8.20584 8.66293L5.99858 11.9988ZM6 12C6 12.0031 5.99968 12.0032 6.00013 12.0014C6.00051 12 6.00099 11.999 6.0012 11.9986C6.00131 11.9984 6.00107 11.9989 6.00031 11.9997C5.99954 12.0005 5.99884 12.001 5.99856 12.0012L8.18509 15.3507C9.27358 14.6401 10 13.4054 10 12H6ZM5.99856 12.0012C5.99839 12.0013 5.99917 12.0008 6.00087 12.0003C6.00167 12 6.00228 11.9999 6.00251 11.9999C6.00277 11.9999 6.00202 12 6 12V16C6.80279 16 7.55594 15.7614 8.18509 15.3507L5.99856 12.0012ZM6 12C5.99744 12 5.99691 11.9998 5.99781 12C5.99861 12.0001 5.99959 12.0004 6.00046 12.0008C6.00202 12.0014 6.0016 12.0015 6.00022 12.0002C5.99878 11.9988 5.99856 11.998 5.99901 11.999C5.9993 11.9996 5.99964 12.0005 5.9999 12.0015C6.00018 12.0027 6.0001 12.0029 6.00004 12.0017L2.00563 12.2131C2.11732 14.3241 3.86229 16 6 16V12ZM6.00004 12.0017C6.00002 12.0013 6 12.0008 6 12H2C2 12.0713 2.00189 12.1423 2.00563 12.2131L6.00004 12.0017ZM6 12C6 11.9991 6.00002 11.9985 6.00005 11.9982L2.00701 11.7622C2.00235 11.8411 2 11.9204 2 12H6ZM6 8C3.8706 8 2.13104 9.66284 2.00701 11.7623L6.00005 11.9981C6.00011 11.9971 6.00017 11.9974 5.99988 11.9985C5.99961 11.9996 5.99927 12.0004 5.99899 12.001C5.99856 12.0019 5.99882 12.0011 6.00025 11.9998C6.00162 11.9985 6.00202 11.9986 6.00044 11.9992C5.99957 11.9996 5.9986 11.9999 5.99781 12C5.99692 12.0002 5.99745 12 6 12V8ZM12 17C12 17.1257 12.0059 17.2506 12.0174 17.3743L16.0001 17.0023C16.0001 17.0021 16 17.0013 16 17H12ZM13.684 13.7385C12.6689 14.46 12 15.6518 12 17H16C16 16.997 16.0003 16.9968 15.9999 16.9984C15.9996 16.9998 15.9991 17.0008 15.9988 17.0013C15.9987 17.0017 15.9988 17.0013 15.9995 17.0006C16.0001 16.9998 16.0008 16.9992 16.0013 16.9989L13.684 13.7385ZM16 13C15.14 13 14.338 13.2737 13.684 13.7385L16.0013 16.9989C16.0018 16.9985 16.0012 16.999 15.9994 16.9996C15.9986 16.9999 15.9979 17 15.9975 17.0001C15.9971 17.0002 15.9979 17 16 17V13ZM20 17C20 14.7909 18.2091 13 16 13V17H20ZM16 21C18.2091 21 20 19.2091 20 17H16V21ZM12.0174 17.3743C12.2074 19.4089 13.9167 21 16 21V17C15.9975 17 15.9969 16.9998 15.9978 16.9999C15.9985 17.0001 15.9995 17.0004 16.0003 17.0007C16.002 17.0014 16.0017 17.0016 16.0004 17.0004C15.999 16.9991 15.9986 16.9982 15.9989 16.9988C15.9991 16.9992 15.9995 17 15.9998 17.001C16.0001 17.0022 16.0001 17.0027 16.0001 17.0023L12.0174 17.3743Z" fill="#FF0039" mask="url(#path-1-inside-1)"/>
<mask id="mask0" style="mask-type:alpha" maskUnits="userSpaceOnUse" x="2" y="3" width="18" height="18">
<mask id="path-3-inside-2" fill="white">
<path fill-rule="evenodd" clip-rule="evenodd" d="M14.8978 8.66914L12.9831 9.62651C12.5459 9.12474 12.2318 8.51288 12.0879 7.83801L14.0035 6.8802C14.0655 5.83141 14.9357 5 16 5C17.1046 5 18 5.89543 18 7C18 8.10457 17.1046 9 16 9C15.5927 9 15.2138 8.87824 14.8978 8.66914ZM12.0879 7.83801L9.01694 9.3735C8.28363 8.53189 7.20393 8 6 8C3.79086 8 2 9.79086 2 12C2 14.2091 3.79086 16 6 16C7.19499 16 8.2676 15.476 9.00055 14.6452L12.0784 16.2081C12.027 16.4641 12 16.7289 12 17C12 19.2091 13.7909 21 16 21C18.2091 21 20 19.2091 20 17C20 14.7909 18.2091 13 16 13C14.7793 13 13.6863 13.5468 12.9526 14.4089L9.90682 12.8623C9.96784 12.5846 10 12.296 10 12C10 11.7126 9.96968 11.4322 9.91208 11.162L12.9831 9.62651C13.7164 10.4681 14.7961 11 16 11C18.2091 11 20 9.20914 20 7C20 4.79086 18.2091 3 16 3C13.7909 3 12 4.79086 12 7C12 7.28742 12.0303 7.56777 12.0879 7.83801ZM6 10C6.40731 10 6.78618 10.1218 7.10221 10.3309C7.64319 10.6888 8 11.3027 8 12C8 12.7017 7.63862 13.319 7.09183 13.676C6.7779 13.8809 6.40286 14 6 14C4.93146 14 4.05864 13.162 4.00283 12.1074C4.00095 12.0718 4 12.036 4 12C4 11.9598 4.00119 11.9198 4.00353 11.8802C4.06549 10.8314 4.93565 10 6 10ZM14.0087 17.1883C14.003 17.1263 14 17.0635 14 17C14 16.3267 14.3327 15.7311 14.8427 15.3687C15.1693 15.1365 15.5687 15 16 15C17.1046 15 18 15.8954 18 17C18 18.1046 17.1046 19 16 19C14.9589 19 14.1037 18.2046 14.0087 17.1883Z"/>
</mask>
<path d="M14.8978 8.66914L16.0014 7.0012L15.0373 6.3633L14.0034 6.88028L14.8978 8.66914ZM14.0035 6.8802L14.898 8.66906L15.9319 8.1521L16 6.99815L14.0035 6.8802ZM9.01694 9.3735L7.50904 10.6874L8.52632 11.8549L9.91137 11.1623L9.01694 9.3735ZM9.00055 14.6452L9.90608 12.8619L8.52531 12.1608L7.5008 13.322L9.00055 14.6452ZM12.0784 16.2081L14.0392 16.6019L14.3383 15.1126L12.9839 14.4248L12.0784 16.2081ZM12.9526 14.4089L12.047 16.1922L13.4534 16.9063L14.4756 15.7052L12.9526 14.4089ZM9.90682 12.8623L7.95341 12.4331L7.62126 13.9448L9.00129 14.6456L9.90682 12.8623ZM9.91208 11.162L9.01765 9.37314L7.63335 10.0653L7.95603 11.579L9.91208 11.162ZM7.10221 10.3309L8.20584 8.66293L8.20584 8.66293L7.10221 10.3309ZM7.09183 13.676L8.18509 15.3507L8.18509 15.3507L7.09183 13.676ZM4.00283 12.1074L6.00004 12.0017V12.0017L4.00283 12.1074ZM4.00353 11.8802L6.00005 11.9982V11.9981L4.00353 11.8802ZM14.0087 17.1883L16.0001 17.0023L16.0001 17.0023L14.0087 17.1883ZM14.8427 15.3687L16.0013 16.9989H16.0013L14.8427 15.3687ZM13.8775 11.4154L15.7922 10.458L14.0034 6.88028L12.0886 7.83765L13.8775 11.4154ZM14.491 8.31264C14.2709 8.06011 14.1152 7.75499 14.044 7.42103L10.1319 8.25498C10.3484 9.27076 10.8208 10.1894 11.4752 10.9404L14.491 8.31264ZM13.1091 5.09135L11.1935 6.04915L12.9823 9.62686L14.898 8.66906L13.1091 5.09135ZM16 3C13.8706 3 12.131 4.66284 12.007 6.76225L16 6.99815C16.0001 6.99711 16.0002 6.99741 15.9999 6.99853C15.9996 6.99956 15.9993 7.00045 15.999 7.00104C15.9986 7.00193 15.9988 7.00111 16.0002 6.99976C16.0016 6.99846 16.002 6.99861 16.0004 6.99925C15.9996 6.99961 15.9986 6.99989 15.9978 7.00005C15.9969 7.00022 15.9974 7 16 7V3ZM20 7C20 4.79086 18.2091 3 16 3V7H20ZM16 11C18.2091 11 20 9.20914 20 7H16V11ZM13.7942 10.3371C14.4274 10.7561 15.1883 11 16 11V7C15.998 7 15.9972 6.99986 15.9975 6.9999C15.9977 6.99994 15.9984 7.00006 15.9992 7.0003C16.0009 7.00083 16.0016 7.00135 16.0014 7.0012L13.7942 10.3371ZM11.1935 6.04915L8.12251 7.58464L9.91137 11.1623L12.9823 9.62686L11.1935 6.04915ZM10.5248 8.05963C9.42786 6.80065 7.80626 6 6 6V10C6.6016 10 7.1394 10.2631 7.50904 10.6874L10.5248 8.05963ZM6 6C2.68629 6 0 8.68629 0 12H4C4 10.8954 4.89543 10 6 10V6ZM0 12C0 15.3137 2.68629 18 6 18V14C4.89543 14 4 13.1046 4 12H0ZM6 18C7.79277 18 9.4038 17.2112 10.5003 15.9684L7.5008 13.322C7.13139 13.7408 6.59721 14 6 14V18ZM8.09503 16.4285L11.1729 17.9914L12.9839 14.4248L9.90608 12.8619L8.09503 16.4285ZM10.1175 15.8143C10.0402 16.1992 10 16.5959 10 17H14C14 16.8619 14.0137 16.7289 14.0392 16.6019L10.1175 15.8143ZM10 17C10 20.3137 12.6863 23 16 23V19C14.8954 19 14 18.1046 14 17H10ZM16 23C19.3137 23 22 20.3137 22 17H18C18 18.1046 17.1046 19 16 19V23ZM22 17C22 13.6863 19.3137 11 16 11V15C17.1046 15 18 15.8954 18 17H22ZM16 11C14.1684 11 12.527 11.8232 11.4295 13.1127L14.4756 15.7052C14.8456 15.2705 15.3902 15 16 15V11ZM13.8581 12.6256L10.8123 11.079L9.00129 14.6456L12.047 16.1922L13.8581 12.6256ZM11.8602 13.2915C11.952 12.8737 12 12.4413 12 12H8C8 12.1508 7.98366 12.2954 7.95341 12.4331L11.8602 13.2915ZM12 12C12 11.5716 11.9548 11.1515 11.8681 10.745L7.95603 11.579C7.98459 11.713 8 11.8536 8 12H12ZM10.8065 12.9508L13.8775 11.4154L12.0886 7.83765L9.01765 9.37314L10.8065 12.9508ZM16 9C15.3984 9 14.8606 8.73687 14.491 8.31264L11.4752 10.9404C12.5721 12.1994 14.1937 13 16 13V9ZM18 7C18 8.10457 17.1046 9 16 9V13C19.3137 13 22 10.3137 22 7H18ZM16 5C17.1046 5 18 5.89543 18 7H22C22 3.68629 19.3137 1 16 1V5ZM14 7C14 5.89543 14.8954 5 16 5V1C12.6863 1 10 3.68629 10 7H14ZM14.044 7.42103C14.0154 7.28702 14 7.14642 14 7H10C10 7.42842 10.0452 7.84851 10.1319 8.25498L14.044 7.42103ZM8.20584 8.66293C7.57259 8.24393 6.81174 8 6 8V12C6.00204 12 6.00278 12.0001 6.0025 12.0001C6.00225 12.0001 6.00163 11.9999 6.00082 11.9997C5.99911 11.9992 5.99835 11.9986 5.99858 11.9988L8.20584 8.66293ZM5.99858 11.9988C5.99889 11.999 5.99959 11.9995 6.00035 12.0004C6.00109 12.0012 6.00132 12.0016 6.00119 12.0014C6.00098 12.001 6.0005 12 6.00013 11.9986C5.99968 11.9968 6 11.9969 6 12H10C10 10.6035 9.28274 9.37549 8.20584 8.66293L5.99858 11.9988ZM6 12C6 12.0031 5.99968 12.0032 6.00013 12.0014C6.00051 12 6.00099 11.999 6.0012 11.9986C6.00131 11.9984 6.00107 11.9989 6.00031 11.9997C5.99954 12.0005 5.99884 12.001 5.99856 12.0012L8.18509 15.3507C9.27358 14.6401 10 13.4054 10 12H6ZM5.99856 12.0012C5.99839 12.0013 5.99917 12.0008 6.00087 12.0003C6.00167 12 6.00228 11.9999 6.00251 11.9999C6.00277 11.9999 6.00202 12 6 12V16C6.80279 16 7.55594 15.7614 8.18509 15.3507L5.99856 12.0012ZM6 12C5.99744 12 5.99691 11.9998 5.99781 12C5.99861 12.0001 5.99959 12.0004 6.00046 12.0008C6.00202 12.0014 6.0016 12.0015 6.00022 12.0002C5.99878 11.9988 5.99856 11.998 5.99901 11.999C5.9993 11.9996 5.99964 12.0005 5.9999 12.0015C6.00018 12.0027 6.0001 12.0029 6.00004 12.0017L2.00563 12.2131C2.11732 14.3241 3.86229 16 6 16V12ZM6.00004 12.0017C6.00002 12.0013 6 12.0008 6 12H2C2 12.0713 2.00189 12.1423 2.00563 12.2131L6.00004 12.0017ZM6 12C6 11.9991 6.00002 11.9985 6.00005 11.9982L2.00701 11.7622C2.00235 11.8411 2 11.9204 2 12H6ZM6 8C3.8706 8 2.13104 9.66284 2.00701 11.7623L6.00005 11.9981C6.00011 11.9971 6.00017 11.9974 5.99988 11.9985C5.99961 11.9996 5.99927 12.0004 5.99899 12.001C5.99856 12.0019 5.99882 12.0011 6.00025 11.9998C6.00162 11.9985 6.00202 11.9986 6.00044 11.9992C5.99957 11.9996 5.9986 11.9999 5.99781 12C5.99692 12.0002 5.99745 12 6 12V8ZM12 17C12 17.1257 12.0059 17.2506 12.0174 17.3743L16.0001 17.0023C16.0001 17.0021 16 17.0013 16 17H12ZM13.684 13.7385C12.6689 14.46 12 15.6518 12 17H16C16 16.997 16.0003 16.9968 15.9999 16.9984C15.9996 16.9998 15.9991 17.0008 15.9988 17.0013C15.9987 17.0017 15.9988 17.0013 15.9995 17.0006C16.0001 16.9998 16.0008 16.9992 16.0013 16.9989L13.684 13.7385ZM16 13C15.14 13 14.338 13.2737 13.684 13.7385L16.0013 16.9989C16.0018 16.9985 16.0012 16.999 15.9994 16.9996C15.9986 16.9999 15.9979 17 15.9975 17.0001C15.9971 17.0002 15.9979 17 16 17V13ZM20 17C20 14.7909 18.2091 13 16 13V17H20ZM16 21C18.2091 21 20 19.2091 20 17H16V21ZM12.0174 17.3743C12.2074 19.4089 13.9167 21 16 21V17C15.9975 17 15.9969 16.9998 15.9978 16.9999C15.9985 17.0001 15.9995 17.0004 16.0003 17.0007C16.002 17.0014 16.0017 17.0016 16.0004 17.0004C15.999 16.9991 15.9986 16.9982 15.9989 16.9988C15.9991 16.9992 15.9995 17 15.9998 17.001C16.0001 17.0022 16.0001 17.0027 16.0001 17.0023L12.0174 17.3743Z" fill="white" mask="url(#path-3-inside-2)"/>
</mask>
<g mask="url(#mask0)">
</g>
</svg>
