<svg width="50" height="53" viewBox="0 0 50 53" fill="none" xmlns="http://www.w3.org/2000/svg">
<path d="M25.0318 33.7632C20.8095 33.7632 17.394 30.4737 17.394 26.3421C17.394 22.2106 20.8095 18.8948 25.0318 18.8948C29.2541 18.8948 32.5889 22.2106 32.5889 26.3421C32.5889 30.4737 29.2541 33.7632 25.0318 33.7632Z" fill="white"/>
<path opacity="0.4" d="M49.2898 32.5526C48.7788 31.7632 48.0527 30.9737 47.1114 30.4737C46.3584 30.1053 45.8743 29.5 45.444 28.7895C44.0725 26.5263 44.8793 23.5526 47.1652 22.2105C49.8546 20.7105 50.7152 17.3684 49.1553 14.7632L47.3535 11.6579C45.8205 9.05263 42.4588 8.13158 39.7964 9.65789C37.4297 10.9211 34.3908 10.0789 33.0192 7.8421C32.5889 7.10526 32.3468 6.31579 32.4006 5.52632C32.4813 4.5 32.1586 3.52632 31.6745 2.73684C30.6794 1.10526 28.8776 0 26.8874 0H23.0954C21.1322 0.0526316 19.3303 1.10526 18.3353 2.73684C17.8243 3.52632 17.5285 4.5 17.5822 5.52632C17.636 6.31579 17.394 7.10526 16.9637 7.8421C15.5921 10.0789 12.5531 10.9211 10.2134 9.65789C7.52403 8.13158 4.18923 9.05263 2.6294 11.6579L0.827524 14.7632C-0.705413 17.3684 0.155183 20.7105 2.81765 22.2105C5.10361 23.5526 5.91042 26.5263 4.56574 28.7895C4.10854 29.5 3.62446 30.1053 2.87144 30.4737C1.95706 30.9737 1.15025 31.7632 0.719949 32.5526C-0.275115 34.1842 -0.221327 36.2368 0.773736 37.9474L2.6294 41.1053C3.62446 42.7895 5.48012 43.8421 7.41646 43.8421C8.33084 43.8421 9.40659 43.5789 10.2672 43.0526C10.9395 42.6053 11.7463 42.4474 12.6338 42.4474C15.2963 42.4474 17.5285 44.6316 17.5822 47.2368C17.5822 50.2632 20.0565 52.6316 23.1761 52.6316H26.8336C29.9264 52.6316 32.4006 50.2632 32.4006 47.2368C32.4813 44.6316 34.7135 42.4474 37.3759 42.4474C38.2365 42.4474 39.0434 42.6053 39.7426 43.0526C40.6032 43.5789 41.652 43.8421 42.5933 43.8421C44.5028 43.8421 46.3584 42.7895 47.3535 41.1053L49.236 37.9474C50.2042 36.1842 50.2849 34.1842 49.2898 32.5526Z" fill="white" fill-opacity="0.7"/>
</svg>
