<svg width="50" height="50" viewBox="0 0 50 50" fill="none" xmlns="http://www.w3.org/2000/svg">
<path opacity="0.4" d="M25.05 0C10.525 0 0 11.85 0 25C0 29.2 1.225 33.525 3.375 37.475C3.775 38.125 3.825 38.95 3.55 39.725L1.875 45.325C1.5 46.675 2.65 47.675 3.925 47.275L8.975 45.775C10.35 45.325 11.425 45.9 12.7025 46.675C16.3525 48.825 20.9 49.925 25 49.925C37.4 49.925 50 40.35 50 24.925C50 11.625 39.25 0 25.05 0Z" fill="white" fill-opacity="0.7"/>
<path fill-rule="evenodd" clip-rule="evenodd" d="M24.9511 28.2253C23.1761 28.2003 21.7511 26.7753 21.7511 25.0003C21.7511 23.2503 23.2011 21.8003 24.9511 21.8253C26.7261 21.8253 28.1511 23.2503 28.1511 25.0253C28.1511 26.7753 26.7261 28.2253 24.9511 28.2253ZM13.4251 28.2251C11.6751 28.2251 10.2251 26.7751 10.2251 25.0251C10.2251 23.2501 11.6501 21.8251 13.4251 21.8251C15.2001 21.8251 16.6251 23.2501 16.6251 25.0251C16.6251 26.7751 15.2001 28.2001 13.4251 28.2251ZM33.2756 25.0253C33.2756 26.7753 34.7006 28.2253 36.4756 28.2253C38.2506 28.2253 39.6756 26.7753 39.6756 25.0253C39.6756 23.2503 38.2506 21.8253 36.4756 21.8253C34.7006 21.8253 33.2756 23.2503 33.2756 25.0253Z" fill="white" fill-opacity="0.7"/>
</svg>
