<svg width="50" height="50" viewBox="0 0 50 50" fill="none" xmlns="http://www.w3.org/2000/svg">
<path fill-rule="evenodd" clip-rule="evenodd" d="M12.5002 8.33337V41.6667H37.5002V8.33337H12.5002ZM35.4168 39.5834H14.5835V10.4167H35.4168V39.5834ZM41.6668 14.5834H43.7502V35.4167H41.6668V14.5834ZM6.25016 35.4167H8.3335V14.5834H6.25016V35.4167ZM4.16683 31.25H2.0835V18.75H4.16683V31.25ZM45.8335 31.25H47.9168V18.75H45.8335V31.25Z" fill="white"/>
<mask id="mask0" style="mask-type:alpha" maskUnits="userSpaceOnUse" x="2" y="8" width="46" height="34">
<path fill-rule="evenodd" clip-rule="evenodd" d="M12.5002 8.33337V41.6667H37.5002V8.33337H12.5002ZM35.4168 39.5834H14.5835V10.4167H35.4168V39.5834ZM41.6668 14.5834H43.7502V35.4167H41.6668V14.5834ZM6.25016 35.4167H8.3335V14.5834H6.25016V35.4167ZM4.16683 31.25H2.0835V18.75H4.16683V31.25ZM45.8335 31.25H47.9168V18.75H45.8335V31.25Z" fill="white"/>
</mask>
<g mask="url(#mask0)">
</g>
</svg>
