<svg width="39" height="38" viewBox="0 0 39 38" fill="none" xmlns="http://www.w3.org/2000/svg">
<g clip-path="url(#clip0_1108_5746)">
<path d="M36.4027 38.0001C37.5608 38.0001 38.5 37.0611 38.5 35.9029V2.09727C38.5 0.938867 37.5608 0 36.4027 0H2.59727C1.43872 0 0.5 0.938867 0.5 2.09727V35.9029C0.5 37.0611 1.43872 38.0001 2.59727 38.0001H36.4027Z" fill="#395185"/>
<path d="M26.7191 38.0001V23.2844H31.6587L32.3982 17.5495H26.7191V13.8879C26.7191 12.2275 27.1803 11.0959 29.5614 11.0959L32.5983 11.0946V5.96533C32.0728 5.89541 30.2702 5.73926 28.1731 5.73926C23.7944 5.73926 20.7969 8.41187 20.7969 13.3201V17.5495H15.8447V23.2844H20.7969V38.0001H26.7191Z" fill="white"/>
</g>
<defs>
<clipPath id="clip0_1108_5746">
<rect width="38" height="38" fill="white" transform="translate(0.5)"/>
</clipPath>
</defs>
</svg>
