<svg width="22229" height="5172" viewBox="0 0 22229 5172" fill="none" xmlns="http://www.w3.org/2000/svg">
<path d="M6987.51 91.203C6952.43 21.0467 6938.4 0 6847.2 0H6826.15C6748.98 0 6713.9 21.0467 6678.82 91.203L4588.16 4861.84C4574.13 4882.89 4574.13 4903.93 4574.13 4924.98C4574.13 4988.12 4630.25 5030.21 4707.43 5030.21H8951.89C9029.06 5030.21 9071.16 5002.15 9071.16 4946.03C9071.16 4924.98 9071.16 4910.95 9050.11 4861.84C9050.11 4854.82 6987.51 91.203 6987.51 91.203ZM6833.17 1094.44L8250.33 4433.89H5408.99L6833.17 1094.44Z" fill="black"/>
<path d="M10188.9 7.01555C10125.8 7.01555 10076.7 56.1248 10076.7 126.281V477.063C10076.7 533.189 10118.8 582.298 10188.9 582.298H11844.6C12377.8 582.298 12812.8 1073.39 12812.8 1592.55C12812.8 2090.66 12384.8 2560.71 11879.7 2595.79L9852.19 2588.77C9789.05 2588.77 9739.94 2637.88 9739.94 2708.04V4924.98C9739.94 4995.14 9775.02 5030.21 9852.19 5030.21H10210C10287.2 5030.21 10322.2 4995.14 10322.2 4924.98V3164.05H11858.7C12784.7 3164.05 13381.1 2371.29 13381.1 1564.49C13381.1 701.564 12798.8 7.01555 11886.7 7.01555H10188.9Z" fill="black"/>
<path d="M14154.6 7.01555C14098.5 7.01555 14049.4 49.1093 14049.4 112.25V4924.98C14049.4 4995.14 14084.4 5030.21 14154.6 5030.21H14519.4C14589.6 5030.21 14638.7 4995.14 14638.7 4924.98V119.266C14638.7 56.1248 14610.6 7.01555 14519.4 7.01555H14154.6Z" fill="black"/>
<path d="M16365.2 2813.27H18329.6C18392.7 2813.27 18434.8 2750.13 18434.8 2686.99V2336.21C18434.8 2273.07 18392.7 2223.96 18329.6 2223.96H16365.2V589.314H19136.4C19206.5 589.314 19255.6 533.189 19255.6 463.032V126.281C19255.6 49.1093 19213.5 7.01555 19136.4 7.01555H15888.1C15810.9 7.01555 15775.9 42.0937 15775.9 119.266V4932C15775.9 5002.15 15818 5030.21 15888.1 5030.21H16245.9C16316.1 5030.21 16365.2 5002.15 16365.2 4932V2813.27Z" fill="black"/>
<path d="M20047.1 7.01555C19984 7.01555 19941.9 49.1093 19941.9 112.25V470.048C19941.9 533.189 19984 596.329 20047.1 596.329H21218.7L19920.8 2785.21V4910.95C19920.8 4988.12 19955.9 5030.21 20040.1 5030.21H20404.9C20482.1 5030.21 20503.1 4981.1 20503.1 4910.95V2820.29L22200.9 105.235C22215 84.1874 22229 56.1248 22229 35.0782C22229 21.0467 22222 7.01555 22186.9 7.01555H20047.1Z" fill="black"/>
<path d="M1156.53 4595.72H2032.37C3154.91 4595.72 4003.6 3704.65 4003.6 2610.28C4003.6 1487.75 3105.67 723.068 2053.44 723.068H1156.53L902.735 147.97H2053.44C3442.46 147.97 4586.05 1249.18 4586.05 2666.37C4586.05 4113 3379.26 5171.07 2053.44 5171.07H902.735" fill="black"/>
<path d="M721.283 2620.65V634.966C721.283 634.966 721.283 270.264 365.971 270.264C10.6589 270.264 0 634.966 0 634.966V2620.65H721.283Z" fill="#FF0000"/>
<path d="M0.508085 2687.66V4673.34C0.508085 4673.34 0.508085 5038.05 355.82 5038.05C711.133 5038.05 721.285 4673.34 721.285 4673.34V2687.66H0.508085Z" fill="#FF0000"/>
</svg>
