<svg width="4" height="16" viewBox="0 0 4 16" fill="none" xmlns="http://www.w3.org/2000/svg">
<path fill-rule="evenodd" clip-rule="evenodd" d="M4 14C4 15.1 3.1 16 2 16C0.9 16 0 15.1 0 14C0 12.9 0.9 12 2 12C3.1 12 4 12.9 4 14ZM4 2C4 3.1 3.1 4 2 4C0.9 4 0 3.1 0 2C0 0.9 0.9 0 2 0C3.1 0 4 0.9 4 2ZM4 8C4 9.1 3.1 10 2 10C0.9 10 0 9.1 0 8C0 6.9 0.9 6 2 6C3.1 6 4 6.9 4 8Z" fill="#5D6C76"/>
<mask id="mask0_1068_3275" style="mask-type:alpha" maskUnits="userSpaceOnUse" x="0" y="0" width="4" height="16">
<path fill-rule="evenodd" clip-rule="evenodd" d="M4 14C4 15.1 3.1 16 2 16C0.9 16 0 15.1 0 14C0 12.9 0.9 12 2 12C3.1 12 4 12.9 4 14ZM4 2C4 3.1 3.1 4 2 4C0.9 4 0 3.1 0 2C0 0.9 0.9 0 2 0C3.1 0 4 0.9 4 2ZM4 8C4 9.1 3.1 10 2 10C0.9 10 0 9.1 0 8C0 6.9 0.9 6 2 6C3.1 6 4 6.9 4 8Z" fill="white"/>
</mask>
<g mask="url(#mask0_1068_3275)">
</g>
</svg>
