<svg width="33" height="38" viewBox="0 0 33 38" fill="none" xmlns="http://www.w3.org/2000/svg">
<path d="M27.2536 20.0817C27.2353 16.9669 28.6499 14.6194 31.5066 12.8884C29.9089 10.6049 27.4917 9.34892 24.3054 9.10686C21.2886 8.86937 17.9878 10.8606 16.7793 10.8606C15.502 10.8606 12.5813 9.18907 10.2831 9.18907C5.54034 9.26214 0.5 12.9615 0.5 20.4881C0.5 22.7123 0.907439 25.0096 1.72232 27.3754C2.81187 30.4902 6.73977 38.1218 10.8371 37.9985C12.9795 37.9483 14.4948 36.4822 17.2828 36.4822C19.9884 36.4822 21.3893 37.9985 23.779 37.9985C27.9129 37.9392 31.4654 31.0017 32.5 27.8778C26.9561 25.2699 27.2536 20.2415 27.2536 20.0817V20.0817ZM22.4422 6.15192C24.7632 3.40251 24.5526 0.899725 24.484 0C22.433 0.118745 20.0617 1.39297 18.7112 2.9595C17.2233 4.6402 16.3489 6.71825 16.5366 9.06119C18.7524 9.23017 20.7758 8.09295 22.4422 6.15192V6.15192Z" fill="black"/>
</svg>
