<svg width="170" height="40" viewBox="0 0 170 40" fill="none" xmlns="http://www.w3.org/2000/svg">
<path d="M53.4384 0.69749C53.1701 0.160958 53.0628 0 52.3653 0H52.2044C51.6142 0 51.3459 0.160958 51.0776 0.69749L35.089 37.1817C34.9817 37.3427 34.9817 37.5036 34.9817 37.6646C34.9817 38.1475 35.4109 38.4694 36.0011 38.4694H68.4613C69.0515 38.4694 69.3734 38.2548 69.3734 37.8256C69.3734 37.6646 69.3734 37.5573 69.2124 37.1817C69.2124 37.1281 53.4384 0.69749 53.4384 0.69749ZM52.258 8.36991L63.096 33.9089H41.3664L52.258 8.36991Z" fill="white"/>
<path d="M77.9219 0.0536526C77.439 0.0536526 77.0634 0.429224 77.0634 0.965756V3.64842C77.0634 4.07765 77.3854 4.45322 77.9219 4.45322H90.5841C94.6617 4.45322 97.9882 8.20895 97.9882 12.1793C97.9882 15.9887 94.7154 19.5834 90.8523 19.8517L75.3465 19.7981C74.8636 19.7981 74.4881 20.1736 74.4881 20.7102V37.6646C74.4881 38.2011 74.7563 38.4694 75.3465 38.4694H78.0828C78.673 38.4694 78.9413 38.2011 78.9413 37.6646V24.1976H90.6914C97.7736 24.1976 102.334 18.1348 102.334 11.9647C102.334 5.36533 97.8809 0.0536526 90.906 0.0536526H77.9219Z" fill="white"/>
<path d="M108.25 0.0536526C107.821 0.0536526 107.445 0.375571 107.445 0.858451V37.6646C107.445 38.2011 107.713 38.4694 108.25 38.4694H111.04C111.576 38.4694 111.952 38.2011 111.952 37.6646V0.912104C111.952 0.429224 111.737 0.0536526 111.04 0.0536526H108.25Z" fill="white"/>
<path d="M125.156 21.515H140.179C140.661 21.515 140.983 21.0321 140.983 20.5492V17.8665C140.983 17.3837 140.661 17.0081 140.179 17.0081H125.156V4.50688H146.349C146.885 4.50688 147.261 4.07765 147.261 3.54112V0.965756C147.261 0.375571 146.939 0.0536526 146.349 0.0536526H121.507C120.917 0.0536526 120.649 0.321919 120.649 0.912104V37.7183C120.649 38.2548 120.971 38.4694 121.507 38.4694H124.244C124.78 38.4694 125.156 38.2548 125.156 37.7183V21.515Z" fill="white"/>
<path d="M153.314 0.0536526C152.831 0.0536526 152.509 0.375571 152.509 0.858451V3.59477C152.509 4.07765 152.831 4.56053 153.314 4.56053H162.274L152.348 21.3004V37.5573C152.348 38.1475 152.616 38.4694 153.26 38.4694H156.05C156.64 38.4694 156.801 38.0938 156.801 37.5573V21.5686L169.786 0.804798C169.893 0.643837 170 0.429224 170 0.268266C170 0.160958 169.946 0.0536526 169.678 0.0536526H153.314Z" fill="white"/>
<path d="M8.84499 35.1465H15.5431C24.1279 35.1465 30.6184 28.3319 30.6184 19.9626C30.6184 11.3778 23.7514 5.52979 15.7042 5.52979H8.84499L6.90405 1.13163H15.7042C26.327 1.13163 35.0729 9.55334 35.0729 20.3915C35.0729 31.4549 25.8437 39.5466 15.7042 39.5466H6.90405" fill="white"/>
<path d="M5.51614 20.0419V4.85602C5.51614 4.85602 5.51614 2.06689 2.79883 2.06689C0.081516 2.06689 0 4.85602 0 4.85602V20.0419H5.51614Z" fill="#FF0000"/>
<path d="M0.00388566 20.5543V35.7402C0.00388566 35.7402 0.00388566 38.5293 2.7212 38.5293C5.4385 38.5293 5.51615 35.7402 5.51615 35.7402V20.5543H0.00388566Z" fill="#FF0000"/>
</svg>
