<svg width="37" height="37" viewBox="0 0 37 37" fill="none" xmlns="http://www.w3.org/2000/svg">
<path fill-rule="evenodd" clip-rule="evenodd" d="M18.3373 32.6475C10.4341 32.6475 4.02734 26.2407 4.02734 18.3375C4.02734 10.4343 10.4341 4.02747 18.3373 4.02747C26.2405 4.02747 32.6473 10.4343 32.6473 18.3375C32.6473 26.2407 26.2405 32.6475 18.3373 32.6475ZM18.3373 30.8587C25.2526 30.8587 30.8586 25.2528 30.8586 18.3375C30.8586 11.4222 25.2526 5.81622 18.3373 5.81622C11.422 5.81622 5.81609 11.4222 5.81609 18.3375C5.81609 25.2528 11.422 30.8587 18.3373 30.8587ZM24.598 18.3375L14.7598 24.5981V12.0768L24.598 18.3375Z" fill="#FF0039"/>
<mask id="mask0" style="mask-type:alpha" maskUnits="userSpaceOnUse" x="4" y="4" width="29" height="29">
<path fill-rule="evenodd" clip-rule="evenodd" d="M18.3373 32.6475C10.4341 32.6475 4.02734 26.2407 4.02734 18.3375C4.02734 10.4343 10.4341 4.02747 18.3373 4.02747C26.2405 4.02747 32.6473 10.4343 32.6473 18.3375C32.6473 26.2407 26.2405 32.6475 18.3373 32.6475ZM18.3373 30.8587C25.2526 30.8587 30.8586 25.2528 30.8586 18.3375C30.8586 11.4222 25.2526 5.81622 18.3373 5.81622C11.422 5.81622 5.81609 11.4222 5.81609 18.3375C5.81609 25.2528 11.422 30.8587 18.3373 30.8587ZM24.598 18.3375L14.7598 24.5981V12.0768L24.598 18.3375Z" fill="white"/>
</mask>
<g mask="url(#mask0)">
</g>
</svg>
