<svg width="74" height="56" viewBox="0 0 74 56" fill="none" xmlns="http://www.w3.org/2000/svg">
<path d="M74 3.2C74 1.44 72.5522 0 70.7826 0H3.21739C1.44783 0 0 1.44 0 3.2V52.8C0 54.56 1.44783 56 3.21739 56H70.7826C72.5522 56 74 54.56 74 52.8V3.2ZM67.5652 6.4V33.2L62.1761 28.7199C60.9696 27.7599 59.2804 27.7599 58.0739 28.7199L49.3869 35.9199L29.1979 18.4801C27.9913 17.4401 26.3021 17.44 25.0956 18.4L6.5152 33.36V6.4H67.5652ZM6.43478 49.6V41.6L27.0261 25.04L47.2152 42.4801C48.4217 43.5201 50.1912 43.52 51.3977 42.56L60.0847 35.36L67.5652 41.6V49.6H6.43478ZM41.9066 17.2801C41.9066 14.0801 44.5609 11.44 47.8587 11.44C51.1565 11.44 53.8108 14.0801 53.8108 17.2801C53.8108 20.4801 51.1565 23.1199 47.8587 23.1199C44.5609 23.1199 41.9066 20.4801 41.9066 17.2801Z" fill="white"/>
</svg>
