<svg width="12" height="12" viewBox="0 0 12 12" fill="none" xmlns="http://www.w3.org/2000/svg">
<mask id="path-1-inside-1_1067_1521" fill="white">
<path fill-rule="evenodd" clip-rule="evenodd" d="M7.76749 3.66827C7.73733 3.63877 7.69934 3.62515 7.66998 3.62515C7.64438 3.62515 7.61222 3.6355 7.5844 3.65771L7.46426 3.42265L5.87042 4.20225C5.84392 4.08064 5.82998 3.95449 5.82998 3.82515C5.82998 2.83103 6.65378 2.02515 7.66998 2.02515C8.68618 2.02515 9.50998 2.83103 9.50998 3.82515C9.50998 4.81926 8.68618 5.62515 7.66998 5.62515C7.11617 5.62515 6.61951 5.3858 6.28219 5.00707L7.8757 4.22764L7.75556 3.99258C7.75964 3.98932 7.76363 3.9858 7.76749 3.98202C7.79843 3.95176 7.82998 3.89444 7.82998 3.82515C7.82998 3.75585 7.79843 3.69853 7.76749 3.66827ZM7.75556 3.99258C7.72775 4.01479 7.69558 4.02515 7.66998 4.02515C7.64062 4.02515 7.60263 4.01153 7.57247 3.98202C7.54153 3.95176 7.50998 3.89444 7.50998 3.82515C7.50998 3.75585 7.54153 3.69853 7.57247 3.66827C7.57633 3.66449 7.58032 3.66098 7.5844 3.65771L7.75556 3.99258ZM6.28219 5.00707L4.86954 5.69804C4.89604 5.81965 4.90998 5.94581 4.90998 6.07515C4.90998 6.20837 4.89519 6.33821 4.86712 6.46319L6.26816 7.15916C6.60566 6.77122 7.10844 6.52515 7.66998 6.52515C8.68618 6.52515 9.50998 7.33103 9.50998 8.32515C9.50998 9.31926 8.68618 10.1251 7.66998 10.1251C6.65378 10.1251 5.82998 9.31926 5.82998 8.32515C5.82998 8.20314 5.84239 8.08398 5.86604 7.96879L4.45024 7.26548C4.11307 7.63934 3.61968 7.87515 3.06998 7.87515C2.05378 7.87515 1.22998 7.06926 1.22998 6.07515C1.22998 5.08103 2.05378 4.27515 3.06998 4.27515C3.62379 4.27515 4.12045 4.5145 4.45777 4.89322L5.87042 4.20225C5.9366 4.50594 6.08107 4.78128 6.28219 5.00707ZM7.66998 8.52515C7.64807 8.52515 7.62135 8.51756 7.59667 8.50145L7.76889 8.16966C7.79937 8.20026 7.82998 8.2569 7.82998 8.32515C7.82998 8.39444 7.79843 8.45176 7.76749 8.48202C7.73733 8.51153 7.69934 8.52515 7.66998 8.52515Z"/>
</mask>
<path d="M7.76749 3.66827L9.16608 2.2386L9.16608 2.2386L7.76749 3.66827ZM7.46426 3.42265L9.24513 2.51243L8.35077 0.762603L6.58549 1.62606L7.46426 3.42265ZM7.8757 4.22764L8.75447 6.02424L10.5829 5.12988L9.65657 3.31742L7.8757 4.22764ZM7.76749 3.98202L9.16606 5.41171L9.16608 5.41169L7.76749 3.98202ZM7.57247 3.98202L6.17388 5.41169L6.17388 5.41169L7.57247 3.98202ZM7.57247 3.66827L6.17392 2.23856L6.17388 2.2386L7.57247 3.66827ZM4.86954 5.69804L3.99077 3.90145L2.58133 4.59084L2.91539 6.12387L4.86954 5.69804ZM4.86712 6.46319L2.91573 6.0249L2.57181 7.55616L3.97735 8.25436L4.86712 6.46319ZM6.26816 7.15916L5.37839 8.95033L6.76259 9.63794L7.77705 8.47188L6.26816 7.15916ZM5.86604 7.96879L7.82518 8.37099L8.13483 6.86265L6.75581 6.17761L5.86604 7.96879ZM4.45024 7.26548L5.34001 5.47431L3.98117 4.7993L2.96502 5.92604L4.45024 7.26548ZM4.45777 4.89322L2.96429 6.22344L3.9735 7.35652L5.33654 6.68982L4.45777 4.89322ZM7.59667 8.50145L5.82156 7.58003L4.98757 9.18671L6.50344 10.1762L7.59667 8.50145ZM7.76889 8.16966L9.18604 6.75838L7.25473 4.81904L5.99379 7.24824L7.76889 8.16966ZM7.76749 8.48202L6.36891 7.05235L6.3689 7.05235L7.76749 8.48202ZM7.66998 5.62515C7.14985 5.62515 6.69297 5.41496 6.36891 5.09794L9.16608 2.2386C8.78169 1.86257 8.24882 1.62515 7.66998 1.62515V5.62515ZM8.8325 5.22048C8.53427 5.45867 8.13298 5.62515 7.66998 5.62515V1.62515C7.15578 1.62515 6.69017 1.81234 6.33631 2.09494L8.8325 5.22048ZM9.36527 2.74749L9.24513 2.51243L5.68339 4.33288L5.80354 4.56794L9.36527 2.74749ZM6.58549 1.62606L4.99165 2.40565L6.74919 5.99885L8.34303 5.21925L6.58549 1.62606ZM7.82457 3.77643C7.82833 3.79371 7.82998 3.8103 7.82998 3.82515H3.82998C3.82998 4.09868 3.85952 4.36757 3.91628 4.62807L7.82457 3.77643ZM7.82998 3.82515C7.82998 3.89444 7.79843 3.95176 7.76749 3.98202C7.73733 4.01153 7.69934 4.02515 7.66998 4.02515V0.0251465C5.59087 0.0251465 3.82998 1.68525 3.82998 3.82515H7.82998ZM7.66998 4.02515C7.64062 4.02515 7.60263 4.01153 7.57247 3.98202C7.54153 3.95176 7.50998 3.89444 7.50998 3.82515H11.51C11.51 1.68525 9.74909 0.0251465 7.66998 0.0251465V4.02515ZM7.50998 3.82515C7.50998 3.75585 7.54153 3.69853 7.57247 3.66827C7.60263 3.63877 7.64062 3.62515 7.66998 3.62515V7.62515C9.74909 7.62515 11.51 5.96504 11.51 3.82515H7.50998ZM7.66998 3.62515C7.70251 3.62515 7.74411 3.64141 7.77568 3.67685L4.7887 6.3373C5.49491 7.13019 6.52984 7.62515 7.66998 7.62515V3.62515ZM7.16096 6.80367L8.75447 6.02424L6.99693 2.43104L5.40342 3.21048L7.16096 6.80367ZM9.65657 3.31742L9.53643 3.08236L5.97469 4.9028L6.09483 5.13786L9.65657 3.31742ZM6.36892 2.55234C6.41373 2.50851 6.46003 2.46769 6.50744 2.42982L9.00367 5.55533C9.05925 5.51095 9.11353 5.46309 9.16606 5.41171L6.36892 2.55234ZM5.82998 3.82515C5.82998 3.55537 5.89122 3.31429 5.97906 3.11421C6.06315 2.92268 6.18935 2.72801 6.3689 2.55236L9.16608 5.41169C9.54896 5.03713 9.82998 4.47654 9.82998 3.82515H5.82998ZM6.3689 5.09794C6.18935 4.92229 6.06315 4.72761 5.97906 4.53608C5.89122 4.336 5.82998 4.09492 5.82998 3.82515H9.82998C9.82998 3.17375 9.54896 2.61316 9.16608 2.2386L6.3689 5.09794ZM6.50744 2.42982C6.80568 2.19163 7.20698 2.02515 7.66998 2.02515V6.02515C8.18418 6.02515 8.64981 5.83795 9.00368 5.55533L6.50744 2.42982ZM7.66998 2.02515C8.19011 2.02515 8.64699 2.23533 8.97105 2.55235L6.17388 5.41169C6.55827 5.78772 7.09114 6.02515 7.66998 6.02515V2.02515ZM8.97106 2.55236C9.15061 2.72801 9.27681 2.92268 9.3609 3.11421C9.44874 3.31429 9.50998 3.55537 9.50998 3.82515H5.50998C5.50998 4.47654 5.791 5.03713 6.17388 5.41169L8.97106 2.55236ZM9.50998 3.82515C9.50998 4.09492 9.44874 4.336 9.3609 4.53608C9.27681 4.72761 9.15061 4.92229 8.97106 5.09794L6.17388 2.2386C5.791 2.61316 5.50998 3.17375 5.50998 3.82515H9.50998ZM8.97102 5.09798C8.92622 5.1418 8.87991 5.18262 8.83249 5.2205L6.33632 2.09493C6.28073 2.13933 6.22644 2.18718 6.17392 2.23856L8.97102 5.09798ZM9.53643 3.08236L9.36527 2.74749L5.80353 4.56794L5.97469 4.9028L9.53643 3.08236ZM5.40342 3.21048L3.99077 3.90145L5.74831 7.49464L7.16096 6.80367L5.40342 3.21048ZM2.91539 6.12387C2.91163 6.10658 2.90998 6.09 2.90998 6.07515H6.90998C6.90998 5.80161 6.88044 5.53272 6.82368 5.27222L2.91539 6.12387ZM2.90998 6.07515C2.90998 6.05983 2.91173 6.0427 2.91573 6.0249L6.8185 6.90147C6.87864 6.63372 6.90998 6.35691 6.90998 6.07515H2.90998ZM3.97735 8.25436L5.37839 8.95033L7.15793 5.36798L5.75689 4.67201L3.97735 8.25436ZM7.77705 8.47188C7.74525 8.50843 7.70303 8.52515 7.66998 8.52515V4.52515C6.51386 4.52515 5.46606 5.03402 4.75927 5.84643L7.77705 8.47188ZM7.66998 8.52515C7.64062 8.52515 7.60263 8.51153 7.57247 8.48202C7.54153 8.45176 7.50998 8.39444 7.50998 8.32515H11.51C11.51 6.18525 9.74909 4.52515 7.66998 4.52515V8.52515ZM7.50998 8.32515C7.50998 8.25585 7.54153 8.19853 7.57247 8.16827C7.60263 8.13877 7.64062 8.12515 7.66998 8.12515V12.1251C9.74909 12.1251 11.51 10.465 11.51 8.32515H7.50998ZM7.66998 8.12515C7.69934 8.12515 7.73733 8.13877 7.76749 8.16827C7.79843 8.19853 7.82998 8.25585 7.82998 8.32515H3.82998C3.82998 10.465 5.59088 12.1251 7.66998 12.1251V8.12515ZM7.82998 8.32515C7.82998 8.33911 7.82852 8.35469 7.82518 8.37099L3.9069 7.56658C3.85625 7.81327 3.82998 8.06718 3.82998 8.32515H7.82998ZM6.75581 6.17761L5.34001 5.47431L3.56046 9.05666L4.97626 9.75996L6.75581 6.17761ZM2.96502 5.92604C2.99646 5.89117 3.03773 5.87515 3.06998 5.87515V9.87515C4.20162 9.87515 5.22969 9.38751 5.93545 8.60493L2.96502 5.92604ZM3.06998 5.87515C3.09934 5.87515 3.13733 5.88877 3.16749 5.91827C3.19843 5.94853 3.22998 6.00585 3.22998 6.07515H-0.77002C-0.77002 8.21504 0.990874 9.87515 3.06998 9.87515V5.87515ZM3.22998 6.07515C3.22998 6.14444 3.19843 6.20176 3.16749 6.23202C3.13733 6.26153 3.09934 6.27515 3.06998 6.27515V2.27515C0.990874 2.27515 -0.77002 3.93525 -0.77002 6.07515H3.22998ZM3.06998 6.27515C3.03745 6.27515 2.99585 6.25888 2.96429 6.22344L5.95126 3.563C5.24505 2.77011 4.21012 2.27515 3.06998 2.27515V6.27515ZM5.33654 6.68982L6.74919 5.99885L4.99165 2.40565L3.579 3.09662L5.33654 6.68982ZM3.91628 4.62807C4.05827 5.27969 4.36704 5.86388 4.7887 6.3373L7.77568 3.67685C7.79511 3.69867 7.81493 3.73219 7.82457 3.77643L3.91628 4.62807ZM6.50344 10.1762C6.81998 10.3828 7.22192 10.5251 7.66998 10.5251V6.52515C8.07422 6.52515 8.42272 6.65228 8.6899 6.82668L6.50344 10.1762ZM5.99379 7.24824L5.82156 7.58003L9.37177 9.42286L9.544 9.09107L5.99379 7.24824ZM9.82998 8.32515C9.82998 7.68162 9.55582 7.1297 9.18604 6.75838L6.35174 9.58093C6.04292 9.27083 5.82998 8.83217 5.82998 8.32515H9.82998ZM9.16607 9.9117C9.54897 9.53713 9.82998 8.97653 9.82998 8.32515H5.82998C5.82998 8.05537 5.89122 7.81429 5.97906 7.61421C6.06315 7.42268 6.18935 7.22801 6.36891 7.05235L9.16607 9.9117ZM7.66998 10.5251C8.24883 10.5251 8.78169 10.2877 9.16608 9.91169L6.3689 7.05235C6.69297 6.73533 7.14985 6.52515 7.66998 6.52515V10.5251Z" fill="#FF0039" mask="url(#path-1-inside-1_1067_1521)"/>
<mask id="mask0_1067_1521" style="mask-type:alpha" maskUnits="userSpaceOnUse" x="1" y="2" width="9" height="9">
<mask id="path-3-inside-2_1067_1521" fill="white">
<path fill-rule="evenodd" clip-rule="evenodd" d="M7.76749 3.66827C7.73733 3.63877 7.69934 3.62515 7.66998 3.62515C7.64438 3.62515 7.61222 3.6355 7.5844 3.65771L7.46426 3.42265L5.87042 4.20225C5.84392 4.08064 5.82998 3.95449 5.82998 3.82515C5.82998 2.83103 6.65378 2.02515 7.66998 2.02515C8.68618 2.02515 9.50998 2.83103 9.50998 3.82515C9.50998 4.81926 8.68618 5.62515 7.66998 5.62515C7.11617 5.62515 6.61951 5.3858 6.28219 5.00707L7.8757 4.22764L7.75556 3.99258C7.75964 3.98932 7.76363 3.9858 7.76749 3.98202C7.79843 3.95176 7.82998 3.89444 7.82998 3.82515C7.82998 3.75585 7.79843 3.69853 7.76749 3.66827ZM7.75556 3.99258C7.72775 4.01479 7.69558 4.02515 7.66998 4.02515C7.64062 4.02515 7.60263 4.01153 7.57247 3.98202C7.54153 3.95176 7.50998 3.89444 7.50998 3.82515C7.50998 3.75585 7.54153 3.69853 7.57247 3.66827C7.57633 3.66449 7.58032 3.66098 7.5844 3.65771L7.75556 3.99258ZM6.28219 5.00707L4.86954 5.69804C4.89604 5.81965 4.90998 5.94581 4.90998 6.07515C4.90998 6.20837 4.89519 6.33821 4.86712 6.46319L6.26816 7.15916C6.60566 6.77122 7.10844 6.52515 7.66998 6.52515C8.68618 6.52515 9.50998 7.33103 9.50998 8.32515C9.50998 9.31926 8.68618 10.1251 7.66998 10.1251C6.65378 10.1251 5.82998 9.31926 5.82998 8.32515C5.82998 8.20314 5.84239 8.08398 5.86604 7.96879L4.45024 7.26548C4.11307 7.63934 3.61968 7.87515 3.06998 7.87515C2.05378 7.87515 1.22998 7.06926 1.22998 6.07515C1.22998 5.08103 2.05378 4.27515 3.06998 4.27515C3.62379 4.27515 4.12045 4.5145 4.45777 4.89322L5.87042 4.20225C5.9366 4.50594 6.08107 4.78128 6.28219 5.00707ZM7.66998 8.52515C7.64807 8.52515 7.62135 8.51756 7.59667 8.50145L7.76889 8.16966C7.79937 8.20026 7.82998 8.2569 7.82998 8.32515C7.82998 8.39444 7.79843 8.45176 7.76749 8.48202C7.73733 8.51153 7.69934 8.52515 7.66998 8.52515Z"/>
</mask>
<path d="M7.76749 3.66827L9.16608 2.2386L9.16608 2.2386L7.76749 3.66827ZM7.46426 3.42265L9.24513 2.51243L8.35077 0.762603L6.58549 1.62606L7.46426 3.42265ZM7.8757 4.22764L8.75447 6.02424L10.5829 5.12988L9.65657 3.31742L7.8757 4.22764ZM7.76749 3.98202L9.16606 5.41171L9.16608 5.41169L7.76749 3.98202ZM7.57247 3.98202L6.17388 5.41169L6.17388 5.41169L7.57247 3.98202ZM7.57247 3.66827L6.17392 2.23856L6.17388 2.2386L7.57247 3.66827ZM4.86954 5.69804L3.99077 3.90145L2.58133 4.59084L2.91539 6.12387L4.86954 5.69804ZM4.86712 6.46319L2.91573 6.0249L2.57181 7.55616L3.97735 8.25436L4.86712 6.46319ZM6.26816 7.15916L5.37839 8.95033L6.76259 9.63794L7.77705 8.47188L6.26816 7.15916ZM5.86604 7.96879L7.82518 8.37099L8.13483 6.86265L6.75581 6.17761L5.86604 7.96879ZM4.45024 7.26548L5.34001 5.47431L3.98117 4.7993L2.96502 5.92604L4.45024 7.26548ZM4.45777 4.89322L2.96429 6.22344L3.9735 7.35652L5.33654 6.68982L4.45777 4.89322ZM7.59667 8.50145L5.82156 7.58003L4.98757 9.18671L6.50344 10.1762L7.59667 8.50145ZM7.76889 8.16966L9.18604 6.75838L7.25473 4.81904L5.99379 7.24824L7.76889 8.16966ZM7.76749 8.48202L6.36891 7.05235L6.3689 7.05235L7.76749 8.48202ZM7.66998 5.62515C7.14985 5.62515 6.69297 5.41496 6.36891 5.09794L9.16608 2.2386C8.78169 1.86257 8.24882 1.62515 7.66998 1.62515V5.62515ZM8.8325 5.22048C8.53427 5.45867 8.13298 5.62515 7.66998 5.62515V1.62515C7.15578 1.62515 6.69017 1.81234 6.33631 2.09494L8.8325 5.22048ZM9.36527 2.74749L9.24513 2.51243L5.68339 4.33288L5.80354 4.56794L9.36527 2.74749ZM6.58549 1.62606L4.99165 2.40565L6.74919 5.99885L8.34303 5.21925L6.58549 1.62606ZM7.82457 3.77643C7.82833 3.79371 7.82998 3.8103 7.82998 3.82515H3.82998C3.82998 4.09868 3.85952 4.36757 3.91628 4.62807L7.82457 3.77643ZM7.82998 3.82515C7.82998 3.89444 7.79843 3.95176 7.76749 3.98202C7.73733 4.01153 7.69934 4.02515 7.66998 4.02515V0.0251465C5.59087 0.0251465 3.82998 1.68525 3.82998 3.82515H7.82998ZM7.66998 4.02515C7.64062 4.02515 7.60263 4.01153 7.57247 3.98202C7.54153 3.95176 7.50998 3.89444 7.50998 3.82515H11.51C11.51 1.68525 9.74909 0.0251465 7.66998 0.0251465V4.02515ZM7.50998 3.82515C7.50998 3.75585 7.54153 3.69853 7.57247 3.66827C7.60263 3.63877 7.64062 3.62515 7.66998 3.62515V7.62515C9.74909 7.62515 11.51 5.96504 11.51 3.82515H7.50998ZM7.66998 3.62515C7.70251 3.62515 7.74411 3.64141 7.77568 3.67685L4.7887 6.3373C5.49491 7.13019 6.52984 7.62515 7.66998 7.62515V3.62515ZM7.16096 6.80367L8.75447 6.02424L6.99693 2.43104L5.40342 3.21048L7.16096 6.80367ZM9.65657 3.31742L9.53643 3.08236L5.97469 4.9028L6.09483 5.13786L9.65657 3.31742ZM6.36892 2.55234C6.41373 2.50851 6.46003 2.46769 6.50744 2.42982L9.00367 5.55533C9.05925 5.51095 9.11353 5.46309 9.16606 5.41171L6.36892 2.55234ZM5.82998 3.82515C5.82998 3.55537 5.89122 3.31429 5.97906 3.11421C6.06315 2.92268 6.18935 2.72801 6.3689 2.55236L9.16608 5.41169C9.54896 5.03713 9.82998 4.47654 9.82998 3.82515H5.82998ZM6.3689 5.09794C6.18935 4.92229 6.06315 4.72761 5.97906 4.53608C5.89122 4.336 5.82998 4.09492 5.82998 3.82515H9.82998C9.82998 3.17375 9.54896 2.61316 9.16608 2.2386L6.3689 5.09794ZM6.50744 2.42982C6.80568 2.19163 7.20698 2.02515 7.66998 2.02515V6.02515C8.18418 6.02515 8.64981 5.83795 9.00368 5.55533L6.50744 2.42982ZM7.66998 2.02515C8.19011 2.02515 8.64699 2.23533 8.97105 2.55235L6.17388 5.41169C6.55827 5.78772 7.09114 6.02515 7.66998 6.02515V2.02515ZM8.97106 2.55236C9.15061 2.72801 9.27681 2.92268 9.3609 3.11421C9.44874 3.31429 9.50998 3.55537 9.50998 3.82515H5.50998C5.50998 4.47654 5.791 5.03713 6.17388 5.41169L8.97106 2.55236ZM9.50998 3.82515C9.50998 4.09492 9.44874 4.336 9.3609 4.53608C9.27681 4.72761 9.15061 4.92229 8.97106 5.09794L6.17388 2.2386C5.791 2.61316 5.50998 3.17375 5.50998 3.82515H9.50998ZM8.97102 5.09798C8.92622 5.1418 8.87991 5.18262 8.83249 5.2205L6.33632 2.09493C6.28073 2.13933 6.22644 2.18718 6.17392 2.23856L8.97102 5.09798ZM9.53643 3.08236L9.36527 2.74749L5.80353 4.56794L5.97469 4.9028L9.53643 3.08236ZM5.40342 3.21048L3.99077 3.90145L5.74831 7.49464L7.16096 6.80367L5.40342 3.21048ZM2.91539 6.12387C2.91163 6.10658 2.90998 6.09 2.90998 6.07515H6.90998C6.90998 5.80161 6.88044 5.53272 6.82368 5.27222L2.91539 6.12387ZM2.90998 6.07515C2.90998 6.05983 2.91173 6.0427 2.91573 6.0249L6.8185 6.90147C6.87864 6.63372 6.90998 6.35691 6.90998 6.07515H2.90998ZM3.97735 8.25436L5.37839 8.95033L7.15793 5.36798L5.75689 4.67201L3.97735 8.25436ZM7.77705 8.47188C7.74525 8.50843 7.70303 8.52515 7.66998 8.52515V4.52515C6.51386 4.52515 5.46606 5.03402 4.75927 5.84643L7.77705 8.47188ZM7.66998 8.52515C7.64062 8.52515 7.60263 8.51153 7.57247 8.48202C7.54153 8.45176 7.50998 8.39444 7.50998 8.32515H11.51C11.51 6.18525 9.74909 4.52515 7.66998 4.52515V8.52515ZM7.50998 8.32515C7.50998 8.25585 7.54153 8.19853 7.57247 8.16827C7.60263 8.13877 7.64062 8.12515 7.66998 8.12515V12.1251C9.74909 12.1251 11.51 10.465 11.51 8.32515H7.50998ZM7.66998 8.12515C7.69934 8.12515 7.73733 8.13877 7.76749 8.16827C7.79843 8.19853 7.82998 8.25585 7.82998 8.32515H3.82998C3.82998 10.465 5.59088 12.1251 7.66998 12.1251V8.12515ZM7.82998 8.32515C7.82998 8.33911 7.82852 8.35469 7.82518 8.37099L3.9069 7.56658C3.85625 7.81327 3.82998 8.06718 3.82998 8.32515H7.82998ZM6.75581 6.17761L5.34001 5.47431L3.56046 9.05666L4.97626 9.75996L6.75581 6.17761ZM2.96502 5.92604C2.99646 5.89117 3.03773 5.87515 3.06998 5.87515V9.87515C4.20162 9.87515 5.22969 9.38751 5.93545 8.60493L2.96502 5.92604ZM3.06998 5.87515C3.09934 5.87515 3.13733 5.88877 3.16749 5.91827C3.19843 5.94853 3.22998 6.00585 3.22998 6.07515H-0.77002C-0.77002 8.21504 0.990874 9.87515 3.06998 9.87515V5.87515ZM3.22998 6.07515C3.22998 6.14444 3.19843 6.20176 3.16749 6.23202C3.13733 6.26153 3.09934 6.27515 3.06998 6.27515V2.27515C0.990874 2.27515 -0.77002 3.93525 -0.77002 6.07515H3.22998ZM3.06998 6.27515C3.03745 6.27515 2.99585 6.25888 2.96429 6.22344L5.95126 3.563C5.24505 2.77011 4.21012 2.27515 3.06998 2.27515V6.27515ZM5.33654 6.68982L6.74919 5.99885L4.99165 2.40565L3.579 3.09662L5.33654 6.68982ZM3.91628 4.62807C4.05827 5.27969 4.36704 5.86388 4.7887 6.3373L7.77568 3.67685C7.79511 3.69867 7.81493 3.73219 7.82457 3.77643L3.91628 4.62807ZM6.50344 10.1762C6.81998 10.3828 7.22192 10.5251 7.66998 10.5251V6.52515C8.07422 6.52515 8.42272 6.65228 8.6899 6.82668L6.50344 10.1762ZM5.99379 7.24824L5.82156 7.58003L9.37177 9.42286L9.544 9.09107L5.99379 7.24824ZM9.82998 8.32515C9.82998 7.68162 9.55582 7.1297 9.18604 6.75838L6.35174 9.58093C6.04292 9.27083 5.82998 8.83217 5.82998 8.32515H9.82998ZM9.16607 9.9117C9.54897 9.53713 9.82998 8.97653 9.82998 8.32515H5.82998C5.82998 8.05537 5.89122 7.81429 5.97906 7.61421C6.06315 7.42268 6.18935 7.22801 6.36891 7.05235L9.16607 9.9117ZM7.66998 10.5251C8.24883 10.5251 8.78169 10.2877 9.16608 9.91169L6.3689 7.05235C6.69297 6.73533 7.14985 6.52515 7.66998 6.52515V10.5251Z" fill="white" mask="url(#path-3-inside-2_1067_1521)"/>
</mask>
<g mask="url(#mask0_1067_1521)">
</g>
</svg>
