<svg width="30" height="30" viewBox="0 0 30 30" fill="none" xmlns="http://www.w3.org/2000/svg">
<path fill-rule="evenodd" clip-rule="evenodd" d="M0 2.5C0 1.11929 1.11929 0 2.5 0H3.5C4.88071 0 6 1.11929 6 2.5V3.5C6 4.88071 4.88071 6 3.5 6H2.5C1.11929 6 0 4.88071 0 3.5V2.5ZM0 14.5C0 13.1193 1.11929 12 2.5 12H3.5C4.88071 12 6 13.1193 6 14.5V15.5C6 16.8807 4.88071 18 3.5 18H2.5C1.11929 18 0 16.8807 0 15.5V14.5ZM14.5 0C13.1193 0 12 1.11929 12 2.5V3.5C12 4.88071 13.1193 6 14.5 6H15.5C16.8807 6 18 4.88071 18 3.5V2.5C18 1.11929 16.8807 0 15.5 0H14.5ZM12 14.5C12 13.1193 13.1193 12 14.5 12H15.5C16.8807 12 18 13.1193 18 14.5V15.5C18 16.8807 16.8807 18 15.5 18H14.5C13.1193 18 12 16.8807 12 15.5V14.5ZM26.5 0C25.1193 0 24 1.11929 24 2.5V3.5C24 4.88071 25.1193 6 26.5 6H27.5C28.8807 6 30 4.88071 30 3.5V2.5C30 1.11929 28.8807 0 27.5 0H26.5ZM24 14.5C24 13.1193 25.1193 12 26.5 12H27.5C28.8807 12 30 13.1193 30 14.5V15.5C30 16.8807 28.8807 18 27.5 18H26.5C25.1193 18 24 16.8807 24 15.5V14.5ZM2.5 24C1.11929 24 0 25.1193 0 26.5V27.5C0 28.8807 1.11929 30 2.5 30H3.5C4.88071 30 6 28.8807 6 27.5V26.5C6 25.1193 4.88071 24 3.5 24H2.5ZM12 26.5C12 25.1193 13.1193 24 14.5 24H15.5C16.8807 24 18 25.1193 18 26.5V27.5C18 28.8807 16.8807 30 15.5 30H14.5C13.1193 30 12 28.8807 12 27.5V26.5ZM26.5 24C25.1193 24 24 25.1193 24 26.5V27.5C24 28.8807 25.1193 30 26.5 30H27.5C28.8807 30 30 28.8807 30 27.5V26.5C30 25.1193 28.8807 24 27.5 24H26.5Z" fill="white"/>
</svg>
