<svg width="74" height="79" viewBox="0 0 74 79" fill="none" xmlns="http://www.w3.org/2000/svg">
<path d="M74 37.156L73.914 59.1198C73.914 61.0297 72.3651 62.5055 70.4721 62.5055C68.5791 62.5055 67.0303 61.0297 67.0303 59.1198L67.1163 37.156C67.1163 29.0824 64.0186 21.5297 58.3396 15.8C52.6605 10.0703 45.0884 6.94506 37.086 6.94506H37C20.4791 6.94506 6.96977 20.4011 6.88372 36.9824V59.033C6.88372 60.9429 5.33488 62.5055 3.44186 62.5055C1.54884 62.5055 0 60.9429 0 59.033L0.0860255 36.9824C0.172072 16.5813 16.693 0 37.086 0H37.1721C47.0674 0 56.3605 3.90659 63.2442 10.9385C70.214 17.9703 74 27.2593 74 37.156ZM28.9116 38.9791C29.5139 39.5868 29.7721 40.1945 29.7721 40.9758L29.686 76.1352C29.686 77.7846 28.3093 79 26.6744 79C15.3163 79 11.6163 72.4022 11.186 68.756C11.186 68.6692 11.186 68.756 11.186 68.5824L11.2721 48.789C11.2721 48.7022 11.2721 48.6154 11.2721 48.4418C11.7023 44.8824 15.4884 38.111 26.7604 38.111H26.8465C27.5348 38.1978 28.3093 38.3714 28.9116 38.9791ZM23.7488 44.3615C18.3279 45.2297 17.3814 48.4418 17.2093 49.0494L17.1233 68.4088C17.2954 69.1033 18.2419 72.2286 23.6628 73.0967L23.7488 44.3615ZM62.9 48.789L62.986 68.4956C62.986 68.5824 62.986 68.6692 62.986 68.756C62.5558 72.3154 58.8558 79 47.4976 79C45.8627 79 44.486 77.8714 44.486 76.1352L44.4 41.1495C44.4 40.3681 44.7442 39.5868 45.2604 39.0659C45.8628 38.4582 46.5511 38.1978 47.4116 38.1978H47.4976C58.7697 38.1978 62.5558 44.8824 62.986 48.5286C62.9 48.6154 62.9 48.6154 62.9 48.789ZM56.9627 68.4088L56.8767 49.0494C56.7046 48.3549 55.7581 45.2297 50.3372 44.3615L50.4232 73.0967C55.9302 72.1418 56.7907 69.0165 56.9627 68.4088Z" fill="white"/>
</svg>
