<svg width="17" height="18" viewBox="0 0 17 18" fill="none" xmlns="http://www.w3.org/2000/svg">
<path d="M16.6328 8.40098L16.6141 13.145C16.6141 13.5575 16.2766 13.8763 15.864 13.8763C15.4515 13.8763 15.114 13.5575 15.114 13.145L15.1327 8.40098C15.1327 6.65712 14.4577 5.02577 13.2201 3.7882C11.9825 2.55062 10.3324 1.87558 8.58858 1.87558H8.56983C4.96961 1.87558 2.02568 4.78201 2.00693 8.36348V13.1263C2.00693 13.5388 1.66941 13.8763 1.25688 13.8763C0.844357 13.8763 0.506836 13.5388 0.506836 13.1263L0.525583 8.36348C0.544334 3.95696 4.14455 0.375488 8.58858 0.375488H8.60732C10.7637 0.375488 12.7888 1.21929 14.2889 2.73813C15.8078 4.25698 16.6328 6.26335 16.6328 8.40098ZM6.80722 8.79475C6.93848 8.92601 6.99473 9.05727 6.99473 9.22603L6.97598 16.8202C6.97598 17.1765 6.67596 17.439 6.31969 17.439C3.84454 17.439 3.03824 16.0139 2.94449 15.2264C2.94449 15.2076 2.94449 15.2264 2.94449 15.1889L2.96323 10.9136C2.96323 10.8949 2.96323 10.8761 2.96323 10.8386C3.05699 10.0698 3.88204 8.60724 6.33844 8.60724H6.35719C6.50719 8.62599 6.67596 8.6635 6.80722 8.79475ZM5.68215 9.95733C4.50083 10.1448 4.29457 10.8386 4.25707 10.9699L4.23832 15.1514C4.27582 15.3014 4.48208 15.9764 5.6634 16.164L5.68215 9.95733ZM14.2139 10.9136L14.2327 15.1701C14.2327 15.1889 14.2327 15.2076 14.2327 15.2264C14.1389 15.9952 13.3326 17.439 10.8575 17.439C10.5012 17.439 10.2012 17.1953 10.2012 16.8202L10.1824 9.26353C10.1824 9.09477 10.2574 8.92601 10.3699 8.81351C10.5012 8.68225 10.6512 8.62599 10.8387 8.62599H10.8575C13.3139 8.62599 14.1389 10.0698 14.2327 10.8574C14.2139 10.8761 14.2139 10.8761 14.2139 10.9136ZM12.9201 15.1514L12.9013 10.9699C12.8638 10.8199 12.6576 10.1448 11.4763 9.95733L11.495 16.164C12.6951 15.9577 12.8826 15.2827 12.9201 15.1514Z" fill="white"/>
</svg>
