<svg width="39" height="29" viewBox="0 0 39 29" fill="none" xmlns="http://www.w3.org/2000/svg">
<path id="Youtube" fill-rule="evenodd" clip-rule="evenodd" d="M15.6865 20.0862L15.6853 8.89467L25.7779 14.5097L15.6865 20.0862ZM37.8468 6.95537C37.8468 6.95537 37.4814 4.21069 36.3619 3.00204C34.9413 1.41499 33.3491 1.40752 32.6195 1.31541C27.3923 0.912109 19.5514 0.912109 19.5514 0.912109H19.5351C19.5351 0.912109 11.6942 0.912109 6.46699 1.31541C5.73625 1.40752 4.1452 1.41499 2.72341 3.00204C1.60395 4.21069 1.23975 6.95537 1.23975 6.95537C1.23975 6.95537 0.866211 10.1793 0.866211 13.4019V16.4242C0.866211 19.6481 1.23975 22.8707 1.23975 22.8707C1.23975 22.8707 1.60395 25.6154 2.72341 26.824C4.1452 28.4111 6.01174 28.3613 6.84286 28.5269C9.83119 28.8331 19.5433 28.9277 19.5433 28.9277C19.5433 28.9277 27.3923 28.9152 32.6195 28.5119C33.3491 28.4186 34.9413 28.4111 36.3619 26.824C37.4814 25.6154 37.8468 22.8707 37.8468 22.8707C37.8468 22.8707 38.2203 19.6481 38.2203 16.4242V13.4019C38.2203 10.1793 37.8468 6.95537 37.8468 6.95537Z" fill="white"/>
</svg>
